{
.appVersion = "1192";
DisplayStrings = (
B,
"0",
"/l_l"
);
copyright = "Copyright (c) 2015 by alit_design. All rights reserved.";
customParameters = (
{
name = panose;
value = (
3,
6,
9,
0,
0,
0,
0,
2,
0,
4
);
},
{
name = unicodeRanges;
value = (
0,
1,
2,
3,
5,
31,
33,
35,
60
);
},
{
name = codePageRanges;
value = (
1252,
1254
);
},
{
name = blueScale;
value = 0.037;
},
{
name = glyphOrder;
value = (
.notdef,
NULL,
uni000D,
space,
d,
e,
f,
g,
h,
i,
j,
k,
l,
m,
n,
o,
p,
q,
s,
t,
u,
v,
w,
x,
y,
z,
c,
A,
B,
C,
D,
E,
F,
G,
H,
I,
J,
K,
L,
M,
N,
O,
P,
Q,
R,
S,
T,
U,
V,
W,
X,
Y,
a,
Z,
period,
comma,
plus,
colon,
semicolon,
equal,
hyphen,
quotesingle,
quotedbl,
underscore,
r,
b,
exclam,
numbersign,
dollar,
percent,
ampersand,
perthousand,
asterisk,
zero,
one,
two,
three,
four,
five,
six,
seven,
eight,
nine,
parenleft,
parenright,
slash,
backslash,
bar,
less,
greater,
question,
at,
bracketleft,
bracketright,
asciicircum,
braceleft,
braceright,
asciitilde,
Euro,
florin,
dagger,
daggerdbl,
germandbls,
exclamdown,
cent,
sterling,
currency,
yen,
section,
oslash,
ae,
thorn,
Thorn,
oe,
uni00B5,
paragraph,
copyright,
registered,
trademark,
questiondown,
divide,
multiply,
bullet,
plusminus,
b.ss01,
m.ss01,
o.ss02,
l_l
);
}
);
date = "2019-05-23 01:56:31 +0000";
designer = "Alit Suarnegara";
designerURL = www.alitdesign.net;
disablesNiceNames = 1;
familyName = bromello;
features = (
{
code = "sub l l by l_l;\012";
name = dlig;
},
{
code = "sub m by m.ss01;\012sub b by b.ss01;\012";
name = salt;
},
{
code = "sub m by m.ss01;\012sub b by b.ss01;\012";
name = ss01;
},
{
code = "sub o by o.ss02;\012";
name = ss02;
}
);
fontMaster = (
{
ascender = 1066;
capHeight = 853;
customParameters = (
{
name = typoAscender;
value = 1066;
},
{
name = typoDescender;
value = -436;
},
{
name = typoLineGap;
value = 47;
},
{
name = winAscent;
value = 1066;
},
{
name = winDescent;
value = 436;
},
{
name = hheaAscender;
value = 1066;
},
{
name = hheaDescender;
value = -436;
},
{
name = strikeoutPosition;

glyphs = (
{
glyphname = d;
layers = (
{
hints = (
{
horizontal = 1;
place = "{-61, 36.85}";
type = Stem;
},
{
horizontal = 1;
place = "{33, 71.5}";
type = Stem;
},
{
horizontal = 1;
place = "{413, 23}";
type = Stem;
},
{
horizontal = 1;
place = "{687, 31}";
type = Stem;
},
{
place = "{-25, 85}";
type = Stem;
},
{
place = "{189, 83}";
type = Stem;
},
{
place = "{403, 46}";
type = Stem;
}
);
layerId = "54D2F088-3B12-48DB-A05E-ED165257FC93";
paths = (
{
closed = 1;
nodes = (
"557 305 OFFCURVE",
"552 299 OFFCURVE",
"545 280 CURVE SMOOTH",
"541 268 OFFCURVE",
"534 252 OFFCURVE",
"527 240 CURVE",
"524 231 OFFCURVE",
"519 223 OFFCURVE",
"514 214 CURVE SMOOTH",
"509 205 OFFCURVE",
"504 197 OFFCURVE",
"501 188 CURVE",
"481 145 OFFCURVE",
"459 97 OFFCURVE",
"428 60 CURVE SMOOTH",
"401 28 OFFCURVE",
"381 2 OFFCURVE",
"345 -21 CURVE SMOOTH",
"334 -28 OFFCURVE",
"316 -23 OFFCURVE",
"305 -16 CURVE",
"265 13 OFFCURVE",
"269 56 OFFCURVE",
"272 91 CURVE",
"273 126 OFFCURVE",
"277 159 OFFCURVE",
"285 194 CURVE",
"287 199 OFFCURVE",
"290 205 OFFCURVE",
"293 211 CURVE",
"298 220 OFFCURVE",
"303 228 OFFCURVE",
"310 236 CURVE",
"311 237 OFFCURVE",
"312 239 OFFCURVE",
"313 241 CURVE SMOOTH",
"314 243 OFFCURVE",
"315 245 OFFCURVE",
"316 246 CURVE",
"334 276 LINE",
"340 285 OFFCURVE",
"346 295 OFFCURVE",
"352 305 CURVE SMOOTH",
"360 319 LINE",
"362 324 OFFCURVE",
"364 328 OFFCURVE",
"367 333 CURVE",
"369 338 OFFCURVE",
"371 342 OFFCURVE",
"374 346 CURVE SMOOTH",
"377 350 OFFCURVE",
"379 355 OFFCURVE",
"382 360 CURVE",
"398 392 OFFCURVE",
"414 426 OFFCURVE",
"425 461 CURVE SMOOTH",
"437 501 OFFCURVE",
"448 541 OFFCURVE",
"449 584 CURVE SMOOTH",
"449 587 OFFCURVE",
"449 591 OFFCURVE",
"448 594 CURVE SMOOTH",
"447 597 OFFCURVE",
"447 601 OFFCURVE",
"447 604 CURVE",
"450 637 OFFCURVE",
"433 664 OFFCURVE",
"412 687 CURVE",
"407 692 OFFCURVE",
"402 697 OFFCURVE",
"396 702 CURVE",
"390 706 OFFCURVE",
"384 710 OFFCURVE",
"378 715 CURVE",
"377 716 OFFCURVE",
"375 717 OFFCURVE",
"373 717 CURVE SMOOTH",
"370 717 OFFCURVE",
"368 717 OFFCURVE",
"365 718 CURVE",
"351 718 LINE SMOOTH",
"332 718 OFFCURVE",
"315 713 OFFCURVE",
"302 698 CURVE SMOOTH",
"293 687 OFFCURVE",
"286 674 OFFCURVE",
"281 659 CURVE",
"276 646 OFFCURVE",
"272 632 OFFCURVE",
"267 619 CURVE SMOOTH",
"262 605 OFFCURVE",
"258 591 OFFCURVE",
"253 578 CURVE",
"246 557 OFFCURVE",
"240 535 OFFCURVE",
"236 512 CURVE SMOOTH",
"232 489 OFFCURVE",
"228 467 OFFCURVE",
"223 446 CURVE",
"220 437 LINE",
"217 436 OFFCURVE",
"214 436 OFFCURVE",
"211 436 CURVE SMOOTH",
"203 436 OFFCURVE",
"195 436 OFFCURVE",
"187 435 CURVE",
"171 434 OFFCURVE",
"158 429 OFFCURVE",
"147 422 CURVE SMOOTH",
"136 415 OFFCURVE",
"124 412 OFFCURVE",
"112 409 CURVE",
"105 408 OFFCURVE",
"99 405 OFFCURVE",
"93 402 CURVE SMOOTH",
"77 394 OFFCURVE",
"62 382 OFFCURVE",
"50 370 CURVE",
"7 330 OFFCURVE",
"-18 272 OFFCURVE",
"-25 215 CURVE SMOOTH",
"-30 172 OFFCURVE",
"-25 131 OFFCURVE",
"-2 95 CURVE",
"7 82 OFFCURVE",
"20 70 OFFCURVE",
"32 59 CURVE SMOOTH",
"49 44 OFFCURVE",
"76 35 OFFCURVE",
"101 33 CURVE SMOOTH",
"125 31 OFFCURVE",
"149 37 OFFCURVE",
"165 60 CURVE",
"167 65 OFFCURVE",
"170 69 OFFCURVE",
"174 72 CURVE",
"176 74 LINE SMOOTH",
"177 75 OFFCURVE",
"178 76 OFFCURVE",
"181 77 CURVE",
"187 81 LINE",
"188 74 OFFCURVE",
"189 70 OFFCURVE",
"189 65 CURVE",
"190 55 OFFCURVE",
"192 45 OFFCURVE",
"193 35 CURVE SMOOTH",
"194 25 OFFCURVE",
"196 15 OFFCURVE",
"200 5 CURVE SMOOTH",
"213 -30 OFFCURVE",
"238 -51 OFFCURVE",
"275 -57 CURVE",
"278 -58 OFFCURVE",
"280 -58 OFFCURVE",
"283 -58 CURVE",
"291 -61 LINE",
"304 -64 OFFCURVE",
"317 -64 OFFCURVE",
"328 -57 CURVE SMOOTH",
"346 -46 OFFCURVE",
"362 -36 OFFCURVE",
"377 -26 CURVE",
"424 9 OFFCURVE",
"455 57 OFFCURVE",
"482 108 CURVE SMOOTH",
"509 158 LINE SMOOTH",
"518 175 OFFCURVE",
"526 192 OFFCURVE",
"534 209 CURVE",
"539 218 OFFCURVE",
"542 227 OFFCURVE",
"544 235 CURVE SMOOTH",
"546 242 OFFCURVE",
"550 251 OFFCURVE",
"555 260 CURVE SMOOTH",
"558 265 OFFCURVE",
"561 271 OFFCURVE",
"564 277 CURVE SMOOTH",
"567 283 OFFCURVE",
"570 289 OFFCURVE",
"573 294 CURVE",
"574 295 OFFCURVE",
"574 297 OFFCURVE",
"573 299 CURVE",
"573 301 OFFCURVE",
"573 303 OFFCURVE",
"574 305 CURVE",
"574 306 OFFCURVE",
"574 309 OFFCURVE",
"573 312 CURVE"
);
},
{
closed = 1;
nodes = (
"302 299 LINE SMOOTH",
"299 299 OFFCURVE",
"297 301 OFFCURVE",
"296 305 CURVE SMOOTH",
"294 313 OFFCURVE",
"295 325 OFFCURVE",
"297 337 CURVE SMOOTH",
"298 343 OFFCURVE",
"298 348 OFFCURVE",
"299 353 CURVE",
"300 364 OFFCURVE",
"302 373 OFFCURVE",
"305 382 CURVE",
"306 389 OFFCURVE",
"308 396 OFFCURVE",
"309 403 CURVE",
"312 416 OFFCURVE",
"312 419 OFFCURVE",
"316 443 CURVE",
"317 454 OFFCURVE",
"319 468 OFFCURVE",
"322 485 CURVE",
"326 518 OFFCURVE",
"333 561 OFFCURVE",
"338 595 CURVE SMOOTH",
"345 638 LINE",
"346 649 OFFCURVE",
"347 656 OFFCURVE",
"348 657 CURVE",
"349 666 OFFCURVE",
"350 672 OFFCURVE",
"353 677 CURVE",
"357 685 OFFCURVE",
"362 687 OFFCURVE",
"366 687 CURVE SMOOTH",
"368 687 OFFCURVE",
"369 687 OFFCURVE",
"370 688 CURVE",
"378 688 OFFCURVE",
"381 681 OFFCURVE",
"384 676 CURVE SMOOTH",
"389 667 OFFCURVE",
"393 656 OFFCURVE",
"396 644 CURVE SMOOTH",
"397 640 OFFCURVE",
"399 636 OFFCURVE",
"400 632 CURVE SMOOTH",
"403 620 LINE",
"408 572 OFFCURVE",
"402 526 OFFCURVE",
"387 481 CURVE",
"378 450 LINE SMOOTH",
"372 429 OFFCURVE",
"361 405 OFFCURVE",
"349 381 CURVE SMOOTH",
"331 344 LINE",
"328 337 OFFCURVE",
"324 331 OFFCURVE",
"321 325 CURVE",
"317 318 OFFCURVE",
"313 312 OFFCURVE",
"310 305 CURVE",
"308 302 LINE",
"307 301 OFFCURVE",
"307 299 OFFCURVE",
"306 298 CURVE",
"305 298 OFFCURVE",
"304 298 OFFCURVE",
"304 299 CURVE"
);
},
{
closed = 1;
nodes = (
"99 111 OFFCURVE",
"97 113 OFFCURVE",
"95 115 CURVE SMOOTH",
"93 117 OFFCURVE",
"91 119 OFFCURVE",
"88 121 CURVE",
"69 138 OFFCURVE",
"61 160 OFFCURVE",
"60 184 CURVE SMOOTH",
"59 207 OFFCURVE",
"63 230 OFFCURVE",
"67 254 CURVE SMOOTH",
"78 311 OFFCURVE",
"123 357 OFFCURVE",
"172 390 CURVE",
"177 393 OFFCURVE",
"183 397 OFFCURVE",
"188 401 CURVE",
"203 411 LINE",
"204 412 OFFCURVE",
"206 413 OFFCURVE",
"208 413 CURVE SMOOTH",
"210 413 OFFCURVE",
"213 413 OFFCURVE",
"216 414 CURVE",
"213 395 LINE SMOOTH",
"212 389 OFFCURVE",
"210 383 OFFCURVE",
"209 377 CURVE SMOOTH",
"202 341 OFFCURVE",
"199 305 OFFCURVE",
"196 268 CURVE SMOOTH",
"195 257 OFFCURVE",
"195 245 OFFCURVE",
"194 234 CURVE SMOOTH",
"191 199 LINE SMOOTH",
"190 183 OFFCURVE",
"189 167 OFFCURVE",
"189 151 CURVE SMOOTH",
"189 145 OFFCURVE",
"187 140 OFFCURVE",
"182 136 CURVE",
"171 128 OFFCURVE",
"163 120 OFFCURVE",
"152 111 CURVE SMOOTH",
"141 102 OFFCURVE",
"111 103 OFFCURVE",
"102 110 CURVE"
);
}
);
width = 556;
}
);
note = d;
unicode = 0064;
},
{
glyphname = e;
layers = (
{
hints = (
{
horizontal = 1;
place = "{32.38, 38.62}";
type = Stem;
},
{
horizontal = 1;
place = "{454, 21}";
type = Stem;
},
{
place = "{-35, 96}";
type = Stem;
},
{
place = "{179, 22}";
type = Stem;
}
);
layerId = "54D2F088-3B12-48DB-A05E-ED165257FC93";
paths = (
{
closed = 1;
nodes = (
"297 302 OFFCURVE",
"294 299 OFFCURVE",
"291 294 CURVE",
"280 279 OFFCURVE",
"272 266 OFFCURVE",
"265 250 CURVE",
"264 248 OFFCURVE",
"263 245 OFFCURVE",
"260 241 CURVE SMOOTH",
"253 231 OFFCURVE",
"247 221 OFFCURVE",
"241 210 CURVE SMOOTH",
"235 199 OFFCURVE",
"228 189 OFFCURVE",
"220 180 CURVE",
"219 179 OFFCURVE",
"218 177 OFFCURVE",
"217 176 CURVE",
"213 170 LINE",
"208 161 OFFCURVE",
"203 152 OFFCURVE",
"198 145 CURVE SMOOTH",
"186 129 OFFCURVE",
"176 116 OFFCURVE",
"167 108 CURVE",
"156 100 OFFCURVE",
"145 92 OFFCURVE",
"133 84 CURVE SMOOTH",
"126 79 OFFCURVE",
"118 74 OFFCURVE",
"107 71 CURVE",
"101 70 OFFCURVE",
"97 70 OFFCURVE",
"94 72 CURVE",
"77 79 OFFCURVE",
"63 96 OFFCURVE",
"61 126 CURVE SMOOTH",
"59 156 OFFCURVE",
"63 188 OFFCURVE",
"68 220 CURVE SMOOTH",
"70 236 OFFCURVE",
"71 250 OFFCURVE",
"71 263 CURVE SMOOTH",
"71 267 OFFCURVE",
"72 271 OFFCURVE",
"73 276 CURVE",
"77 291 OFFCURVE",
"75 290 OFFCURVE",
"94 293 CURVE",
"99 294 OFFCURVE",
"105 296 OFFCURVE",
"111 298 CURVE SMOOTH",
"128 304 LINE SMOOTH",
"131 305 OFFCURVE",
"134 307 OFFCURVE",
"137 308 CURVE",
"139 309 OFFCURVE",
"141 311 OFFCURVE",
"144 312 CURVE",
"146 312 OFFCURVE",
"148 313 OFFCURVE",
"149 315 CURVE",
"153 320 OFFCURVE",
"159 323 OFFCURVE",
"164 326 CURVE",
"181 339 OFFCURVE",
"197 375 OFFCURVE",
"201 408 CURVE SMOOTH",
"204 441 OFFCURVE",
"194 471 OFFCURVE",
"162 472 CURVE SMOOTH",
"161 472 OFFCURVE",
"160 472 OFFCURVE",
"159 473 CURVE",
"156 473 LINE",
"149 474 OFFCURVE",
"144 475 OFFCURVE",
"139 475 CURVE",
"128 478 OFFCURVE",
"118 475 OFFCURVE",
"107 472 CURVE",
"88 469 OFFCURVE",
"71 462 OFFCURVE",
"54 453 CURVE",
"51 452 OFFCURVE",
"49 450 OFFCURVE",
"47 448 CURVE SMOOTH",
"36 437 OFFCURVE",
"26 427 OFFCURVE",
"22 412 CURVE",
"22 411 LINE",
"21 410 OFFCURVE",
"21 410 OFFCURVE",
"21 409 CURVE",
"18 402 OFFCURVE",
"16 396 OFFCURVE",
"9 389 CURVE",
"8 386 OFFCURVE",
"6 384 OFFCURVE",
"5 381 CURVE",
"-3 361 OFFCURVE",
"-11 342 OFFCURVE",
"-16 321 CURVE",
"-19 304 OFFCURVE",
"-22 288 OFFCURVE",
"-26 272 CURVE SMOOTH",
"-27 268 OFFCURVE",
"-28 265 OFFCURVE",
"-28 261 CURVE",
"-29 253 OFFCURVE",
"-29 245 OFFCURVE",
"-30 237 CURVE SMOOTH",
"-33 212 LINE",
"-34 199 OFFCURVE",
"-35 186 OFFCURVE",
"-35 174 CURVE",
"-36 149 OFFCURVE",
"-39 109 OFFCURVE",
"-15 73 CURVE",
"-6 61 OFFCURVE",
"5 53 OFFCURVE",
"17 45 CURVE",
"20 44 OFFCURVE",
"21 43 OFFCURVE",
"21 43 CURVE",
"43 37 LINE",
"58 32 OFFCURVE",
"76 30 OFFCURVE",
"95 36 CURVE SMOOTH",
"114 42 OFFCURVE",
"130 52 OFFCURVE",
"146 65 CURVE",
"170 83 LINE SMOOTH",
"180 90 OFFCURVE",
"189 99 OFFCURVE",
"197 108 CURVE SMOOTH",
"212 126 OFFCURVE",
"224 146 OFFCURVE",
"236 166 CURVE SMOOTH",
"242 176 OFFCURVE",
"249 186 OFFCURVE",
"256 195 CURVE SMOOTH",
"259 199 OFFCURVE",
"262 203 OFFCURVE",
"264 208 CURVE",
"265 213 OFFCURVE",
"268 217 OFFCURVE",
"271 220 CURVE",
"272 225 OFFCURVE",
"275 230 OFFCURVE",
"278 235 CURVE",
"281 239 OFFCURVE",
"283 244 OFFCURVE",
"283 250 CURVE SMOOTH",
"283 251 OFFCURVE",
"284 253 OFFCURVE",
"285 254 CURVE",
"290 267 OFFCURVE",
"297 278 OFFCURVE",
"304 287 CURVE",
"305 288 OFFCURVE",
"307 291 OFFCURVE",
"308 295 CURVE",
"305 298 OFFCURVE",
"303 301 OFFCURVE",
"302 302 CURVE"
);
},
{
closed = 1;
nodes = (
"179 416 OFFCURVE",
"179 414 OFFCURVE",
"179 412 CURVE",
"178 410 OFFCURVE",
"178 408 OFFCURVE",
"177 407 CURVE",
"175 402 OFFCURVE",
"174 397 OFFCURVE",
"175 393 CURVE",
"176 391 OFFCURVE",
"176 388 OFFCURVE",
"174 385 CURVE",
"166 372 OFFCURVE",
"159 360 OFFCURVE",
"150 348 CURVE",
"139 332 OFFCURVE",
"114 319 OFFCURVE",
"79 315 CURVE",
"76 322 OFFCURVE",
"78 325 OFFCURVE",
"81 332 CURVE",
"84 340 OFFCURVE",
"85 348 OFFCURVE",
"86 357 CURVE",
"89 374 LINE SMOOTH",
"90 380 OFFCURVE",
"91 386 OFFCURVE",
"94 391 CURVE",
"96 394 OFFCURVE",
"97 397 OFFCURVE",
"97 401 CURVE",
"98 408 OFFCURVE",
"99 414 OFFCURVE",
"102 420 CURVE",
"108 436 LINE",
"111 446 OFFCURVE",
"119 452 OFFCURVE",
"131 454 CURVE SMOOTH",
"146 457 OFFCURVE",
"156 451 OFFCURVE",
"167 440 CURVE",
"169 439 OFFCURVE",
"170 437 OFFCURVE",
"170 435 CURVE",
"172 428 OFFCURVE",
"175 422 OFFCURVE",
"180 417 CURVE"
);
}
);
width = 288;
}
);
note = e;
unicode = 0065;
},
{
glyphname = f;
layers = (
{
hints = (
{
horizontal = 1;
place = "{-191, 30}";
type = Stem;
},
{
horizontal = 1;
place = "{808, 32}";
type = Stem;
},
{
place = "{-46, 92}";
type = Stem;
},
{
place = "{112, 29}";
type = Stem;
},
{
place = "{323.37, 42.63}";
type = Stem;
},
{
place = "{-29, 68}";
type = Stem;
},
{
place = "{91, 30}";
type = Stem;
}
);
layerId = "54D2F088-3B12-48DB-A05E-ED165257FC93";
paths = (
{
closed = 1;
nodes = (
"319 832 OFFCURVE",
"300 838 OFFCURVE",
"281 840 CURVE SMOOTH",
"261 842 OFFCURVE",
"241 839 OFFCURVE",
"222 838 CURVE SMOOTH",
"195 837 OFFCURVE",
"174 829 OFFCURVE",
"155 810 CURVE SMOOTH",
"148 803 OFFCURVE",
"142 796 OFFCURVE",
"135 790 CURVE SMOOTH",
"128 784 OFFCURVE",
"122 777 OFFCURVE",
"117 769 CURVE SMOOTH",
"86 718 OFFCURVE",
"58 666 OFFCURVE",
"39 609 CURVE SMOOTH",
"35 596 OFFCURVE",
"31 583 OFFCURVE",
"26 571 CURVE SMOOTH",
"21 558 OFFCURVE",
"17 545 OFFCURVE",
"13 532 CURVE SMOOTH",
"9 519 OFFCURVE",
"5 505 OFFCURVE",
"-2 492 CURVE SMOOTH",
"-7 482 OFFCURVE",
"-10 471 OFFCURVE",
"-11 460 CURVE SMOOTH",
"-12 452 OFFCURVE",
"-14 445 OFFCURVE",
"-15 438 CURVE",
"-22 405 OFFCURVE",
"-28 374 OFFCURVE",
"-33 344 CURVE",
"-36 319 LINE SMOOTH",
"-38 302 OFFCURVE",
"-41 280 OFFCURVE",
"-46 259 CURVE",
"-47 256 OFFCURVE",
"-47 250 OFFCURVE",
"-47 243 CURVE SMOOTH",
"-47 234 OFFCURVE",
"-47 224 OFFCURVE",
"-46 215 CURVE SMOOTH",
"-45 206 OFFCURVE",
"-46 196 OFFCURVE",
"-47 187 CURVE",
"-47 176 LINE",
"-46 168 OFFCURVE",
"-45 160 OFFCURVE",
"-45 152 CURVE SMOOTH",
"-45 142 OFFCURVE",
"-44 132 OFFCURVE",
"-42 122 CURVE",
"-42 120 OFFCURVE",
"-42 118 OFFCURVE",
"-41 116 CURVE",
"-41 110 LINE",
"-40 101 OFFCURVE",
"-38 92 OFFCURVE",
"-37 83 CURVE SMOOTH",
"-33 55 LINE",
"-30 42 OFFCURVE",
"-29 28 OFFCURVE",
"-29 13 CURVE SMOOTH",
"-29 2 LINE",
"-26 -7 OFFCURVE",
"-24 -17 OFFCURVE",
"-23 -26 CURVE SMOOTH",
"-22 -36 OFFCURVE",
"-19 -46 OFFCURVE",
"-16 -55 CURVE",
"-13 -68 LINE",
"-13 -76 OFFCURVE",
"-11 -84 OFFCURVE",
"-7 -92 CURVE",
"-6 -93 OFFCURVE",
"-4 -96 OFFCURVE",
"-3 -100 CURVE",
"4 -117 OFFCURVE",
"13 -134 OFFCURVE",
"22 -150 CURVE SMOOTH",
"26 -157 OFFCURVE",
"29 -162 OFFCURVE",
"33 -167 CURVE SMOOTH",
"37 -172 OFFCURVE",
"41 -178 OFFCURVE",
"46 -183 CURVE",
"57 -190 OFFCURVE",
"66 -195 OFFCURVE",
"79 -191 CURVE",
"84 -190 OFFCURVE",
"88 -188 OFFCURVE",
"92 -187 CURVE SMOOTH",
"103 -184 OFFCURVE",
"109 -178 OFFCURVE",
"116 -170 CURVE",
"131 -147 OFFCURVE",
"140 -122 OFFCURVE",
"141 -95 CURVE",
"141 -82 OFFCURVE",
"139 -71 OFFCURVE",
"136 -61 CURVE",
"124 -29 LINE SMOOTH",
"122 -24 OFFCURVE",
"121 -18 OFFCURVE",
"121 -13 CURVE",
"118 2 LINE",
"113 18 OFFCURVE",
"101 35 OFFCURVE",
"92 48 CURVE",
"86 56 LINE",
"83 59 OFFCURVE",
"81 62 OFFCURVE",
"79 65 CURVE",
"76 71 LINE",
"74 74 OFFCURVE",
"75 77 OFFCURVE",
"79 79 CURVE",
"89 85 OFFCURVE",
"99 90 OFFCURVE",
"108 95 CURVE",
"119 100 OFFCURVE",
"129 107 OFFCURVE",
"138 116 CURVE SMOOTH",
"142 120 OFFCURVE",
"146 124 OFFCURVE",
"151 127 CURVE",
"160 133 OFFCURVE",
"171 139 OFFCURVE",
"179 147 CURVE",
"183 150 OFFCURVE",
"188 154 OFFCURVE",
"193 157 CURVE",
"194 158 OFFCURVE",
"195 160 OFFCURVE",
"195 161 CURVE",
"202 169 OFFCURVE",
"209 177 OFFCURVE",
"218 184 CURVE SMOOTH",
"222 187 OFFCURVE",
"226 190 OFFCURVE",
"230 194 CURVE SMOOTH",
"237 201 OFFCURVE",
"248 209 OFFCURVE",
"249 220 CURVE",
"250 223 OFFCURVE",
"257 230 OFFCURVE",
"262 235 CURVE SMOOTH",
"271 244 LINE",
"283 259 LINE SMOOTH",
"287 264 OFFCURVE",
"291 269 OFFCURVE",
"290 276 CURVE",
"290 277 OFFCURVE",
"290 277 OFFCURVE",
"291 278 CURVE",
"291 280 LINE",
"292 283 OFFCURVE",
"294 286 OFFCURVE",
"296 288 CURVE",
"299 292 OFFCURVE",
"305 299 OFFCURVE",
"306 304 CURVE",
"301 303 OFFCURVE",
"297 303 OFFCURVE",
"293 303 CURVE",
"289 302 OFFCURVE",
"285 300 OFFCURVE",
"282 297 CURVE",
"285 292 OFFCURVE",
"285 288 OFFCURVE",
"282 285 CURVE",
"275 277 OFFCURVE",
"269 269 OFFCURVE",
"263 260 CURVE",
"256 251 OFFCURVE",
"250 243 OFFCURVE",
"243 235 CURVE",
"240 230 OFFCURVE",
"236 226 OFFCURVE",
"233 222 CURVE",
"229 218 OFFCURVE",
"225 214 OFFCURVE",
"222 209 CURVE",
"220 206 OFFCURVE",
"218 204 OFFCURVE",
"216 202 CURVE SMOOTH",
"210 196 LINE",
"201 185 OFFCURVE",
"193 177 OFFCURVE",
"184 168 CURVE SMOOTH",
"177 161 OFFCURVE",
"171 155 OFFCURVE",
"163 151 CURVE",
"148 140 OFFCURVE",
"134 130 OFFCURVE",
"121 119 CURVE SMOOTH",
"108 108 OFFCURVE",
"95 100 OFFCURVE",
"80 95 CURVE",
"69 92 OFFCURVE",
"59 87 OFFCURVE",
"50 80 CURVE",
"45 77 OFFCURVE",
"41 75 OFFCURVE",
"34 71 CURVE",
"32 76 LINE",
"35 83 OFFCURVE",
"36 89 OFFCURVE",
"33 96 CURVE",
"32 97 OFFCURVE",
"32 99 OFFCURVE",
"33 100 CURVE SMOOTH",
"34 101 OFFCURVE",
"34 102 OFFCURVE",
"34 103 CURVE",
"37 131 OFFCURVE",
"40 159 OFFCURVE",
"41 188 CURVE",
"42 199 OFFCURVE",
"44 210 OFFCURVE",
"46 222 CURVE",
"47 233 OFFCURVE",
"47 244 OFFCURVE",
"44 255 CURVE",
"43 260 OFFCURVE",
"44 264 OFFCURVE",
"46 267 CURVE SMOOTH",
"48 270 LINE",
"49 270 OFFCURVE",
"49 271 OFFCURVE",
"49 272 CURVE",
"52 278 OFFCURVE",
"57 282 OFFCURVE",
"64 283 CURVE",
"69 284 OFFCURVE",
"75 286 OFFCURVE",
"81 289 CURVE",
"86 292 OFFCURVE",
"92 294 OFFCURVE",
"97 296 CURVE",
"98 296 OFFCURVE",
"100 297 OFFCURVE",
"101 298 CURVE",
"107 302 LINE",
"109 303 OFFCURVE",
"111 304 OFFCURVE",
"112 305 CURVE",
"129 313 OFFCURVE",
"141 323 OFFCURVE",
"153 333 CURVE SMOOTH",
"159 338 OFFCURVE",
"165 343 OFFCURVE",
"172 348 CURVE",
"176 352 OFFCURVE",
"177 353 OFFCURVE",
"182 358 CURVE SMOOTH",
"194 370 LINE",
"202 377 OFFCURVE",
"211 386 OFFCURVE",
"220 395 CURVE",
"224 400 OFFCURVE",
"229 404 OFFCURVE",
"234 409 CURVE",
"236 412 OFFCURVE",
"238 414 OFFCURVE",
"240 416 CURVE SMOOTH",
"242 418 OFFCURVE",
"244 420 OFFCURVE",
"245 423 CURVE",
"248 428 OFFCURVE",
"251 432 OFFCURVE",
"253 437 CURVE SMOOTH",
"255 442 OFFCURVE",
"258 446 OFFCURVE",
"261 450 CURVE",
"263 452 OFFCURVE",
"265 454 OFFCURVE",
"267 457 CURVE",
"268 460 OFFCURVE",
"270 462 OFFCURVE",
"272 464 CURVE",
"282 477 OFFCURVE",
"291 492 OFFCURVE",
"300 509 CURVE",
"303 514 OFFCURVE",
"305 519 OFFCURVE",
"307 524 CURVE SMOOTH",
"309 529 OFFCURVE",
"311 533 OFFCURVE",
"314 538 CURVE SMOOTH",
"321 550 OFFCURVE",
"325 561 OFFCURVE",
"328 571 CURVE SMOOTH",
"329 574 OFFCURVE",
"330 576 OFFCURVE",
"330 578 CURVE",
"329 581 OFFCURVE",
"329 583 OFFCURVE",
"330 586 CURVE",
"331 588 OFFCURVE",
"331 590 OFFCURVE",
"332 593 CURVE",
"336 602 OFFCURVE",
"339 611 OFFCURVE",
"341 619 CURVE",
"342 622 OFFCURVE",
"344 624 OFFCURVE",
"344 627 CURVE",
"345 636 OFFCURVE",
"347 645 OFFCURVE",
"350 653 CURVE",
"353 662 LINE",
"355 671 OFFCURVE",
"357 681 OFFCURVE",
"360 691 CURVE SMOOTH",
"363 700 OFFCURVE",
"365 710 OFFCURVE",
"366 720 CURVE SMOOTH",
"370 753 OFFCURVE",
"362 796 OFFCURVE",
"335 819 CURVE SMOOTH"
);
},
{
closed = 1;
nodes = (
"291 559 OFFCURVE",
"279 526 OFFCURVE",
"260 497 CURVE",
"255 490 OFFCURVE",
"251 482 OFFCURVE",
"247 474 CURVE",
"242 466 OFFCURVE",
"237 458 OFFCURVE",
"230 451 CURVE",
"227 446 OFFCURVE",
"223 441 OFFCURVE",
"220 435 CURVE SMOOTH",
"216 427 OFFCURVE",
"211 420 OFFCURVE",
"206 415 CURVE SMOOTH",
"172 381 OFFCURVE",
"136 351 OFFCURVE",
"97 324 CURVE",
"87 316 OFFCURVE",
"76 310 OFFCURVE",
"65 305 CURVE",
"64 304 OFFCURVE",
"62 303 OFFCURVE",
"59 303 CURVE",
"59 310 LINE",
"58 312 OFFCURVE",
"58 314 OFFCURVE",
"58 316 CURVE SMOOTH",
"58 320 OFFCURVE",
"60 323 OFFCURVE",
"61 326 CURVE",
"64 331 OFFCURVE",
"65 336 OFFCURVE",
"64 341 CURVE",
"63 344 OFFCURVE",
"64 349 OFFCURVE",
"67 354 CURVE",
"78 384 OFFCURVE",
"87 414 OFFCURVE",
"93 445 CURVE SMOOTH",
"98 476 OFFCURVE",
"106 506 OFFCURVE",
"116 536 CURVE SMOOTH",
"120 547 OFFCURVE",
"124 557 OFFCURVE",
"129 567 CURVE",
"134 576 OFFCURVE",
"137 586 OFFCURVE",
"140 597 CURVE SMOOTH",
"143 608 OFFCURVE",
"147 619 OFFCURVE",
"150 630 CURVE SMOOTH",
"153 641 OFFCURVE",
"157 652 OFFCURVE",
"162 663 CURVE SMOOTH",
"168 676 OFFCURVE",
"174 690 OFFCURVE",
"180 705 CURVE",
"185 720 OFFCURVE",
"192 733 OFFCURVE",
"200 745 CURVE",
"203 753 LINE",
"204 760 OFFCURVE",
"208 766 OFFCURVE",
"213 773 CURVE",
"216 776 OFFCURVE",
"218 780 OFFCURVE",
"220 783 CURVE SMOOTH",
"227 794 OFFCURVE",
"239 815 OFFCURVE",
"254 811 CURVE",
"259 809 OFFCURVE",
"265 808 OFFCURVE",
"271 808 CURVE",
"277 807 OFFCURVE",
"282 805 OFFCURVE",
"285 802 CURVE",
"305 786 OFFCURVE",
"316 758 OFFCURVE",
"320 733 CURVE SMOOTH",
"329 684 OFFCURVE",
"319 638 OFFCURVE",
"302 591 CURVE SMOOTH"
);
},
{
closed = 1;
nodes = (
"355 758 LINE",
"356 758 LINE",
"357 758 LINE",
"357 757 OFFCURVE",
"357 757 OFFCURVE",
"358 757 CURVE",
"357 757 OFFCURVE",
"357 757 OFFCURVE",
"357 756 CURVE"
);
},
{
closed = 1;
nodes = (
"42 40 OFFCURVE",
"46 37 OFFCURVE",
"50 34 CURVE",
"53 31 OFFCURVE",
"56 28 OFFCURVE",
"57 23 CURVE",
"62 12 OFFCURVE",
"66 4 OFFCURVE",
"73 -4 CURVE",
"74 -5 OFFCURVE",
"75 -7 OFFCURVE",
"76 -9 CURVE SMOOTH",
"77 -11 OFFCURVE",
"78 -13 OFFCURVE",
"79 -14 CURVE",
"82 -20 LINE",
"83 -23 OFFCURVE",
"84 -25 OFFCURVE",
"85 -27 CURVE",
"88 -34 LINE",
"89 -38 OFFCURVE",
"91 -43 OFFCURVE",
"91 -46 CURVE SMOOTH",
"91 -48 OFFCURVE",
"92 -50 OFFCURVE",
"93 -52 CURVE",
"97 -61 OFFCURVE",
"100 -71 OFFCURVE",
"103 -81 CURVE SMOOTH",
"106 -92 OFFCURVE",
"108 -102 OFFCURVE",
"111 -112 CURVE",
"112 -116 OFFCURVE",
"113 -127 OFFCURVE",
"112 -137 CURVE SMOOTH",
"111 -147 OFFCURVE",
"109 -164 OFFCURVE",
"96 -161 CURVE",
"94 -161 OFFCURVE",
"93 -161 OFFCURVE",
"93 -160 CURVE",
"85 -155 OFFCURVE",
"78 -150 OFFCURVE",
"75 -139 CURVE",
"74 -137 OFFCURVE",
"74 -135 OFFCURVE",
"73 -133 CURVE",
"72 -132 OFFCURVE",
"72 -130 OFFCURVE",
"71 -128 CURVE",
"71 -122 OFFCURVE",
"70 -117 OFFCURVE",
"67 -114 CURVE",
"65 -111 OFFCURVE",
"64 -108 OFFCURVE",
"64 -105 CURVE SMOOTH",
"64 -102 OFFCURVE",
"64 -98 OFFCURVE",
"63 -95 CURVE",
"63 -87 LINE SMOOTH",
"63 -85 OFFCURVE",
"62 -82 OFFCURVE",
"61 -79 CURVE SMOOTH",
"59 -73 OFFCURVE",
"57 -67 OFFCURVE",
"56 -61 CURVE",
"50 -43 LINE SMOOTH",
"47 -34 OFFCURVE",
"45 -25 OFFCURVE",
"44 -16 CURVE SMOOTH",
"43 -7 OFFCURVE",
"41 1 OFFCURVE",
"39 10 CURVE",
"36 21 OFFCURVE",
"38 32 OFFCURVE",
"39 43 CURVE"
);
}
);
width = 291;
}
);
note = f;
unicode = 0066;
},
{
glyphname = g;
layers = (
{
hints = (
{
horizontal = 1;
place = "{-250, 17.5}";
type = Stem;
},
{
horizontal = 1;
place = "{176, 27.93}";
type = Stem;
},
{
horizontal = 1;
place = "{475, 27}";
type = Stem;
},
{
place = "{-38, 41}";
type = Stem;
},
{
place = "{155, 71}";
type = Stem;
},
{
place = "{156, 74}";
type = Stem;
},
{
place = "{-31, 73}";
type = Stem;
},
{
place = "{177, 37}";
type = Stem;
}
);
layerId = "54D2F088-3B12-48DB-A05E-ED165257FC93";
paths = (
{
closed = 1;
nodes = (
"177 -204 LINE SMOOTH",
"178 -203 OFFCURVE",
"178 -201 OFFCURVE",
"178 -200 CURVE SMOOTH",
"178 -197 OFFCURVE",
"178 -194 OFFCURVE",
"181 -189 CURVE",
"184 -186 OFFCURVE",
"187 -182 OFFCURVE",
"189 -178 CURVE SMOOTH",
"191 -174 OFFCURVE",
"193 -170 OFFCURVE",
"196 -166 CURVE SMOOTH",
"201 -159 OFFCURVE",
"203 -153 OFFCURVE",
"204 -146 CURVE",
"205 -144 OFFCURVE",
"205 -142 OFFCURVE",
"206 -139 CURVE",
"209 -133 LINE",
"214 -125 OFFCURVE",
"217 -116 OFFCURVE",
"219 -105 CURVE",
"220 -102 OFFCURVE",
"220 -98 OFFCURVE",
"221 -94 CURVE",
"222 -91 OFFCURVE",
"222 -87 OFFCURVE",
"223 -84 CURVE",
"224 -79 OFFCURVE",
"225 -73 OFFCURVE",
"225 -67 CURVE SMOOTH",
"225 -50 LINE",
"226 -47 OFFCURVE",
"226 -43 OFFCURVE",
"226 -39 CURVE SMOOTH",
"226 -29 LINE SMOOTH",
"226 -26 OFFCURVE",
"226 -23 OFFCURVE",
"227 -20 CURVE",
"227 -17 OFFCURVE",
"227 -14 OFFCURVE",
"226 -11 CURVE",
"223 8 OFFCURVE",
"225 27 OFFCURVE",
"228 46 CURVE",
"229 61 OFFCURVE",
"230 76 OFFCURVE",
"230 91 CURVE SMOOTH",
"230 105 LINE SMOOTH",
"230 109 OFFCURVE",
"230 113 OFFCURVE",
"229 118 CURVE",
"226 130 OFFCURVE",
"228 142 OFFCURVE",
"237 147 CURVE",
"243 150 LINE",
"247 150 OFFCURVE",
"253 155 OFFCURVE",
"256 158 CURVE",
"269 178 OFFCURVE",
"284 195 OFFCURVE",
"302 208 CURVE",
"303 208 OFFCURVE",
"305 209 OFFCURVE",
"306 210 CURVE",
"314 219 LINE",
"317 221 OFFCURVE",
"319 224 OFFCURVE",
"322 227 CURVE SMOOTH",
"326 231 OFFCURVE",
"328 236 OFFCURVE",
"331 241 CURVE",
"332 244 OFFCURVE",
"334 246 OFFCURVE",
"336 249 CURVE SMOOTH",
"338 252 OFFCURVE",
"340 255 OFFCURVE",
"341 258 CURVE SMOOTH",
"342 261 OFFCURVE",
"344 264 OFFCURVE",
"346 266 CURVE SMOOTH",
"348 268 OFFCURVE",
"350 270 OFFCURVE",
"353 273 CURVE",
"361 282 LINE",
"364 285 OFFCURVE",
"366 288 OFFCURVE",
"367 291 CURVE",
"366 296 OFFCURVE",
"364 298 OFFCURVE",
"361 299 CURVE",
"357 300 OFFCURVE",
"355 298 OFFCURVE",
"352 297 CURVE",
"351 296 OFFCURVE",
"349 295 OFFCURVE",
"348 294 CURVE",
"344 291 LINE",
"337 284 OFFCURVE",
"330 276 OFFCURVE",
"323 269 CURVE SMOOTH",
"302 247 LINE SMOOTH",
"280 225 OFFCURVE",
"258 204 OFFCURVE",
"235 183 CURVE",
"235 184 OFFCURVE",
"234 183 OFFCURVE",
"232 181 CURVE",
"231 182 OFFCURVE",
"231 183 OFFCURVE",
"231 184 CURVE",
"233 193 OFFCURVE",
"233 205 OFFCURVE",
"232 218 CURVE",
"231 223 OFFCURVE",
"231 228 OFFCURVE",
"232 233 CURVE",
"232 238 OFFCURVE",
"232 243 OFFCURVE",
"231 248 CURVE",
"231 256 LINE",
"230 258 OFFCURVE",
"230 260 OFFCURVE",
"230 262 CURVE SMOOTH",
"230 269 OFFCURVE",
"230 276 OFFCURVE",
"229 283 CURVE SMOOTH",
"228 289 OFFCURVE",
"228 295 OFFCURVE",
"227 302 CURVE",
"224 317 OFFCURVE",
"223 332 OFFCURVE",
"223 348 CURVE SMOOTH",
"223 361 OFFCURVE",
"222 372 OFFCURVE",
"219 382 CURVE SMOOTH",
"215 394 OFFCURVE",
"211 405 OFFCURVE",
"214 417 CURVE",
"214 430 OFFCURVE",
"199 437 OFFCURVE",
"186 433 CURVE",
"184 432 OFFCURVE",
"181 431 OFFCURVE",
"177 428 CURVE",
"176 425 OFFCURVE",
"176 423 OFFCURVE",
"177 421 CURVE",
"177 418 OFFCURVE",
"177 416 OFFCURVE",
"176 414 CURVE",
"173 402 OFFCURVE",
"170 389 OFFCURVE",
"166 377 CURVE SMOOTH",
"163 367 OFFCURVE",
"161 357 OFFCURVE",
"160 346 CURVE",
"157 325 OFFCURVE",
"154 303 OFFCURVE",
"141 284 CURVE",
"141 284 OFFCURVE",
"141 283 OFFCURVE",
"140 282 CURVE",
"137 277 OFFCURVE",
"134 272 OFFCURVE",
"131 267 CURVE SMOOTH",
"121 251 LINE",
"112 238 OFFCURVE",
"101 226 OFFCURVE",
"88 217 CURVE",
"75 205 OFFCURVE",
"56 201 OFFCURVE",
"44 206 CURVE",
"41 207 OFFCURVE",
"38 209 OFFCURVE",
"37 214 CURVE",
"37 217 OFFCURVE",
"37 220 OFFCURVE",
"36 223 CURVE",
"35 228 OFFCURVE",
"34 232 OFFCURVE",
"31 240 CURVE",
"30 241 OFFCURVE",
"31 243 OFFCURVE",
"32 244 CURVE SMOOTH",
"33 245 OFFCURVE",
"34 247 OFFCURVE",
"34 248 CURVE SMOOTH",
"34 249 OFFCURVE",
"34 251 OFFCURVE",
"35 252 CURVE",
"35 256 LINE",
"34 260 OFFCURVE",
"35 265 OFFCURVE",
"38 272 CURVE SMOOTH",
"41 279 OFFCURVE",
"42 284 OFFCURVE",
"42 287 CURVE SMOOTH",
"42 297 OFFCURVE",
"44 308 OFFCURVE",
"47 319 CURVE",
"48 320 OFFCURVE",
"48 322 OFFCURVE",
"48 323 CURVE SMOOTH",
"48 324 OFFCURVE",
"48 326 OFFCURVE",
"49 327 CURVE",
"49 334 OFFCURVE",
"51 340 OFFCURVE",
"54 347 CURVE",
"58 358 OFFCURVE",
"62 368 OFFCURVE",
"65 379 CURVE SMOOTH",
"67 386 OFFCURVE",
"70 392 OFFCURVE",
"73 397 CURVE",
"78 403 OFFCURVE",
"81 409 OFFCURVE",
"83 414 CURVE",
"85 421 OFFCURVE",
"88 426 OFFCURVE",
"93 429 CURVE",
"96 432 OFFCURVE",
"97 434 OFFCURVE",
"98 435 CURVE",
"101 442 OFFCURVE",
"105 447 OFFCURVE",
"110 451 CURVE",
"120 461 OFFCURVE",
"131 469 OFFCURVE",
"143 475 CURVE",
"152 478 OFFCURVE",
"159 479 OFFCURVE",
"166 476 CURVE",
"174 473 OFFCURVE",
"182 470 OFFCURVE",
"189 466 CURVE",
"193 463 OFFCURVE",
"198 464 OFFCURVE",
"203 467 CURVE SMOOTH",
"210 471 OFFCURVE",
"204 476 OFFCURVE",
"195 479 CURVE",
"194 480 OFFCURVE",
"192 480 OFFCURVE",
"190 481 CURVE",
"188 481 OFFCURVE",
"186 482 OFFCURVE",
"185 483 CURVE",
"168 491 OFFCURVE",
"150 497 OFFCURVE",
"133 501 CURVE SMOOTH",
"128 502 OFFCURVE",
"122 502 OFFCURVE",
"117 502 CURVE SMOOTH",
"112 502 OFFCURVE",
"106 502 OFFCURVE",
"101 503 CURVE",
"98 503 LINE",
"97 502 OFFCURVE",
"96 502 OFFCURVE",
"95 502 CURVE",
"92 501 OFFCURVE",
"89 501 OFFCURVE",
"87 500 CURVE",
"82 499 OFFCURVE",
"73 495 OFFCURVE",
"72 494 CURVE SMOOTH",
"69 491 OFFCURVE",
"67 489 OFFCURVE",
"64 488 CURVE SMOOTH",
"61 487 OFFCURVE",
"58 485 OFFCURVE",
"55 483 CURVE",
"50 479 OFFCURVE",
"45 474 OFFCURVE",
"40 469 CURVE",
"39 469 LINE",
"39 468 OFFCURVE",
"39 468 OFFCURVE",
"38 468 CURVE",
"33 465 OFFCURVE",
"28 460 OFFCURVE",
"23 453 CURVE",
"22 450 OFFCURVE",
"20 447 OFFCURVE",
"18 444 CURVE SMOOTH",
"12 435 LINE",
"-1 410 OFFCURVE",
"-15 386 OFFCURVE",
"-20 358 CURVE",
"-25 337 OFFCURVE",
"-28 318 OFFCURVE",
"-31 295 CURVE",
"-32 278 OFFCURVE",
"-32 261 OFFCURVE",
"-29 245 CURVE SMOOTH",
"-26 230 OFFCURVE",
"-18 216 OFFCURVE",
"-5 205 CURVE",
"7 193 LINE",
"14 188 OFFCURVE",
"21 183 OFFCURVE",
"29 180 CURVE",
"45 176 OFFCURVE",
"62 175 OFFCURVE",
"80 176 CURVE",
"82 176 OFFCURVE",
"84 177 OFFCURVE",
"87 178 CURVE SMOOTH",
"90 179 OFFCURVE",
"93 181 OFFCURVE",
"96 182 CURVE SMOOTH",
"105 185 LINE",
"118 190 OFFCURVE",
"130 197 OFFCURVE",
"139 206 CURVE",
"142 208 OFFCURVE",
"144 210 OFFCURVE",
"147 213 CURVE",
"155 220 LINE",
"155 220 OFFCURVE",
"156 221 OFFCURVE",
"159 222 CURVE",
"158 217 OFFCURVE",
"158 212 OFFCURVE",
"158 208 CURVE SMOOTH",
"158 203 OFFCURVE",
"158 199 OFFCURVE",
"157 194 CURVE",
"156 179 OFFCURVE",
"154 165 OFFCURVE",
"155 150 CURVE",
"156 145 OFFCURVE",
"156 140 OFFCURVE",
"156 135 CURVE",
"155 130 OFFCURVE",
"155 125 OFFCURVE",
"156 120 CURVE",
"156 115 OFFCURVE",
"154 111 OFFCURVE",
"150 108 CURVE",
"132 93 LINE SMOOTH",
"126 88 OFFCURVE",
"120 83 OFFCURVE",
"113 78 CURVE",
"94 62 OFFCURVE",
"76 46 OFFCURVE",
"59 27 CURVE",
"55 22 OFFCURVE",
"51 17 OFFCURVE",
"47 12 CURVE",
"33 -3 LINE SMOOTH",
"6 -33 OFFCURVE",
"-14 -66 OFFCURVE",
"-29 -103 CURVE SMOOTH",
"-37 -124 OFFCURVE",
"-40 -145 OFFCURVE",
"-38 -168 CURVE",
"-38 -175 OFFCURVE",
"-36 -181 OFFCURVE",
"-33 -185 CURVE",
"-30 -194 LINE",
"-25 -211 OFFCURVE",
"-19 -224 OFFCURVE",
"-4 -235 CURVE",
"-1 -238 LINE",
"-1 -239 OFFCURVE",
"-1 -239 OFFCURVE",
"0 -240 CURVE",
"9 -243 LINE",
"22 -248 OFFCURVE",
"44 -253 OFFCURVE",
"57 -250 CURVE",
"64 -249 OFFCURVE",
"72 -249 OFFCURVE",
"80 -248 CURVE",
"95 -247 OFFCURVE",
"110 -247 OFFCURVE",
"129 -236 CURVE",
"132 -234 OFFCURVE",
"136 -232 OFFCURVE",
"140 -231 CURVE SMOOTH",
"144 -230 OFFCURVE",
"148 -227 OFFCURVE",
"151 -224 CURVE",
"154 -224 LINE",
"157 -223 OFFCURVE",
"160 -222 OFFCURVE",
"162 -220 CURVE",
"163 -218 OFFCURVE",
"165 -216 OFFCURVE",
"167 -214 CURVE SMOOTH"
);
},
{
closed = 1;
nodes = (
"158 42 LINE SMOOTH",
"159 33 OFFCURVE",
"158 25 OFFCURVE",
"157 16 CURVE",
"156 10 OFFCURVE",
"155 4 OFFCURVE",
"155 -2 CURVE SMOOTH",
"155 -8 OFFCURVE",
"155 -14 OFFCURVE",
"154 -20 CURVE SMOOTH",
"151 -41 LINE SMOOTH",
"150 -48 OFFCURVE",
"149 -56 OFFCURVE",
"148 -63 CURVE",
"148 -71 LINE",
"147 -76 OFFCURVE",
"146 -85 OFFCURVE",
"146 -94 CURVE",
"144 -108 LINE",
"143 -113 OFFCURVE",
"143 -117 OFFCURVE",
"143 -122 CURVE",
"141 -136 LINE",
"140 -140 OFFCURVE",
"136 -153 OFFCURVE",
"135 -160 CURVE",
"134 -161 OFFCURVE",
"134 -163 OFFCURVE",
"134 -165 CURVE SMOOTH",
"134 -167 OFFCURVE",
"133 -169 OFFCURVE",
"132 -171 CURVE",
"120 -190 OFFCURVE",
"107 -208 OFFCURVE",
"87 -221 CURVE",
"70 -233 OFFCURVE",
"44 -238 OFFCURVE",
"33 -226 CURVE",
"28 -221 OFFCURVE",
"25 -218 OFFCURVE",
"22 -216 CURVE SMOOTH",
"19 -214 OFFCURVE",
"16 -211 OFFCURVE",
"14 -208 CURVE SMOOTH",
"10 -202 OFFCURVE",
"7 -196 OFFCURVE",
"6 -191 CURVE",
"3 -184 LINE",
"0 -176 OFFCURVE",
"1 -169 OFFCURVE",
"6 -164 CURVE SMOOTH",
"7 -163 OFFCURVE",
"7 -162 OFFCURVE",
"7 -161 CURVE",
"4 -153 OFFCURVE",
"7 -145 OFFCURVE",
"10 -136 CURVE SMOOTH",
"15 -122 OFFCURVE",
"19 -108 OFFCURVE",
"21 -94 CURVE",
"21 -86 OFFCURVE",
"26 -80 OFFCURVE",
"31 -73 CURVE",
"38 -65 OFFCURVE",
"44 -56 OFFCURVE",
"49 -46 CURVE",
"50 -42 OFFCURVE",
"52 -38 OFFCURVE",
"55 -35 CURVE",
"63 -26 LINE SMOOTH",
"68 -20 OFFCURVE",
"72 -14 OFFCURVE",
"77 -9 CURVE SMOOTH",
"82 -4 OFFCURVE",
"86 2 OFFCURVE",
"91 8 CURVE",
"96 13 OFFCURVE",
"100 19 OFFCURVE",
"105 24 CURVE",
"109 29 OFFCURVE",
"113 34 OFFCURVE",
"118 39 CURVE",
"122 42 LINE",
"123 43 OFFCURVE",
"124 44 OFFCURVE",
"125 45 CURVE",
"137 55 LINE",
"141 58 OFFCURVE",
"145 61 OFFCURVE",
"148 65 CURVE",
"151 66 OFFCURVE",
"153 68 OFFCURVE",
"155 69 CURVE"
);
},
{
closed = 1;
nodes = (
"187 -161 LINE",
"186 -161 LINE",
"187 -160 LINE"
);
}
);
width = 348;
}
);
note = g;
unicode = 0067;
},
{
glyphname = h;
layers = (
{
hints = (
{
horizontal = 1;
place = "{-156, 26}";
type = Stem;
},
{
horizontal = 1;
place = "{265, 22}";
type = Stem;
},
{
horizontal = 1;
place = "{812.04, 21.96}";
type = Stem;
},
{
place = "{-19, 74}";
type = Stem;
},
{
place = "{178, 70}";
type = Stem;
},
{
place = "{354, 42}";
type = Stem;
},
{
place = "{192, 71}";
type = Stem;
},
{
place = "{-4, 12}";
type = Stem;
}
);
layerId = "54D2F088-3B12-48DB-A05E-ED165257FC93";
paths = (
{
closed = 1;
nodes = (
"488 306 OFFCURVE",
"482 303 OFFCURVE",
"478 297 CURVE SMOOTH",
"476 294 OFFCURVE",
"474 291 OFFCURVE",
"472 289 CURVE",
"470 286 OFFCURVE",
"468 283 OFFCURVE",
"467 280 CURVE",
"463 272 OFFCURVE",
"459 264 OFFCURVE",
"456 256 CURVE",
"451 237 OFFCURVE",
"446 220 OFFCURVE",
"442 201 CURVE SMOOTH",
"437 178 OFFCURVE",
"429 155 OFFCURVE",
"418 134 CURVE",
"412 119 LINE",
"409 114 OFFCURVE",
"407 109 OFFCURVE",
"406 104 CURVE",
"405 101 OFFCURVE",
"404 96 OFFCURVE",
"401 89 CURVE SMOOTH",
"396 78 OFFCURVE",
"392 68 OFFCURVE",
"389 57 CURVE SMOOTH",
"386 46 OFFCURVE",
"381 36 OFFCURVE",
"376 25 CURVE",
"375 24 OFFCURVE",
"375 22 OFFCURVE",
"375 20 CURVE",
"374 18 OFFCURVE",
"374 16 OFFCURVE",
"373 15 CURVE SMOOTH",
"372 14 OFFCURVE",
"372 12 OFFCURVE",
"372 10 CURVE",
"371 8 OFFCURVE",
"370 6 OFFCURVE",
"369 5 CURVE",
"357 -23 OFFCURVE",
"344 -50 OFFCURVE",
"328 -77 CURVE SMOOTH",
"325 -82 OFFCURVE",
"321 -87 OFFCURVE",
"318 -92 CURVE",
"308 -107 LINE",
"304 -112 OFFCURVE",
"299 -117 OFFCURVE",
"294 -121 CURVE",
"287 -126 OFFCURVE",
"280 -130 OFFCURVE",
"271 -130 CURVE SMOOTH",
"267 -130 OFFCURVE",
"264 -129 OFFCURVE",
"262 -126 CURVE SMOOTH",
"255 -115 OFFCURVE",
"251 -105 OFFCURVE",
"251 -94 CURVE SMOOTH",
"251 -91 OFFCURVE",
"251 -89 OFFCURVE",
"252 -86 CURVE",
"252 -78 LINE",
"251 -69 OFFCURVE",
"251 -61 OFFCURVE",
"251 -52 CURVE",
"248 -27 LINE",
"246 3 OFFCURVE",
"248 33 OFFCURVE",
"254 62 CURVE SMOOTH",
"259 91 OFFCURVE",
"262 121 OFFCURVE",
"263 151 CURVE SMOOTH",
"263 170 OFFCURVE",
"261 187 OFFCURVE",
"256 202 CURVE SMOOTH",
"251 217 OFFCURVE",
"246 234 OFFCURVE",
"242 251 CURVE",
"241 258 OFFCURVE",
"238 263 OFFCURVE",
"235 266 CURVE",
"231 271 OFFCURVE",
"228 275 OFFCURVE",
"227 278 CURVE",
"222 284 OFFCURVE",
"217 287 OFFCURVE",
"212 287 CURVE",
"198 289 OFFCURVE",
"185 286 OFFCURVE",
"172 279 CURVE",
"159 271 OFFCURVE",
"146 262 OFFCURVE",
"135 251 CURVE SMOOTH",
"129 245 LINE",
"127 242 OFFCURVE",
"125 240 OFFCURVE",
"123 238 CURVE",
"118 231 OFFCURVE",
"113 225 OFFCURVE",
"109 218 CURVE SMOOTH",
"106 213 OFFCURVE",
"103 208 OFFCURVE",
"100 204 CURVE SMOOTH",
"97 200 OFFCURVE",
"94 195 OFFCURVE",
"91 190 CURVE",
"86 179 OFFCURVE",
"80 169 OFFCURVE",
"75 159 CURVE",
"69 149 OFFCURVE",
"64 139 OFFCURVE",
"60 128 CURVE SMOOTH",
"59 125 OFFCURVE",
"57 123 OFFCURVE",
"56 121 CURVE",
"55 122 OFFCURVE",
"55 123 OFFCURVE",
"55 124 CURVE SMOOTH",
"55 125 OFFCURVE",
"55 126 OFFCURVE",
"54 127 CURVE",
"53 132 OFFCURVE",
"53 136 OFFCURVE",
"54 141 CURVE",
"54 149 OFFCURVE",
"55 161 OFFCURVE",
"55 174 CURVE SMOOTH",
"55 180 OFFCURVE",
"56 186 OFFCURVE",
"57 193 CURVE",
"58 196 OFFCURVE",
"58 200 OFFCURVE",
"58 203 CURVE SMOOTH",
"58 209 OFFCURVE",
"59 215 OFFCURVE",
"60 220 CURVE",
"60 222 OFFCURVE",
"60 225 OFFCURVE",
"59 228 CURVE",
"59 239 LINE",
"58 242 OFFCURVE",
"58 246 OFFCURVE",
"59 250 CURVE",
"59 257 OFFCURVE",
"60 265 OFFCURVE",
"62 273 CURVE",
"65 288 OFFCURVE",
"63 288 OFFCURVE",
"79 292 CURVE SMOOTH",
"122 303 OFFCURVE",
"149 329 OFFCURVE",
"182 356 CURVE SMOOTH",
"191 363 OFFCURVE",
"201 371 OFFCURVE",
"211 378 CURVE SMOOTH",
"221 385 OFFCURVE",
"231 392 OFFCURVE",
"240 399 CURVE SMOOTH",
"260 415 OFFCURVE",
"273 432 OFFCURVE",
"289 453 CURVE SMOOTH",
"316 487 LINE SMOOTH",
"335 510 OFFCURVE",
"354 534 OFFCURVE",
"368 560 CURVE SMOOTH",
"382 586 OFFCURVE",
"386 609 OFFCURVE",
"390 627 CURVE",
"393 645 OFFCURVE",
"396 662 OFFCURVE",
"396 679 CURVE SMOOTH",
"396 687 OFFCURVE",
"397 695 OFFCURVE",
"398 704 CURVE",
"399 707 OFFCURVE",
"398 712 OFFCURVE",
"397 719 CURVE",
"397 725 LINE",
"396 726 OFFCURVE",
"396 728 OFFCURVE",
"396 730 CURVE SMOOTH",
"396 735 OFFCURVE",
"395 740 OFFCURVE",
"392 747 CURVE",
"391 748 OFFCURVE",
"391 750 OFFCURVE",
"391 751 CURVE",
"390 752 OFFCURVE",
"390 754 OFFCURVE",
"389 755 CURVE",
"386 767 OFFCURVE",
"381 777 OFFCURVE",
"376 785 CURVE",
"368 796 OFFCURVE",
"360 804 OFFCURVE",
"349 811 CURVE SMOOTH",
"332 822 OFFCURVE",
"313 827 OFFCURVE",
"293 831 CURVE",
"282 834 OFFCURVE",
"270 836 OFFCURVE",
"259 835 CURVE",
"250 835 LINE",
"247 834 OFFCURVE",
"244 834 OFFCURVE",
"241 834 CURVE",
"227 833 OFFCURVE",
"214 830 OFFCURVE",
"201 826 CURVE SMOOTH",
"176 818 OFFCURVE",
"157 803 OFFCURVE",
"148 786 CURVE SMOOTH",
"143 777 OFFCURVE",
"139 770 OFFCURVE",
"134 766 CURVE",
"123 758 OFFCURVE",
"119 747 OFFCURVE",
"114 736 CURVE",
"111 728 OFFCURVE",
"107 721 OFFCURVE",
"103 714 CURVE",
"98 707 OFFCURVE",
"93 699 OFFCURVE",
"90 690 CURVE",
"85 679 OFFCURVE",
"80 670 OFFCURVE",
"76 659 CURVE SMOOTH",
"68 639 OFFCURVE",
"60 618 OFFCURVE",
"53 597 CURVE SMOOTH",
"29 519 LINE",
"29 517 LINE",
"28 516 OFFCURVE",
"28 516 OFFCURVE",
"28 515 CURVE",
"23 498 OFFCURVE",
"18 481 OFFCURVE",
"14 462 CURVE",
"12 457 OFFCURVE",
"11 452 OFFCURVE",
"11 447 CURVE",
"9 438 OFFCURVE",
"7 428 OFFCURVE",
"6 419 CURVE SMOOTH",
"5 409 OFFCURVE",
"3 399 OFFCURVE",
"1 390 CURVE",
"0 381 OFFCURVE",
"-2 371 OFFCURVE",
"-3 361 CURVE",
"-5 351 OFFCURVE",
"-7 341 OFFCURVE",
"-8 332 CURVE",
"-9 327 OFFCURVE",
"-10 322 OFFCURVE",
"-10 317 CURVE",
"-13 302 LINE SMOOTH",
"-16 284 OFFCURVE",
"-17 266 OFFCURVE",
"-16 248 CURVE",
"-15 237 OFFCURVE",
"-15 226 OFFCURVE",
"-16 214 CURVE",
"-17 207 OFFCURVE",
"-18 201 OFFCURVE",
"-18 194 CURVE SMOOTH",
"-18 187 OFFCURVE",
"-18 180 OFFCURVE",
"-18 173 CURVE SMOOTH",
"-18 162 LINE",
"-19 158 OFFCURVE",
"-19 154 OFFCURVE",
"-19 150 CURVE",
"-20 141 OFFCURVE",
"-22 132 OFFCURVE",
"-21 121 CURVE SMOOTH",
"-20 111 OFFCURVE",
"-20 101 OFFCURVE",
"-19 91 CURVE SMOOTH",
"-18 81 OFFCURVE",
"-18 71 OFFCURVE",
"-18 60 CURVE SMOOTH",
"-18 59 LINE",
"-17 52 OFFCURVE",
"-16 44 OFFCURVE",
"-16 37 CURVE",
"-17 22 OFFCURVE",
"-15 10 OFFCURVE",
"-14 -2 CURVE SMOOTH",
"-13 -14 OFFCURVE",
"-10 -25 OFFCURVE",
"-6 -33 CURVE",
"-5 -37 OFFCURVE",
"-4 -42 OFFCURVE",
"-5 -47 CURVE",
"-5 -48 OFFCURVE",
"-5 -48 OFFCURVE",
"-4 -48 CURVE",
"-4 -50 LINE",
"-3 -55 OFFCURVE",
"1 -57 OFFCURVE",
"6 -56 CURVE",
"7 -56 OFFCURVE",
"7 -56 OFFCURVE",
"8 -55 CURVE",
"9 -55 LINE",
"15 -54 OFFCURVE",
"20 -55 OFFCURVE",
"23 -59 CURVE",
"26 -62 OFFCURVE",
"28 -63 OFFCURVE",
"31 -63 CURVE",
"37 -55 LINE",
"40 -56 OFFCURVE",
"44 -57 OFFCURVE",
"47 -59 CURVE SMOOTH",
"50 -61 OFFCURVE",
"54 -62 OFFCURVE",
"58 -62 CURVE",
"61 -60 LINE",
"62 -60 OFFCURVE",
"62 -60 OFFCURVE",
"62 -59 CURVE",
"66 -51 OFFCURVE",
"69 -44 OFFCURVE",
"72 -36 CURVE",
"73 -29 OFFCURVE",
"75 -23 OFFCURVE",
"78 -16 CURVE",
"82 -4 OFFCURVE",
"87 12 OFFCURVE",
"86 19 CURVE",
"83 26 OFFCURVE",
"84 34 OFFCURVE",
"87 43 CURVE",
"91 59 LINE",
"92 64 OFFCURVE",
"93 69 OFFCURVE",
"93 74 CURVE",
"94 93 OFFCURVE",
"96 111 OFFCURVE",
"103 128 CURVE",
"104 131 OFFCURVE",
"105 132 OFFCURVE",
"105 133 CURVE SMOOTH",
"105 145 OFFCURVE",
"111 153 OFFCURVE",
"116 162 CURVE",
"117 164 OFFCURVE",
"119 166 OFFCURVE",
"121 168 CURVE",
"124 174 LINE",
"126 181 OFFCURVE",
"129 188 OFFCURVE",
"133 194 CURVE",
"136 199 OFFCURVE",
"139 205 OFFCURVE",
"142 212 CURVE",
"142 213 OFFCURVE",
"143 215 OFFCURVE",
"145 217 CURVE",
"154 222 OFFCURVE",
"158 231 OFFCURVE",
"161 240 CURVE SMOOTH",
"165 251 OFFCURVE",
"179 261 OFFCURVE",
"190 265 CURVE",
"192 264 OFFCURVE",
"193 261 OFFCURVE",
"193 257 CURVE",
"194 250 OFFCURVE",
"194 242 OFFCURVE",
"193 235 CURVE SMOOTH",
"192 228 OFFCURVE",
"192 220 OFFCURVE",
"192 213 CURVE",
"191 187 OFFCURVE",
"188 162 OFFCURVE",
"184 137 CURVE",
"179 112 OFFCURVE",
"176 87 OFFCURVE",
"175 61 CURVE",
"175 33 LINE",
"174 23 OFFCURVE",
"174 13 OFFCURVE",
"175 4 CURVE SMOOTH",
"177 -13 OFFCURVE",
"178 -29 OFFCURVE",
"178 -45 CURVE SMOOTH",
"178 -61 OFFCURVE",
"179 -77 OFFCURVE",
"182 -93 CURVE",
"185 -106 OFFCURVE",
"189 -117 OFFCURVE",
"196 -128 CURVE",
"208 -149 OFFCURVE",
"234 -164 OFFCURVE",
"257 -157 CURVE",
"258 -157 OFFCURVE",
"260 -157 OFFCURVE",
"261 -156 CURVE",
"265 -156 LINE",
"272 -157 OFFCURVE",
"276 -156 OFFCURVE",
"281 -153 CURVE",
"284 -152 OFFCURVE",
"286 -150 OFFCURVE",
"289 -149 CURVE",
"296 -148 OFFCURVE",
"302 -145 OFFCURVE",
"308 -142 CURVE",
"319 -135 OFFCURVE",
"335 -128 OFFCURVE",
"348 -112 CURVE",
"360 -96 OFFCURVE",
"371 -77 OFFCURVE",
"380 -57 CURVE SMOOTH",
"384 -48 OFFCURVE",
"388 -39 OFFCURVE",
"393 -30 CURVE SMOOTH",
"416 13 OFFCURVE",
"437 57 OFFCURVE",
"445 105 CURVE SMOOTH",
"450 136 OFFCURVE",
"458 167 OFFCURVE",
"470 197 CURVE",
"471 200 OFFCURVE",
"473 204 OFFCURVE",
"474 207 CURVE SMOOTH",
"477 216 LINE",
"478 222 OFFCURVE",
"480 228 OFFCURVE",
"482 234 CURVE",
"486 250 LINE",
"487 253 OFFCURVE",
"488 255 OFFCURVE",
"487 258 CURVE SMOOTH",
"486 261 OFFCURVE",
"487 265 OFFCURVE",
"489 268 CURVE",
"492 275 OFFCURVE",
"494 279 OFFCURVE",
"495 286 CURVE",
"498 293 OFFCURVE",
"499 298 OFFCURVE",
"495 305 CURVE"
);
},
{
closed = 1;
nodes = (
"73 326 OFFCURVE",
"75 332 OFFCURVE",
"75 339 CURVE SMOOTH",
"75 341 OFFCURVE",
"75 342 OFFCURVE",
"76 343 CURVE",
"79 347 OFFCURVE",
"80 351 OFFCURVE",
"81 356 CURVE",
"81 364 OFFCURVE",
"84 373 OFFCURVE",
"85 378 CURVE",
"86 380 OFFCURVE",
"86 382 OFFCURVE",
"87 385 CURVE",
"91 401 LINE",
"93 411 OFFCURVE",
"94 419 OFFCURVE",
"97 426 CURVE SMOOTH",
"101 436 LINE",
"109 451 OFFCURVE",
"115 466 OFFCURVE",
"118 483 CURVE SMOOTH",
"119 490 OFFCURVE",
"120 493 OFFCURVE",
"123 500 CURVE",
"128 515 OFFCURVE",
"134 529 OFFCURVE",
"139 544 CURVE",
"140 548 OFFCURVE",
"142 552 OFFCURVE",
"143 557 CURVE",
"144 561 OFFCURVE",
"145 565 OFFCURVE",
"147 568 CURVE",
"149 573 OFFCURVE",
"151 579 OFFCURVE",
"152 585 CURVE SMOOTH",
"153 591 OFFCURVE",
"155 597 OFFCURVE",
"158 602 CURVE",
"160 607 OFFCURVE",
"162 613 OFFCURVE",
"164 620 CURVE",
"170 638 LINE",
"171 639 OFFCURVE",
"172 641 OFFCURVE",
"173 643 CURVE",
"173 645 OFFCURVE",
"174 647 OFFCURVE",
"175 649 CURVE",
"182 660 OFFCURVE",
"186 671 OFFCURVE",
"188 684 CURVE",
"189 689 OFFCURVE",
"191 693 OFFCURVE",
"193 696 CURVE",
"194 697 OFFCURVE",
"194 699 OFFCURVE",
"195 700 CURVE SMOOTH",
"196 701 OFFCURVE",
"196 702 OFFCURVE",
"196 703 CURVE SMOOTH",
"196 705 OFFCURVE",
"196 707 OFFCURVE",
"197 708 CURVE SMOOTH",
"198 709 OFFCURVE",
"198 711 OFFCURVE",
"199 712 CURVE",
"202 719 OFFCURVE",
"205 726 OFFCURVE",
"208 733 CURVE",
"218 752 LINE",
"219 753 OFFCURVE",
"220 755 OFFCURVE",
"220 757 CURVE SMOOTH",
"220 760 OFFCURVE",
"221 763 OFFCURVE",
"222 765 CURVE SMOOTH",
"223 767 OFFCURVE",
"225 769 OFFCURVE",
"226 771 CURVE",
"238 787 LINE",
"247 796 LINE",
"263 805 LINE",
"274 810 OFFCURVE",
"290 817 OFFCURVE",
"305 808 CURVE",
"306 807 OFFCURVE",
"308 806 OFFCURVE",
"310 805 CURVE SMOOTH",
"316 802 LINE",
"323 798 OFFCURVE",
"327 793 OFFCURVE",
"328 787 CURVE",
"329 784 OFFCURVE",
"331 781 OFFCURVE",
"332 779 CURVE",
"333 776 OFFCURVE",
"335 774 OFFCURVE",
"336 771 CURVE",
"342 763 OFFCURVE",
"345 756 OFFCURVE",
"346 749 CURVE",
"346 748 OFFCURVE",
"347 746 OFFCURVE",
"348 743 CURVE",
"352 735 OFFCURVE",
"354 727 OFFCURVE",
"354 718 CURVE",
"353 716 OFFCURVE",
"354 713 OFFCURVE",
"355 710 CURVE",
"356 705 OFFCURVE",
"356 701 OFFCURVE",
"355 697 CURVE SMOOTH",
"354 693 OFFCURVE",
"354 689 OFFCURVE",
"354 685 CURVE SMOOTH",
"354 673 LINE",
"353 668 OFFCURVE",
"353 662 OFFCURVE",
"353 657 CURVE",
"350 641 LINE",
"349 638 OFFCURVE",
"349 635 OFFCURVE",
"349 632 CURVE",
"348 626 OFFCURVE",
"346 618 OFFCURVE",
"343 611 CURVE",
"342 607 OFFCURVE",
"340 603 OFFCURVE",
"339 599 CURVE",
"328 573 OFFCURVE",
"315 548 OFFCURVE",
"300 524 CURVE SMOOTH",
"293 512 OFFCURVE",
"286 501 OFFCURVE",
"277 490 CURVE",
"273 486 LINE",
"272 484 OFFCURVE",
"270 482 OFFCURVE",
"269 481 CURVE SMOOTH",
"251 463 LINE",
"245 456 OFFCURVE",
"239 450 OFFCURVE",
"233 444 CURVE",
"232 442 OFFCURVE",
"230 440 OFFCURVE",
"228 438 CURVE SMOOTH",
"226 436 OFFCURVE",
"224 434 OFFCURVE",
"223 432 CURVE",
"214 421 OFFCURVE",
"204 411 OFFCURVE",
"194 402 CURVE",
"174 382 OFFCURVE",
"154 367 OFFCURVE",
"138 355 CURVE",
"122 342 OFFCURVE",
"108 331 OFFCURVE",
"96 323 CURVE",
"89 319 OFFCURVE",
"83 315 OFFCURVE",
"77 311 CURVE",
"76 310 OFFCURVE",
"73 309 OFFCURVE",
"69 308 CURVE",
"68 313 OFFCURVE",
"68 317 OFFCURVE",
"70 322 CURVE"
);
}
);
width = 470;
}
);
note = h;
unicode = 0068;
},
{
glyphname = i;
layers = (
{
hints = (
{
horizontal = 1;
place = "{61, 26}";
type = Stem;
},
{
horizontal = 1;
place = "{489, 58}";
type = Stem;
},
{
place = "{2, 56.5}";
type = Stem;
},
{
place = "{-14, 79}";
type = Stem;
}
);
layerId = "54D2F088-3B12-48DB-A05E-ED165257FC93";
paths = (
{
closed = 1;
nodes = (
"1 541 OFFCURVE",
"1 539 OFFCURVE",
"2 536 CURVE SMOOTH",
"3 533 OFFCURVE",
"3 531 OFFCURVE",
"2 528 CURVE",
"1 521 OFFCURVE",
"4 514 OFFCURVE",
"9 507 CURVE",
"12 500 OFFCURVE",
"22 489 OFFCURVE",
"30 489 CURVE SMOOTH",
"41 489 LINE",
"42 490 OFFCURVE",
"42 490 OFFCURVE",
"43 490 CURVE",
"45 493 OFFCURVE",
"48 496 OFFCURVE",
"52 500 CURVE",
"54 506 OFFCURVE",
"56 512 OFFCURVE",
"57 518 CURVE SMOOTH",
"60 536 LINE",
"54 545 OFFCURVE",
"45 549 OFFCURVE",
"33 547 CURVE",
"25 547 LINE",
"22 546 OFFCURVE",
"20 546 OFFCURVE",
"18 547 CURVE",
"17 548 OFFCURVE",
"16 548 OFFCURVE",
"14 547 CURVE",
"11 547 OFFCURVE",
"9 547 OFFCURVE",
"8 546 CURVE",
"6 545 OFFCURVE",
"4 545 OFFCURVE",
"2 544 CURVE"
);
},
{
closed = 1;
nodes = (
"223 299 OFFCURVE",
"215 295 OFFCURVE",
"210 288 CURVE",
"209 285 OFFCURVE",
"207 282 OFFCURVE",
"206 281 CURVE",
"203 274 LINE",
"200 266 OFFCURVE",
"198 259 OFFCURVE",
"195 253 CURVE",
"192 246 OFFCURVE",
"188 239 OFFCURVE",
"185 232 CURVE SMOOTH",
"180 220 OFFCURVE",
"176 211 OFFCURVE",
"169 202 CURVE",
"167 197 OFFCURVE",
"165 192 OFFCURVE",
"162 188 CURVE SMOOTH",
"159 184 OFFCURVE",
"157 179 OFFCURVE",
"155 174 CURVE",
"143 153 OFFCURVE",
"128 134 OFFCURVE",
"112 115 CURVE",
"111 112 OFFCURVE",
"109 110 OFFCURVE",
"107 108 CURVE SMOOTH",
"105 106 OFFCURVE",
"103 104 OFFCURVE",
"101 102 CURVE",
"92 94 LINE SMOOTH",
"86 89 OFFCURVE",
"80 87 OFFCURVE",
"71 87 CURVE SMOOTH",
"68 87 OFFCURVE",
"67 88 OFFCURVE",
"66 89 CURVE",
"62 96 OFFCURVE",
"60 103 OFFCURVE",
"59 111 CURVE",
"60 120 OFFCURVE",
"59 130 OFFCURVE",
"57 140 CURVE",
"56 143 OFFCURVE",
"56 147 OFFCURVE",
"57 150 CURVE",
"57 156 OFFCURVE",
"58 162 OFFCURVE",
"58 168 CURVE SMOOTH",
"58 171 OFFCURVE",
"57 174 OFFCURVE",
"56 177 CURVE",
"56 178 OFFCURVE",
"56 179 OFFCURVE",
"57 180 CURVE",
"57 181 OFFCURVE",
"57 182 OFFCURVE",
"56 183 CURVE",
"59 199 LINE SMOOTH",
"60 204 OFFCURVE",
"59 210 OFFCURVE",
"58 216 CURVE",
"60 218 LINE",
"60 231 LINE",
"61 238 OFFCURVE",
"61 245 OFFCURVE",
"61 251 CURVE SMOOTH",
"61 256 OFFCURVE",
"62 262 OFFCURVE",
"63 268 CURVE SMOOTH",
"64 273 OFFCURVE",
"65 278 OFFCURVE",
"65 282 CURVE SMOOTH",
"65 286 OFFCURVE",
"65 291 OFFCURVE",
"64 296 CURVE",
"64 302 LINE",
"63 304 OFFCURVE",
"63 306 OFFCURVE",
"64 308 CURVE",
"66 315 OFFCURVE",
"66 322 OFFCURVE",
"65 329 CURVE",
"65 338 OFFCURVE",
"65 346 OFFCURVE",
"66 355 CURVE SMOOTH",
"67 363 OFFCURVE",
"66 372 OFFCURVE",
"65 381 CURVE",
"64 386 OFFCURVE",
"63 390 OFFCURVE",
"63 395 CURVE SMOOTH",
"63 399 OFFCURVE",
"63 403 OFFCURVE",
"62 408 CURVE",
"62 411 OFFCURVE",
"60 414 OFFCURVE",
"59 417 CURVE SMOOTH",
"58 420 OFFCURVE",
"56 423 OFFCURVE",
"55 425 CURVE SMOOTH",
"54 427 OFFCURVE",
"52 430 OFFCURVE",
"51 433 CURVE",
"47 440 OFFCURVE",
"38 444 OFFCURVE",
"31 444 CURVE SMOOTH",
"27 444 OFFCURVE",
"23 444 OFFCURVE",
"19 445 CURVE",
"15 445 OFFCURVE",
"13 444 OFFCURVE",
"12 441 CURVE",
"10 434 OFFCURVE",
"8 428 OFFCURVE",
"6 423 CURVE",
"2 411 OFFCURVE",
"-1 397 OFFCURVE",
"-3 385 CURVE SMOOTH",
"-5 372 OFFCURVE",
"-8 356 OFFCURVE",
"-8 343 CURVE",
"-11 322 LINE",
"-14 294 OFFCURVE",
"-15 266 OFFCURVE",
"-14 239 CURVE",
"-14 214 LINE",
"-15 205 OFFCURVE",
"-15 197 OFFCURVE",
"-14 189 CURVE",
"-14 167 LINE",
"-15 160 OFFCURVE",
"-14 152 OFFCURVE",
"-13 145 CURVE SMOOTH",
"-12 138 OFFCURVE",
"-10 131 OFFCURVE",
"-9 124 CURVE SMOOTH",
"-7 110 OFFCURVE",
"0 95 OFFCURVE",
"9 85 CURVE SMOOTH",
"18 75 OFFCURVE",
"32 70 OFFCURVE",
"42 67 CURVE",
"47 66 OFFCURVE",
"52 64 OFFCURVE",
"57 62 CURVE",
"60 60 OFFCURVE",
"66 60 OFFCURVE",
"73 61 CURVE",
"85 64 LINE",
"89 64 OFFCURVE",
"93 65 OFFCURVE",
"98 66 CURVE",
"99 67 OFFCURVE",
"101 68 OFFCURVE",
"102 68 CURVE",
"110 71 OFFCURVE",
"118 75 OFFCURVE",
"125 82 CURVE",
"131 87 OFFCURVE",
"137 91 OFFCURVE",
"144 96 CURVE SMOOTH",
"156 104 OFFCURVE",
"162 115 OFFCURVE",
"166 123 CURVE",
"168 126 OFFCURVE",
"170 130 OFFCURVE",
"173 134 CURVE",
"175 135 LINE",
"179 151 OFFCURVE",
"185 165 OFFCURVE",
"192 180 CURVE",
"193 183 OFFCURVE",
"196 187 OFFCURVE",
"197 190 CURVE SMOOTH",
"200 199 LINE",
"203 203 OFFCURVE",
"206 209 OFFCURVE",
"207 213 CURVE",
"207 214 OFFCURVE",
"208 216 OFFCURVE",
"209 217 CURVE",
"210 220 OFFCURVE",
"212 223 OFFCURVE",
"213 226 CURVE SMOOTH",
"214 229 OFFCURVE",
"215 231 OFFCURVE",
"218 233 CURVE",
"222 240 OFFCURVE",
"226 249 OFFCURVE",
"229 258 CURVE",
"230 263 OFFCURVE",
"233 268 OFFCURVE",
"236 273 CURVE",
"237 275 OFFCURVE",
"237 277 OFFCURVE",
"238 280 CURVE",
"238 282 OFFCURVE",
"239 285 OFFCURVE",
"240 288 CURVE",
"240 292 OFFCURVE",
"238 296 OFFCURVE",
"234 300 CURVE"
);
}
);
width = 222;
}
);
note = i;
unicode = 0069;
},
{
glyphname = j;
layers = (
{
hints = (
{
horizontal = 1;
place = "{-354, 41.5}";
type = Stem;
},
{
horizontal = 1;
place = "{479.34, 68.91}";
type = Stem;
},
{
place = "{-199, 39}";
type = Stem;
},
{
place = "{3, 49.86}";
type = Stem;
},
{
place = "{-13, 94}";
type = Stem;
},
{
place = "{-12, 76.5}";
type = Stem;
},
{
place = "{-2, 80}";
type = Stem;
}
);
layerId = "54D2F088-3B12-48DB-A05E-ED165257FC93";
paths = (
{
closed = 1;
nodes = (
"11 488 OFFCURVE",
"22 471 OFFCURVE",
"35 484 CURVE SMOOTH",
"44 493 LINE",
"60 513 OFFCURVE",
"54 537 OFFCURVE",
"29 546 CURVE",
"25 549 OFFCURVE",
"22 549 OFFCURVE",
"19 546 CURVE",
"8 539 OFFCURVE",
"0 530 OFFCURVE",
"3 519 CURVE",
"2 512 OFFCURVE",
"3 505 OFFCURVE",
"6 500 CURVE"
);
},
{
closed = 1;
nodes = (
"213 298 OFFCURVE",
"208 292 OFFCURVE",
"204 285 CURVE",
"195 272 OFFCURVE",
"187 259 OFFCURVE",
"179 247 CURVE SMOOTH",
"170 234 OFFCURVE",
"162 222 OFFCURVE",
"154 209 CURVE SMOOTH",
"151 204 OFFCURVE",
"148 199 OFFCURVE",
"146 194 CURVE",
"142 185 OFFCURVE",
"136 176 OFFCURVE",
"129 168 CURVE",
"120 156 LINE",
"115 147 OFFCURVE",
"109 139 OFFCURVE",
"102 132 CURVE SMOOTH",
"95 125 OFFCURVE",
"89 117 OFFCURVE",
"83 109 CURVE",
"82 109 LINE",
"81 115 OFFCURVE",
"81 121 OFFCURVE",
"81 127 CURVE",
"80 133 OFFCURVE",
"80 139 OFFCURVE",
"79 144 CURVE",
"79 145 OFFCURVE",
"79 146 OFFCURVE",
"80 147 CURVE",
"80 148 OFFCURVE",
"80 149 OFFCURVE",
"80 150 CURVE SMOOTH",
"80 167 LINE SMOOTH",
"80 176 OFFCURVE",
"80 185 OFFCURVE",
"79 195 CURVE",
"78 215 OFFCURVE",
"77 236 OFFCURVE",
"74 247 CURVE SMOOTH",
"72 254 OFFCURVE",
"71 260 OFFCURVE",
"70 267 CURVE SMOOTH",
"69 273 OFFCURVE",
"67 279 OFFCURVE",
"66 286 CURVE",
"63 300 LINE SMOOTH",
"61 308 OFFCURVE",
"57 319 OFFCURVE",
"52 330 CURVE",
"49 335 OFFCURVE",
"47 341 OFFCURVE",
"46 347 CURVE SMOOTH",
"43 362 OFFCURVE",
"35 375 OFFCURVE",
"26 386 CURVE SMOOTH",
"19 394 OFFCURVE",
"13 401 OFFCURVE",
"2 405 CURVE",
"1 404 OFFCURVE",
"1 404 OFFCURVE",
"1 403 CURVE SMOOTH",
"1 402 OFFCURVE",
"1 402 OFFCURVE",
"0 402 CURVE",
"-1 399 OFFCURVE",
"-2 398 OFFCURVE",
"-2 397 CURVE",
"-7 377 OFFCURVE",
"-13 357 OFFCURVE",
"-13 336 CURVE",
"-12 324 OFFCURVE",
"-12 312 OFFCURVE",
"-12 300 CURVE SMOOTH",
"-12 263 LINE SMOOTH",
"-12 257 OFFCURVE",
"-12 251 OFFCURVE",
"-11 246 CURVE",
"-11 240 OFFCURVE",
"-11 234 OFFCURVE",
"-12 228 CURVE",
"-12 205 OFFCURVE",
"-13 184 OFFCURVE",
"-14 161 CURVE",
"-14 158 OFFCURVE",
"-14 155 OFFCURVE",
"-13 152 CURVE",
"-13 142 LINE SMOOTH",
"-12 99 OFFCURVE",
"-12 59 OFFCURVE",
"-5 16 CURVE",
"-4 7 OFFCURVE",
"-6 0 OFFCURVE",
"-12 -3 CURVE",
"-16 -6 OFFCURVE",
"-19 -9 OFFCURVE",
"-21 -12 CURVE",
"-28 -19 OFFCURVE",
"-33 -24 OFFCURVE",
"-37 -31 CURVE",
"-40 -35 OFFCURVE",
"-43 -39 OFFCURVE",
"-48 -42 CURVE",
"-55 -47 OFFCURVE",
"-62 -51 OFFCURVE",
"-68 -56 CURVE SMOOTH",
"-80 -66 OFFCURVE",
"-90 -80 OFFCURVE",
"-101 -94 CURVE SMOOTH",
"-117 -115 LINE SMOOTH",
"-121 -120 OFFCURVE",
"-125 -125 OFFCURVE",
"-128 -130 CURVE",
"-132 -135 OFFCURVE",
"-136 -140 OFFCURVE",
"-141 -145 CURVE SMOOTH",
"-156 -160 OFFCURVE",
"-167 -176 OFFCURVE",
"-179 -193 CURVE",
"-190 -212 OFFCURVE",
"-196 -232 OFFCURVE",
"-199 -253 CURVE SMOOTH",
"-202 -275 OFFCURVE",
"-197 -294 OFFCURVE",
"-183 -310 CURVE",
"-179 -315 OFFCURVE",
"-174 -320 OFFCURVE",
"-168 -325 CURVE SMOOTH",
"-155 -336 OFFCURVE",
"-140 -344 OFFCURVE",
"-124 -348 CURVE",
"-107 -351 LINE",
"-95 -352 OFFCURVE",
"-83 -354 OFFCURVE",
"-70 -354 CURVE SMOOTH",
"-63 -354 OFFCURVE",
"-56 -353 OFFCURVE",
"-49 -352 CURVE",
"-29 -347 OFFCURVE",
"-10 -339 OFFCURVE",
"8 -326 CURVE",
"11 -323 OFFCURVE",
"15 -321 OFFCURVE",
"18 -318 CURVE",
"25 -314 OFFCURVE",
"30 -307 OFFCURVE",
"34 -301 CURVE",
"35 -298 OFFCURVE",
"37 -296 OFFCURVE",
"39 -293 CURVE SMOOTH",
"64 -258 OFFCURVE",
"75 -201 OFFCURVE",
"78 -160 CURVE",
"81 -140 OFFCURVE",
"83 -126 OFFCURVE",
"80 -107 CURVE",
"79 -96 OFFCURVE",
"78 -84 OFFCURVE",
"78 -72 CURVE SMOOTH",
"78 -60 OFFCURVE",
"78 -48 OFFCURVE",
"79 -37 CURVE",
"80 -30 OFFCURVE",
"80 -23 OFFCURVE",
"80 -16 CURVE",
"79 -9 OFFCURVE",
"79 -2 OFFCURVE",
"79 5 CURVE SMOOTH",
"79 16 OFFCURVE",
"78 25 OFFCURVE",
"77 36 CURVE",
"77 41 OFFCURVE",
"79 45 OFFCURVE",
"82 48 CURVE SMOOTH",
"93 59 OFFCURVE",
"103 70 OFFCURVE",
"112 82 CURVE SMOOTH",
"135 113 OFFCURVE",
"155 141 OFFCURVE",
"176 172 CURVE SMOOTH",
"181 179 OFFCURVE",
"186 185 OFFCURVE",
"189 192 CURVE",
"210 249 LINE",
"216 267 LINE SMOOTH",
"218 273 OFFCURVE",
"221 279 OFFCURVE",
"224 284 CURVE",
"227 287 OFFCURVE",
"229 292 OFFCURVE",
"230 297 CURVE",
"231 300 OFFCURVE",
"225 314 OFFCURVE",
"218 305 CURVE"
);
},
{
closed = 1;
nodes = (
"-3 -117 LINE",
"-4 -122 OFFCURVE",
"-4 -128 OFFCURVE",
"-4 -134 CURVE SMOOTH",
"-4 -140 OFFCURVE",
"-4 -146 OFFCURVE",
"-5 -152 CURVE",
"-6 -161 OFFCURVE",
"-7 -170 OFFCURVE",
"-7 -179 CURVE",
"-10 -206 LINE SMOOTH",
"-13 -230 OFFCURVE",
"-18 -253 OFFCURVE",
"-33 -274 CURVE",
"-34 -275 OFFCURVE",
"-35 -277 OFFCURVE",
"-36 -279 CURVE",
"-37 -282 OFFCURVE",
"-39 -284 OFFCURVE",
"-40 -286 CURVE",
"-43 -297 OFFCURVE",
"-49 -302 OFFCURVE",
"-60 -306 CURVE SMOOTH",
"-93 -317 OFFCURVE",
"-123 -316 OFFCURVE",
"-154 -295 CURVE SMOOTH",
"-157 -293 OFFCURVE",
"-159 -290 OFFCURVE",
"-160 -286 CURVE",
"-160 -271 OFFCURVE",
"-160 -256 OFFCURVE",
"-153 -243 CURVE SMOOTH",
"-141 -219 LINE SMOOTH",
"-137 -211 OFFCURVE",
"-133 -203 OFFCURVE",
"-129 -196 CURVE",
"-125 -187 OFFCURVE",
"-120 -179 OFFCURVE",
"-115 -171 CURVE SMOOTH",
"-108 -160 OFFCURVE",
"-100 -149 OFFCURVE",
"-93 -140 CURVE SMOOTH",
"-85 -129 OFFCURVE",
"-78 -121 OFFCURVE",
"-70 -112 CURVE",
"-69 -110 OFFCURVE",
"-65 -106 OFFCURVE",
"-60 -101 CURVE SMOOTH",
"-42 -84 LINE SMOOTH",
"-29 -72 OFFCURVE",
"-15 -58 OFFCURVE",
"-7 -47 CURVE",
"-5 -44 LINE",
"-5 -43 OFFCURVE",
"-4 -42 OFFCURVE",
"-3 -41 CURVE",
"-2 -45 OFFCURVE",
"-1 -47 OFFCURVE",
"-1 -46 CURVE",
"-2 -55 OFFCURVE",
"-2 -64 OFFCURVE",
"-2 -73 CURVE SMOOTH",
"-2 -82 OFFCURVE",
"-2 -91 OFFCURVE",
"-3 -100 CURVE"
);
}
);
width = 212;
}
);
note = j;
unicode = 006A;
},
{
glyphname = k;
layers = (
{
hints = (
{
horizontal = 1;
place = "{323, 33.13}";
type = Stem;
},
{
horizontal = 1;
place = "{928, 37}";
type = Stem;
},
{
place = "{-18.82, 96.82}";
type = Stem;
},
{
place = "{187, 89}";
type = Stem;
},
{
place = "{378.5, 52.25}";
type = Stem;
},
{
place = "{481, 14.5}";
type = Stem;
},
{
place = "{-7, 72}";
type = Stem;
}
);
layerId = "54D2F088-3B12-48DB-A05E-ED165257FC93";
paths = (
{
closed = 1;
nodes = (
"482 301 OFFCURVE",
"482 301 OFFCURVE",
"481 301 CURVE",
"476 284 OFFCURVE",
"470 267 OFFCURVE",
"465 250 CURVE SMOOTH",
"460 233 OFFCURVE",
"454 216 OFFCURVE",
"449 199 CURVE SMOOTH",
"407 70 LINE SMOOTH",
"400 50 OFFCURVE",
"393 29 OFFCURVE",
"387 6 CURVE SMOOTH",
"381 -17 OFFCURVE",
"373 -39 OFFCURVE",
"364 -58 CURVE",
"361 -63 OFFCURVE",
"356 -70 OFFCURVE",
"349 -77 CURVE",
"336 -92 OFFCURVE",
"320 -102 OFFCURVE",
"304 -100 CURVE SMOOTH",
"288 -98 OFFCURVE",
"281 -75 OFFCURVE",
"274 -59 CURVE",
"266 -43 OFFCURVE",
"259 -25 OFFCURVE",
"252 -5 CURVE",
"244 15 OFFCURVE",
"238 33 OFFCURVE",
"232 49 CURVE",
"229 56 OFFCURVE",
"226 64 OFFCURVE",
"224 73 CURVE",
"223 80 OFFCURVE",
"220 87 OFFCURVE",
"217 93 CURVE",
"209 104 OFFCURVE",
"206 111 OFFCURVE",
"195 119 CURVE",
"167 135 LINE",
"166 136 OFFCURVE",
"166 136 OFFCURVE",
"166 137 CURVE",
"165 138 OFFCURVE",
"164 139 OFFCURVE",
"163 140 CURVE",
"193 160 LINE SMOOTH",
"212 172 OFFCURVE",
"225 181 OFFCURVE",
"237 192 CURVE",
"248 203 OFFCURVE",
"258 216 OFFCURVE",
"266 229 CURVE SMOOTH",
"274 242 OFFCURVE",
"278 257 OFFCURVE",
"276 280 CURVE SMOOTH",
"274 303 OFFCURVE",
"269 326 OFFCURVE",
"242 345 CURVE",
"223 357 OFFCURVE",
"205 361 OFFCURVE",
"185 350 CURVE",
"180 347 OFFCURVE",
"173 344 OFFCURVE",
"168 340 CURVE",
"141 322 OFFCURVE",
"117 298 OFFCURVE",
"95 269 CURVE SMOOTH",
"89 261 LINE",
"86 271 OFFCURVE",
"84 281 OFFCURVE",
"85 290 CURVE",
"86 308 OFFCURVE",
"89 327 OFFCURVE",
"91 344 CURVE SMOOTH",
"94 371 LINE",
"95 372 OFFCURVE",
"95 374 OFFCURVE",
"96 376 CURVE SMOOTH",
"97 378 OFFCURVE",
"98 380 OFFCURVE",
"99 381 CURVE",
"106 386 OFFCURVE",
"114 392 OFFCURVE",
"123 397 CURVE",
"131 402 OFFCURVE",
"139 408 OFFCURVE",
"146 413 CURVE SMOOTH",
"197 452 LINE SMOOTH",
"208 461 OFFCURVE",
"219 471 OFFCURVE",
"230 482 CURVE SMOOTH",
"241 493 LINE",
"249 500 OFFCURVE",
"257 508 OFFCURVE",
"268 520 CURVE",
"273 526 OFFCURVE",
"279 532 OFFCURVE",
"285 537 CURVE SMOOTH",
"304 553 OFFCURVE",
"317 571 OFFCURVE",
"332 590 CURVE SMOOTH",
"355 621 OFFCURVE",
"379 653 OFFCURVE",
"394 689 CURVE SMOOTH",
"399 702 OFFCURVE",
"405 716 OFFCURVE",
"412 729 CURVE",
"418 742 OFFCURVE",
"422 755 OFFCURVE",
"425 770 CURVE SMOOTH",
"430 799 OFFCURVE",
"436 827 OFFCURVE",
"423 856 CURVE SMOOTH",
"420 863 OFFCURVE",
"417 870 OFFCURVE",
"416 877 CURVE",
"412 892 OFFCURVE",
"409 910 OFFCURVE",
"390 925 CURVE",
"387 927 LINE",
"386 928 OFFCURVE",
"385 928 OFFCURVE",
"384 928 CURVE SMOOTH",
"376 928 OFFCURVE",
"372 932 OFFCURVE",
"367 937 CURVE SMOOTH",
"362 942 OFFCURVE",
"357 945 OFFCURVE",
"351 947 CURVE",
"344 948 OFFCURVE",
"339 952 OFFCURVE",
"336 957 CURVE",
"332 957 LINE",
"321 958 OFFCURVE",
"312 961 OFFCURVE",
"304 964 CURVE",
"301 965 OFFCURVE",
"299 966 OFFCURVE",
"296 966 CURVE",
"293 965 OFFCURVE",
"290 965 OFFCURVE",
"287 965 CURVE SMOOTH",
"280 965 LINE",
"277 964 OFFCURVE",
"275 964 OFFCURVE",
"272 965 CURVE",
"248 966 OFFCURVE",
"224 954 OFFCURVE",
"202 937 CURVE SMOOTH",
"180 920 OFFCURVE",
"159 897 OFFCURVE",
"146 880 CURVE SMOOTH",
"131 860 OFFCURVE",
"118 838 OFFCURVE",
"105 815 CURVE",
"86 786 OFFCURVE",
"68 757 OFFCURVE",
"56 722 CURVE SMOOTH",
"33 661 OFFCURVE",
"21 596 OFFCURVE",
"12 530 CURVE SMOOTH",
"3 464 OFFCURVE",
"-2 396 OFFCURVE",
"-6 332 CURVE SMOOTH",
"-9 295 OFFCURVE",
"-12 257 OFFCURVE",
"-16 218 CURVE SMOOTH",
"-24 141 OFFCURVE",
"-13 82 OFFCURVE",
"-7 35 CURVE SMOOTH",
"-4 11 OFFCURVE",
"-5 -12 OFFCURVE",
"-8 -35 CURVE",
"-11 -52 OFFCURVE",
"-9 -68 OFFCURVE",
"10 -75 CURVE SMOOTH",
"25 -80 OFFCURVE",
"38 -74 OFFCURVE",
"45 -59 CURVE",
"47 -56 OFFCURVE",
"49 -52 OFFCURVE",
"50 -49 CURVE SMOOTH",
"51 -46 OFFCURVE",
"53 -44 OFFCURVE",
"56 -41 CURVE",
"64 -32 OFFCURVE",
"65 -21 OFFCURVE",
"65 -9 CURVE",
"66 -5 OFFCURVE",
"66 -1 OFFCURVE",
"67 4 CURVE",
"67 8 OFFCURVE",
"68 12 OFFCURVE",
"70 15 CURVE",
"78 26 OFFCURVE",
"78 38 OFFCURVE",
"78 50 CURVE",
"77 70 OFFCURVE",
"80 89 OFFCURVE",
"84 109 CURVE",
"92 110 OFFCURVE",
"101 104 OFFCURVE",
"109 97 CURVE",
"117 89 OFFCURVE",
"123 79 OFFCURVE",
"126 74 CURVE",
"126 73 OFFCURVE",
"126 73 OFFCURVE",
"127 73 CURVE",
"127 70 LINE",
"130 60 OFFCURVE",
"133 50 OFFCURVE",
"136 40 CURVE SMOOTH",
"145 9 LINE SMOOTH",
"154 -24 OFFCURVE",
"166 -69 OFFCURVE",
"187 -102 CURVE SMOOTH",
"208 -135 OFFCURVE",
"237 -157 OFFCURVE",
"284 -148 CURVE",
"291 -147 OFFCURVE",
"299 -145 OFFCURVE",
"307 -142 CURVE",
"329 -136 LINE SMOOTH",
"340 -133 OFFCURVE",
"347 -126 OFFCURVE",
"355 -119 CURVE SMOOTH",
"373 -103 OFFCURVE",
"385 -85 OFFCURVE",
"392 -64 CURVE SMOOTH",
"395 -55 OFFCURVE",
"398 -45 OFFCURVE",
"401 -35 CURVE SMOOTH",
"410 -5 LINE SMOOTH",
"429 56 OFFCURVE",
"447 116 OFFCURVE",
"462 179 CURVE SMOOTH",
"466 196 OFFCURVE",
"471 213 OFFCURVE",
"476 230 CURVE SMOOTH",
"491 280 LINE SMOOTH",
"492 283 OFFCURVE",
"493 287 OFFCURVE",
"494 291 CURVE SMOOTH",
"497 303 LINE",
"492 303 OFFCURVE",
"490 303 OFFCURVE",
"489 302 CURVE SMOOTH",
"488 301 OFFCURVE",
"486 301 OFFCURVE",
"482 302 CURVE"
);
},
{
closed = 1;
nodes = (
"120 582 OFFCURVE",
"128 624 OFFCURVE",
"139 665 CURVE SMOOTH",
"146 692 OFFCURVE",
"165 746 OFFCURVE",
"188 798 CURVE SMOOTH",
"211 849 OFFCURVE",
"234 894 OFFCURVE",
"249 905 CURVE",
"254 908 OFFCURVE",
"260 912 OFFCURVE",
"265 916 CURVE",
"280 926 LINE",
"282 928 LINE",
"289 928 OFFCURVE",
"295 929 OFFCURVE",
"301 930 CURVE SMOOTH",
"307 931 OFFCURVE",
"313 928 OFFCURVE",
"318 923 CURVE SMOOTH",
"321 920 OFFCURVE",
"325 917 OFFCURVE",
"330 914 CURVE",
"342 906 LINE",
"354 899 OFFCURVE",
"360 887 OFFCURVE",
"367 875 CURVE SMOOTH",
"382 848 OFFCURVE",
"380 820 OFFCURVE",
"375 792 CURVE SMOOTH",
"370 767 OFFCURVE",
"363 744 OFFCURVE",
"355 721 CURVE SMOOTH",
"338 676 OFFCURVE",
"312 642 OFFCURVE",
"294 615 CURVE SMOOTH",
"266 575 LINE",
"263 570 OFFCURVE",
"259 565 OFFCURVE",
"255 561 CURVE SMOOTH",
"250 556 OFFCURVE",
"246 552 OFFCURVE",
"242 547 CURVE",
"221 524 OFFCURVE",
"200 503 OFFCURVE",
"180 480 CURVE SMOOTH",
"163 461 OFFCURVE",
"143 446 OFFCURVE",
"123 431 CURVE SMOOTH",
"119 428 OFFCURVE",
"115 425 OFFCURVE",
"112 422 CURVE",
"108 419 OFFCURVE",
"103 416 OFFCURVE",
"98 412 CURVE",
"98 422 LINE",
"97 424 OFFCURVE",
"97 426 OFFCURVE",
"97 429 CURVE",
"96 448 OFFCURVE",
"97 467 OFFCURVE",
"101 486 CURVE SMOOTH",
"105 504 OFFCURVE",
"109 522 OFFCURVE",
"112 541 CURVE"
);
},
{
closed = 1;
nodes = (
"114 178 LINE SMOOTH",
"105 171 OFFCURVE",
"97 163 OFFCURVE",
"88 156 CURVE",
"87 155 OFFCURVE",
"86 155 OFFCURVE",
"83 154 CURVE",
"83 175 OFFCURVE",
"82 194 OFFCURVE",
"93 213 CURVE",
"105 236 OFFCURVE",
"114 257 OFFCURVE",
"133 276 CURVE",
"146 291 OFFCURVE",
"159 302 OFFCURVE",
"174 314 CURVE",
"176 315 OFFCURVE",
"178 317 OFFCURVE",
"180 318 CURVE",
"188 323 LINE",
"187 316 OFFCURVE",
"187 311 OFFCURVE",
"187 306 CURVE SMOOTH",
"187 301 OFFCURVE",
"187 296 OFFCURVE",
"186 291 CURVE",
"185 282 OFFCURVE",
"183 274 OFFCURVE",
"180 266 CURVE",
"173 239 OFFCURVE",
"161 218 OFFCURVE",
"140 199 CURVE"
);
}
);
width = 481;
}
);
note = k;
unicode = 006B;
},
{
glyphname = l;
layers = (
{
hints = (
{
horizontal = 1;
place = "{-83.5, 61.5}";
type = Stem;
},
{
horizontal = 1;
place = "{810, 36}";
type = Stem;
},
{
place = "{-33, 94}";
type = Stem;
},
{
place = "{289, 52.45}";
type = Stem;
},
{
place = "{-25, 101}";
type = Stem;
}
);
layerId = "54D2F088-3B12-48DB-A05E-ED165257FC93";
paths = (
{
closed = 1;
nodes = (
"301 306 OFFCURVE",
"300 306 OFFCURVE",
"299 306 CURVE",
"296 303 OFFCURVE",
"292 300 OFFCURVE",
"288 298 CURVE",
"283 295 OFFCURVE",
"280 291 OFFCURVE",
"278 286 CURVE",
"277 282 OFFCURVE",
"275 278 OFFCURVE",
"274 274 CURVE",
"272 270 OFFCURVE",
"270 266 OFFCURVE",
"269 263 CURVE",
"234 191 OFFCURVE",
"200 120 OFFCURVE",
"163 49 CURVE SMOOTH",
"150 24 LINE SMOOTH",
"146 16 OFFCURVE",
"141 8 OFFCURVE",
"136 0 CURVE",
"133 -4 OFFCURVE",
"130 -7 OFFCURVE",
"127 -10 CURVE",
"123 -13 OFFCURVE",
"119 -17 OFFCURVE",
"116 -20 CURVE SMOOTH",
"115 -21 OFFCURVE",
"113 -22 OFFCURVE",
"111 -22 CURVE SMOOTH",
"109 -22 OFFCURVE",
"107 -22 OFFCURVE",
"106 -21 CURVE",
"91 -12 OFFCURVE",
"81 0 OFFCURVE",
"74 14 CURVE",
"71 21 OFFCURVE",
"69 26 OFFCURVE",
"68 33 CURVE",
"67 54 OFFCURVE",
"66 76 OFFCURVE",
"66 97 CURVE SMOOTH",
"66 118 OFFCURVE",
"64 140 OFFCURVE",
"61 161 CURVE SMOOTH",
"58 180 OFFCURVE",
"61 201 OFFCURVE",
"64 220 CURVE",
"65 231 OFFCURVE",
"67 243 OFFCURVE",
"68 254 CURVE SMOOTH",
"71 288 LINE",
"71 301 OFFCURVE",
"82 305 OFFCURVE",
"90 310 CURVE",
"98 314 OFFCURVE",
"107 322 OFFCURVE",
"119 331 CURVE",
"130 340 OFFCURVE",
"140 350 OFFCURVE",
"148 359 CURVE",
"152 363 OFFCURVE",
"156 367 OFFCURVE",
"161 371 CURVE",
"178 386 OFFCURVE",
"194 402 OFFCURVE",
"206 421 CURVE",
"219 440 OFFCURVE",
"232 458 OFFCURVE",
"243 477 CURVE SMOOTH",
"247 484 OFFCURVE",
"251 491 OFFCURVE",
"256 498 CURVE SMOOTH",
"265 510 OFFCURVE",
"272 524 OFFCURVE",
"276 537 CURVE SMOOTH",
"278 544 OFFCURVE",
"281 550 OFFCURVE",
"284 556 CURVE",
"303 588 OFFCURVE",
"314 620 OFFCURVE",
"325 655 CURVE SMOOTH",
"337 690 OFFCURVE",
"346 727 OFFCURVE",
"339 764 CURVE SMOOTH",
"338 769 OFFCURVE",
"336 775 OFFCURVE",
"334 780 CURVE SMOOTH",
"332 785 OFFCURVE",
"330 791 OFFCURVE",
"329 796 CURVE SMOOTH",
"328 802 OFFCURVE",
"325 807 OFFCURVE",
"322 811 CURVE SMOOTH",
"319 815 OFFCURVE",
"316 820 OFFCURVE",
"315 825 CURVE",
"314 826 OFFCURVE",
"309 829 OFFCURVE",
"307 830 CURVE",
"306 830 OFFCURVE",
"304 831 OFFCURVE",
"303 832 CURVE",
"296 841 OFFCURVE",
"286 845 OFFCURVE",
"273 844 CURVE",
"270 844 OFFCURVE",
"267 845 OFFCURVE",
"264 846 CURVE SMOOTH",
"261 847 OFFCURVE",
"257 847 OFFCURVE",
"254 846 CURVE",
"207 843 OFFCURVE",
"174 826 OFFCURVE",
"135 799 CURVE SMOOTH",
"108 780 OFFCURVE",
"95 750 OFFCURVE",
"82 722 CURVE SMOOTH",
"67 687 OFFCURVE",
"55 652 OFFCURVE",
"43 617 CURVE SMOOTH",
"36 598 OFFCURVE",
"30 579 OFFCURVE",
"23 560 CURVE SMOOTH",
"16 541 OFFCURVE",
"11 522 OFFCURVE",
"9 502 CURVE SMOOTH",
"7 481 OFFCURVE",
"4 460 OFFCURVE",
"-1 440 CURVE SMOOTH",
"-11 400 OFFCURVE",
"-23 360 OFFCURVE",
"-25 321 CURVE SMOOTH",
"-26 302 OFFCURVE",
"-28 282 OFFCURVE",
"-29 263 CURVE SMOOTH",
"-30 238 OFFCURVE",
"-32 214 OFFCURVE",
"-33 190 CURVE SMOOTH",
"-34 166 OFFCURVE",
"-34 142 OFFCURVE",
"-32 117 CURVE",
"-29 93 LINE SMOOTH",
"-28 85 OFFCURVE",
"-26 77 OFFCURVE",
"-25 68 CURVE",
"-19 33 LINE",
"-18 21 OFFCURVE",
"-15 9 OFFCURVE",
"-12 -3 CURVE",
"-1 -38 OFFCURVE",
"8 -63 OFFCURVE",
"39 -80 CURVE",
"54 -87 OFFCURVE",
"70 -84 OFFCURVE",
"90 -75 CURVE SMOOTH",
"109 -66 OFFCURVE",
"123 -52 OFFCURVE",
"131 -43 CURVE SMOOTH",
"139 -34 OFFCURVE",
"147 -25 OFFCURVE",
"151 -17 CURVE",
"157 -7 LINE",
"168 9 OFFCURVE",
"178 25 OFFCURVE",
"186 42 CURVE SMOOTH",
"202 75 OFFCURVE",
"217 104 OFFCURVE",
"230 124 CURVE SMOOTH",
"243 143 OFFCURVE",
"254 167 OFFCURVE",
"266 192 CURVE",
"271 205 OFFCURVE",
"277 217 OFFCURVE",
"283 230 CURVE",
"291 245 OFFCURVE",
"296 260 OFFCURVE",
"299 277 CURVE SMOOTH",
"300 282 OFFCURVE",
"301 286 OFFCURVE",
"301 291 CURVE SMOOTH",
"301 296 OFFCURVE",
"301 300 OFFCURVE",
"302 305 CURVE"
);
},
{
closed = 1;
nodes = (
"76 345 LINE",
"76 357 OFFCURVE",
"80 367 OFFCURVE",
"85 378 CURVE",
"89 389 OFFCURVE",
"92 402 OFFCURVE",
"94 415 CURVE SMOOTH",
"95 422 OFFCURVE",
"96 428 OFFCURVE",
"97 435 CURVE SMOOTH",
"103 481 LINE",
"104 496 OFFCURVE",
"107 512 OFFCURVE",
"110 527 CURVE SMOOTH",
"117 558 OFFCURVE",
"126 587 OFFCURVE",
"135 618 CURVE SMOOTH",
"150 665 OFFCURVE",
"163 712 OFFCURVE",
"190 755 CURVE",
"194 762 OFFCURVE",
"198 769 OFFCURVE",
"203 776 CURVE",
"207 783 OFFCURVE",
"211 790 OFFCURVE",
"216 797 CURVE SMOOTH",
"219 801 OFFCURVE",
"228 818 OFFCURVE",
"244 810 CURVE SMOOTH",
"246 809 OFFCURVE",
"248 808 OFFCURVE",
"251 807 CURVE",
"257 804 LINE",
"261 801 OFFCURVE",
"266 798 OFFCURVE",
"267 791 CURVE",
"267 788 OFFCURVE",
"268 785 OFFCURVE",
"271 782 CURVE SMOOTH",
"276 777 OFFCURVE",
"280 771 OFFCURVE",
"281 762 CURVE",
"282 757 OFFCURVE",
"284 753 OFFCURVE",
"285 748 CURVE SMOOTH",
"286 743 OFFCURVE",
"288 738 OFFCURVE",
"289 733 CURVE SMOOTH",
"292 718 OFFCURVE",
"291 702 OFFCURVE",
"288 687 CURVE SMOOTH",
"287 681 OFFCURVE",
"286 675 OFFCURVE",
"285 669 CURVE SMOOTH",
"282 650 LINE",
"279 640 OFFCURVE",
"276 629 OFFCURVE",
"271 616 CURVE",
"268 605 OFFCURVE",
"264 594 OFFCURVE",
"261 583 CURVE",
"253 561 OFFCURVE",
"244 541 OFFCURVE",
"235 523 CURVE",
"230 514 OFFCURVE",
"226 504 OFFCURVE",
"221 495 CURVE",
"206 464 OFFCURVE",
"186 437 OFFCURVE",
"166 410 CURVE SMOOTH",
"147 385 OFFCURVE",
"123 362 OFFCURVE",
"96 341 CURVE",
"93 338 OFFCURVE",
"89 336 OFFCURVE",
"86 334 CURVE SMOOTH",
"83 332 OFFCURVE",
"79 330 OFFCURVE",
"76 327 CURVE",
"75 328 OFFCURVE",
"74 328 OFFCURVE",
"73 328 CURVE"
);
}
);
width = 288;
}
);
note = l;
unicode = 006C;
},
{
glyphname = m;
layers = (
{
hints = (
{
horizontal = 1;
place = "{-86.27, 614.27}";
type = Stem;
},
{
place = "{22, 57}";
type = Stem;
},
{
place = "{189.5, 67.5}";
type = Stem;
},
{
place = "{438, 76.82}";
type = Stem;
},
{
horizontal = 1;
place = "{484, 43}";
type = Stem;
},
{
place = "{257.5, 71.5}";
type = Stem;
},
{
horizontal = 1;
place = "{71, 9}";
type = Stem;
}
);
layerId = "54D2F088-3B12-48DB-A05E-ED165257FC93";
paths = (
{
closed = 1;
nodes = (
"672 60 OFFCURVE",
"675 68 OFFCURVE",
"677 76 CURVE SMOOTH",
"679 84 OFFCURVE",
"683 92 OFFCURVE",
"688 99 CURVE",
"695 108 OFFCURVE",
"699 118 OFFCURVE",
"702 129 CURVE",
"704 140 OFFCURVE",
"708 150 OFFCURVE",
"713 159 CURVE",
"720 170 OFFCURVE",
"727 182 OFFCURVE",
"732 194 CURVE SMOOTH",
"737 206 OFFCURVE",
"743 218 OFFCURVE",
"749 230 CURVE",
"752 235 OFFCURVE",
"755 239 OFFCURVE",
"759 244 CURVE SMOOTH",
"762 248 OFFCURVE",
"765 253 OFFCURVE",
"768 258 CURVE",
"769 261 OFFCURVE",
"771 264 OFFCURVE",
"772 266 CURVE",
"777 274 LINE",
"781 281 OFFCURVE",
"785 289 OFFCURVE",
"786 297 CURVE",
"784 298 OFFCURVE",
"782 299 OFFCURVE",
"781 299 CURVE SMOOTH",
"775 299 LINE SMOOTH",
"771 299 OFFCURVE",
"768 300 OFFCURVE",
"764 301 CURVE",
"757 297 OFFCURVE",
"753 293 OFFCURVE",
"750 286 CURVE",
"749 283 OFFCURVE",
"747 280 OFFCURVE",
"745 278 CURVE",
"740 269 OFFCURVE",
"735 261 OFFCURVE",
"730 253 CURVE SMOOTH",
"725 245 OFFCURVE",
"719 237 OFFCURVE",
"714 228 CURVE SMOOTH",
"702 207 OFFCURVE",
"691 185 OFFCURVE",
"682 163 CURVE",
"672 141 OFFCURVE",
"660 120 OFFCURVE",
"646 99 CURVE SMOOTH",
"635 82 OFFCURVE",
"625 65 OFFCURVE",
"617 47 CURVE SMOOTH",
"609 29 OFFCURVE",
"599 12 OFFCURVE",
"588 -5 CURVE SMOOTH",
"584 -11 LINE SMOOTH",
"582 -14 OFFCURVE",
"580 -16 OFFCURVE",
"579 -19 CURVE",
"574 -28 OFFCURVE",
"566 -37 OFFCURVE",
"557 -46 CURVE SMOOTH",
"554 -49 OFFCURVE",
"545 -56 OFFCURVE",
"540 -52 CURVE",
"517 -37 OFFCURVE",
"510 -4 OFFCURVE",
"518 21 CURVE",
"519 26 OFFCURVE",
"520 31 OFFCURVE",
"520 36 CURVE",
"519 41 OFFCURVE",
"519 46 OFFCURVE",
"519 51 CURVE",
"520 76 OFFCURVE",
"523 102 OFFCURVE",
"529 128 CURVE SMOOTH",
"535 154 OFFCURVE",
"540 180 OFFCURVE",
"545 205 CURVE SMOOTH",
"548 218 OFFCURVE",
"550 232 OFFCURVE",
"553 245 CURVE",
"558 272 OFFCURVE",
"568 298 OFFCURVE",
"581 322 CURVE SMOOTH",
"593 345 OFFCURVE",
"603 368 OFFCURVE",
"610 391 CURVE",
"613 407 LINE",
"613 412 OFFCURVE",
"614 417 OFFCURVE",
"616 422 CURVE SMOOTH",
"619 429 OFFCURVE",
"622 436 OFFCURVE",
"619 444 CURVE",
"619 447 OFFCURVE",
"619 450 OFFCURVE",
"620 451 CURVE",
"620 452 OFFCURVE",
"620 453 OFFCURVE",
"621 454 CURVE",
"621 455 OFFCURVE",
"621 456 OFFCURVE",
"620 457 CURVE",
"617 463 OFFCURVE",
"617 470 OFFCURVE",
"620 479 CURVE",
"621 489 OFFCURVE",
"618 498 OFFCURVE",
"612 505 CURVE",
"610 508 OFFCURVE",
"607 510 OFFCURVE",
"604 511 CURVE",
"600 512 OFFCURVE",
"596 514 OFFCURVE",
"593 516 CURVE",
"589 517 OFFCURVE",
"585 519 OFFCURVE",
"582 520 CURVE",
"573 524 OFFCURVE",
"559 526 OFFCURVE",
"548 527 CURVE",
"542 527 OFFCURVE",
"536 527 OFFCURVE",
"531 528 CURVE SMOOTH",
"526 529 OFFCURVE",
"521 528 OFFCURVE",
"517 525 CURVE",
"511 522 LINE SMOOTH",
"509 521 OFFCURVE",
"507 519 OFFCURVE",
"504 518 CURVE",
"481 507 OFFCURVE",
"464 488 OFFCURVE",
"453 476 CURVE",
"447 470 OFFCURVE",
"441 464 OFFCURVE",
"435 459 CURVE",
"420 444 OFFCURVE",
"408 429 OFFCURVE",
"399 413 CURVE",
"396 409 LINE",
"395 407 OFFCURVE",
"394 405 OFFCURVE",
"393 404 CURVE",
"386 395 OFFCURVE",
"379 386 OFFCURVE",
"373 377 CURVE SMOOTH",
"367 368 OFFCURVE",
"360 359 OFFCURVE",
"353 350 CURVE",
"350 347 OFFCURVE",
"349 345 OFFCURVE",
"348 342 CURVE",
"342 333 OFFCURVE",
"336 323 OFFCURVE",
"331 313 CURVE",
"325 303 OFFCURVE",
"319 293 OFFCURVE",
"313 284 CURVE",
"312 282 OFFCURVE",
"310 281 OFFCURVE",
"308 281 CURVE",
"309 284 OFFCURVE",
"311 294 OFFCURVE",
"311 297 CURVE",
"312 304 OFFCURVE",
"314 308 OFFCURVE",
"316 311 CURVE",
"317 312 OFFCURVE",
"318 314 OFFCURVE",
"318 316 CURVE",
"321 330 LINE",
"321 335 OFFCURVE",
"322 340 OFFCURVE",
"323 345 CURVE SMOOTH",
"326 358 OFFCURVE",
"327 370 OFFCURVE",
"328 385 CURVE",
"331 397 OFFCURVE",
"332 409 OFFCURVE",
"329 421 CURVE",
"329 424 OFFCURVE",
"329 426 OFFCURVE",
"328 428 CURVE SMOOTH",
"327 430 OFFCURVE",
"326 432 OFFCURVE",
"326 435 CURVE",
"325 438 OFFCURVE",
"325 443 OFFCURVE",
"325 449 CURVE",
"321 452 OFFCURVE",
"318 454 OFFCURVE",
"315 455 CURVE",
"307 460 OFFCURVE",
"299 464 OFFCURVE",
"291 468 CURVE",
"286 471 OFFCURVE",
"282 472 OFFCURVE",
"278 471 CURVE",
"273 470 OFFCURVE",
"269 469 OFFCURVE",
"264 470 CURVE",
"259 470 LINE SMOOTH",
"254 470 OFFCURVE",
"249 469 OFFCURVE",
"246 466 CURVE SMOOTH",
"241 461 OFFCURVE",
"235 458 OFFCURVE",
"229 455 CURVE",
"218 447 OFFCURVE",
"209 440 OFFCURVE",
"201 431 CURVE SMOOTH",
"174 401 LINE",
"172 399 OFFCURVE",
"170 396 OFFCURVE",
"167 392 CURVE",
"161 382 LINE",
"156 375 OFFCURVE",
"151 369 OFFCURVE",
"147 362 CURVE",
"145 358 OFFCURVE",
"143 354 OFFCURVE",
"141 351 CURVE",
"130 331 OFFCURVE",
"120 313 OFFCURVE",
"108 294 CURVE SMOOTH",
"105 289 OFFCURVE",
"102 285 OFFCURVE",
"100 280 CURVE",
"91 265 LINE SMOOTH",
"88 260 OFFCURVE",
"85 254 OFFCURVE",
"83 249 CURVE",
"80 244 OFFCURVE",
"78 238 OFFCURVE",
"75 233 CURVE",
"74 232 LINE",
"73 232 OFFCURVE",
"72 231 OFFCURVE",
"71 230 CURVE",
"71 233 OFFCURVE",
"71 236 OFFCURVE",
"72 239 CURVE",
"72 248 LINE SMOOTH",
"72 254 OFFCURVE",
"73 258 OFFCURVE",
"74 261 CURVE",
"75 266 OFFCURVE",
"76 270 OFFCURVE",
"76 272 CURVE",
"77 285 OFFCURVE",
"77 297 OFFCURVE",
"78 310 CURVE",
"78 322 OFFCURVE",
"79 334 OFFCURVE",
"80 346 CURVE SMOOTH",
"83 378 LINE",
"83 389 OFFCURVE",
"84 399 OFFCURVE",
"87 410 CURVE",
"90 425 OFFCURVE",
"96 442 OFFCURVE",
"85 454 CURVE",
"81 460 OFFCURVE",
"79 466 OFFCURVE",
"79 473 CURVE SMOOTH",
"79 491 LINE SMOOTH",
"79 495 OFFCURVE",
"77 498 OFFCURVE",
"74 500 CURVE",
"70 501 OFFCURVE",
"67 503 OFFCURVE",
"65 506 CURVE",
"61 511 OFFCURVE",
"55 514 OFFCURVE",
"47 515 CURVE",
"45 515 OFFCURVE",
"43 515 OFFCURVE",
"42 516 CURVE",
"36 516 LINE",
"29 517 OFFCURVE",
"22 518 OFFCURVE",
"22 510 CURVE SMOOTH",
"22 498 LINE SMOOTH",
"22 494 OFFCURVE",
"22 490 OFFCURVE",
"21 486 CURVE SMOOTH",
"18 473 OFFCURVE",
"16 459 OFFCURVE",
"13 446 CURVE SMOOTH",
"4 405 LINE SMOOTH",
"1 393 OFFCURVE",
"-1 381 OFFCURVE",
"-2 369 CURVE",
"-3 344 OFFCURVE",
"-8 315 OFFCURVE",
"-14 281 CURVE SMOOTH",
"-17 264 OFFCURVE",
"-20 246 OFFCURVE",
"-22 229 CURVE",
"-23 224 OFFCURVE",
"-23 219 OFFCURVE",
"-23 214 CURVE",
"-24 209 OFFCURVE",
"-24 205 OFFCURVE",
"-25 200 CURVE",
"-25 168 LINE",
"-26 157 OFFCURVE",
"-26 146 OFFCURVE",
"-26 135 CURVE SMOOTH",
"-26 111 LINE",
"-25 100 OFFCURVE",
"-20 89 OFFCURVE",
"-5 88 CURVE",
"-3 88 LINE SMOOTH",
"1 88 OFFCURVE",
"4 87 OFFCURVE",
"7 84 CURVE SMOOTH",
"10 81 OFFCURVE",
"14 79 OFFCURVE",
"17 79 CURVE",
"18 78 OFFCURVE",
"20 78 OFFCURVE",
"21 78 CURVE",
"24 76 LINE",
"28 73 OFFCURVE",
"32 73 OFFCURVE",
"36 76 CURVE",
"43 80 OFFCURVE",
"49 84 OFFCURVE",
"54 91 CURVE",
"58 96 OFFCURVE",
"63 101 OFFCURVE",
"68 105 CURVE",
"73 110 OFFCURVE",
"77 115 OFFCURVE",
"80 122 CURVE",
"81 125 OFFCURVE",
"83 129 OFFCURVE",
"85 132 CURVE SMOOTH",
"87 135 OFFCURVE",
"89 138 OFFCURVE",
"90 141 CURVE",
"93 146 OFFCURVE",
"95 152 OFFCURVE",
"98 157 CURVE SMOOTH",
"101 162 OFFCURVE",
"102 167 OFFCURVE",
"102 174 CURVE SMOOTH",
"102 175 OFFCURVE",
"102 177 OFFCURVE",
"103 179 CURVE SMOOTH",
"104 181 OFFCURVE",
"104 183 OFFCURVE",
"105 185 CURVE",
"112 202 OFFCURVE",
"118 219 OFFCURVE",
"127 235 CURVE SMOOTH",
"133 246 OFFCURVE",
"138 257 OFFCURVE",
"143 268 CURVE",
"147 279 OFFCURVE",
"152 290 OFFCURVE",
"157 301 CURVE SMOOTH",
"168 324 OFFCURVE",
"181 343 OFFCURVE",
"196 363 CURVE",
"202 370 OFFCURVE",
"208 380 OFFCURVE",
"215 392 CURVE SMOOTH",
"221 403 OFFCURVE",
"228 412 OFFCURVE",
"237 417 CURVE SMOOTH",
"242 420 OFFCURVE",
"245 423 OFFCURVE",
"247 428 CURVE",
"250 432 OFFCURVE",
"252 435 OFFCURVE",
"254 437 CURVE",
"254 436 OFFCURVE",
"255 437 OFFCURVE",
"257 439 CURVE",
"258 436 OFFCURVE",
"259 433 OFFCURVE",
"258 430 CURVE SMOOTH",
"257 427 OFFCURVE",
"257 424 OFFCURVE",
"256 421 CURVE",
"253 402 OFFCURVE",
"249 382 OFFCURVE",
"242 363 CURVE",
"241 362 OFFCURVE",
"241 361 OFFCURVE",
"241 360 CURVE SMOOTH",
"241 359 OFFCURVE",
"241 358 OFFCURVE",
"240 357 CURVE",
"235 337 OFFCURVE",
"229 317 OFFCURVE",
"223 298 CURVE SMOOTH",
"205 238 LINE",
"202 231 OFFCURVE",
"200 224 OFFCURVE",
"199 217 CURVE",
"196 204 OFFCURVE",
"193 191 OFFCURVE",
"192 179 CURVE",
"188 154 OFFCURVE",
"188 125 OFFCURVE",
"196 100 CURVE",
"201 91 OFFCURVE",
"206 85 OFFCURVE",
"212 82 CURVE",
"215 81 OFFCURVE",
"217 79 OFFCURVE",
"219 78 CURVE",
"225 74 LINE",
"228 71 OFFCURVE",
"231 70 OFFCURVE",
"235 71 CURVE",
"237 71 OFFCURVE",
"239 71 OFFCURVE",
"241 70 CURVE",
"240 73 OFFCURVE",
"240 75 OFFCURVE",
"240 76 CURVE SMOOTH",
"240 77 OFFCURVE",
"240 79 OFFCURVE",
"239 80 CURVE",
"242 83 OFFCURVE",
"246 85 OFFCURVE",
"249 84 CURVE SMOOTH",
"252 83 OFFCURVE",
"254 83 OFFCURVE",
"257 84 CURVE",
"257 94 LINE SMOOTH",
"257 96 OFFCURVE",
"257 98 OFFCURVE",
"258 100 CURVE SMOOTH",
"259 102 OFFCURVE",
"259 104 OFFCURVE",
"260 107 CURVE",
"260 111 OFFCURVE",
"261 116 OFFCURVE",
"262 121 CURVE",
"265 129 OFFCURVE",
"269 136 OFFCURVE",
"273 143 CURVE",
"274 146 OFFCURVE",
"276 148 OFFCURVE",
"277 151 CURVE",
"280 158 OFFCURVE",
"283 165 OFFCURVE",
"287 172 CURVE",
"290 179 OFFCURVE",
"294 186 OFFCURVE",
"297 193 CURVE",
"298 196 OFFCURVE",
"300 198 OFFCURVE",
"301 199 CURVE",
"311 214 OFFCURVE",
"320 230 OFFCURVE",
"329 246 CURVE SMOOTH",
"356 292 LINE",
"371 321 OFFCURVE",
"385 351 OFFCURVE",
"410 374 CURVE SMOOTH",
"429 391 OFFCURVE",
"448 410 OFFCURVE",
"465 429 CURVE SMOOTH",
"482 448 OFFCURVE",
"501 465 OFFCURVE",
"522 482 CURVE",
"523 483 OFFCURVE",
"530 485 OFFCURVE",
"533 484 CURVE",
"531 477 OFFCURVE",
"529 469 OFFCURVE",
"528 462 CURVE SMOOTH",
"527 455 OFFCURVE",
"525 447 OFFCURVE",
"522 440 CURVE SMOOTH",
"518 431 OFFCURVE",
"514 421 OFFCURVE",
"511 412 CURVE",
"499 382 LINE SMOOTH",
"467 297 OFFCURVE",
"437 211 OFFCURVE",
"432 119 CURVE",
"431 109 OFFCURVE",
"431 99 OFFCURVE",
"432 89 CURVE",
"432 58 LINE",
"432 54 LINE",
"435 35 LINE",
"435 28 OFFCURVE",
"436 22 OFFCURVE",
"437 16 CURVE",
"438 13 OFFCURVE",
"438 10 OFFCURVE",
"438 7 CURVE SMOOTH",
"438 4 OFFCURVE",
"438 2 OFFCURVE",
"439 -1 CURVE SMOOTH",
"446 -22 OFFCURVE",
"453 -42 OFFCURVE",
"468 -59 CURVE",
"487 -79 OFFCURVE",
"515 -90 OFFCURVE",
"554 -86 CURVE",
"555 -86 OFFCURVE",
"556 -86 OFFCURVE",
"557 -85 CURVE",
"559 -85 LINE",
"568 -82 OFFCURVE",
"576 -77 OFFCURVE",
"583 -70 CURVE SMOOTH",
"589 -64 OFFCURVE",
"596 -58 OFFCURVE",
"603 -53 CURVE SMOOTH",
"618 -42 OFFCURVE",
"625 -32 OFFCURVE",
"632 -17 CURVE SMOOTH",
"639 -1 OFFCURVE",
"647 14 OFFCURVE",
"658 29 CURVE SMOOTH",
"663 36 OFFCURVE",
"666 44 OFFCURVE",
"669 52 CURVE SMOOTH"
);
}
);
width = 751;
}
);
note = m;
unicode = 006D;
},
{
glyphname = n;
layers = (
{
hints = (
{
horizontal = 1;
place = "{-45.31, 44.31}";
type = Stem;
},
{
place = "{-32, 96}";
type = Stem;
},
{
place = "{250, 96}";
type = Stem;
},
{
place = "{204, 88}";
type = Stem;
}
);
layerId = "54D2F088-3B12-48DB-A05E-ED165257FC93";
paths = (
{
closed = 1;
nodes = (
"344 329 OFFCURVE",
"345 339 OFFCURVE",
"346 348 CURVE SMOOTH",
"349 371 OFFCURVE",
"349 404 OFFCURVE",
"342 424 CURVE",
"339 431 OFFCURVE",
"338 434 OFFCURVE",
"339 441 CURVE",
"340 446 OFFCURVE",
"331 457 OFFCURVE",
"325 463 CURVE SMOOTH",
"319 469 OFFCURVE",
"309 480 OFFCURVE",
"294 479 CURVE",
"270 479 LINE",
"229 482 OFFCURVE",
"212 458 OFFCURVE",
"196 438 CURVE",
"186 423 LINE",
"178 413 OFFCURVE",
"172 402 OFFCURVE",
"166 392 CURVE SMOOTH",
"156 376 LINE",
"123 316 LINE",
"116 304 LINE SMOOTH",
"112 297 OFFCURVE",
"109 289 OFFCURVE",
"106 282 CURVE SMOOTH",
"100 268 LINE",
"97 263 OFFCURVE",
"96 259 OFFCURVE",
"93 254 CURVE SMOOTH",
"89 247 OFFCURVE",
"85 239 OFFCURVE",
"82 232 CURVE",
"78 224 OFFCURVE",
"74 216 OFFCURVE",
"70 209 CURVE",
"69 208 OFFCURVE",
"69 207 OFFCURVE",
"69 206 CURVE",
"68 205 OFFCURVE",
"67 204 OFFCURVE",
"65 204 CURVE",
"64 208 OFFCURVE",
"64 212 OFFCURVE",
"64 216 CURVE SMOOTH",
"64 227 LINE",
"65 236 OFFCURVE",
"65 245 OFFCURVE",
"64 254 CURVE",
"63 257 OFFCURVE",
"63 261 OFFCURVE",
"64 265 CURVE",
"65 268 OFFCURVE",
"65 272 OFFCURVE",
"65 275 CURVE SMOOTH",
"65 278 OFFCURVE",
"65 281 OFFCURVE",
"64 284 CURVE SMOOTH",
"63 287 OFFCURVE",
"62 290 OFFCURVE",
"62 293 CURVE",
"61 309 OFFCURVE",
"63 324 OFFCURVE",
"66 340 CURVE",
"69 360 LINE",
"69 366 OFFCURVE",
"69 373 OFFCURVE",
"70 380 CURVE",
"71 385 OFFCURVE",
"71 391 OFFCURVE",
"69 396 CURVE SMOOTH",
"65 406 OFFCURVE",
"61 417 OFFCURVE",
"62 430 CURVE",
"62 442 OFFCURVE",
"64 461 OFFCURVE",
"48 469 CURVE",
"46 471 LINE",
"45 473 OFFCURVE",
"45 475 OFFCURVE",
"44 478 CURVE",
"43 480 OFFCURVE",
"43 482 OFFCURVE",
"42 484 CURVE",
"36 488 LINE",
"33 489 OFFCURVE",
"31 491 OFFCURVE",
"30 494 CURVE",
"30 495 OFFCURVE",
"29 496 OFFCURVE",
"28 496 CURVE",
"17 501 OFFCURVE",
"5 503 OFFCURVE",
"-8 501 CURVE",
"-20 498 OFFCURVE",
"-20 489 OFFCURVE",
"-21 482 CURVE",
"-22 478 OFFCURVE",
"-22 474 OFFCURVE",
"-23 471 CURVE",
"-26 447 LINE SMOOTH",
"-27 438 OFFCURVE",
"-27 430 OFFCURVE",
"-28 422 CURVE",
"-29 408 OFFCURVE",
"-30 394 OFFCURVE",
"-31 380 CURVE SMOOTH",
"-34 339 LINE",
"-34 332 LINE",
"-33 329 OFFCURVE",
"-33 326 OFFCURVE",
"-33 324 CURVE SMOOTH",
"-33 321 OFFCURVE",
"-33 318 OFFCURVE",
"-33 315 CURVE SMOOTH",
"-33 290 LINE SMOOTH",
"-33 282 OFFCURVE",
"-33 274 OFFCURVE",
"-32 265 CURVE",
"-32 241 LINE",
"-32 223 LINE SMOOTH",
"-32 217 OFFCURVE",
"-32 211 OFFCURVE",
"-31 206 CURVE",
"-30 204 OFFCURVE",
"-30 201 OFFCURVE",
"-30 197 CURVE SMOOTH",
"-30 172 LINE SMOOTH",
"-30 163 OFFCURVE",
"-29 155 OFFCURVE",
"-28 146 CURVE",
"-27 145 OFFCURVE",
"-27 143 OFFCURVE",
"-27 142 CURVE",
"-28 140 OFFCURVE",
"-28 138 OFFCURVE",
"-28 137 CURVE",
"-27 135 OFFCURVE",
"-27 132 OFFCURVE",
"-27 127 CURVE SMOOTH",
"-27 116 OFFCURVE",
"-26 109 OFFCURVE",
"-25 98 CURVE",
"-24 96 OFFCURVE",
"-24 94 OFFCURVE",
"-24 92 CURVE SMOOTH",
"-24 90 OFFCURVE",
"-24 88 OFFCURVE",
"-23 86 CURVE",
"-18 74 OFFCURVE",
"-8 74 OFFCURVE",
"1 73 CURVE SMOOTH",
"10 72 OFFCURVE",
"20 77 OFFCURVE",
"26 81 CURVE",
"29 82 OFFCURVE",
"32 83 OFFCURVE",
"36 82 CURVE",
"37 82 OFFCURVE",
"38 83 OFFCURVE",
"40 85 CURVE",
"44 88 OFFCURVE",
"48 88 OFFCURVE",
"52 87 CURVE",
"60 86 OFFCURVE",
"63 95 OFFCURVE",
"67 103 CURVE",
"69 106 OFFCURVE",
"71 110 OFFCURVE",
"72 113 CURVE SMOOTH",
"73 116 OFFCURVE",
"74 118 OFFCURVE",
"74 119 CURVE",
"73 122 OFFCURVE",
"73 125 OFFCURVE",
"74 128 CURVE SMOOTH",
"75 131 OFFCURVE",
"77 134 OFFCURVE",
"78 137 CURVE SMOOTH",
"79 140 OFFCURVE",
"81 142 OFFCURVE",
"82 145 CURVE",
"85 150 OFFCURVE",
"87 159 OFFCURVE",
"89 168 CURVE SMOOTH",
"90 172 OFFCURVE",
"92 176 OFFCURVE",
"95 179 CURVE",
"96 179 OFFCURVE",
"96 179 OFFCURVE",
"96 180 CURVE",
"99 189 OFFCURVE",
"103 197 OFFCURVE",
"108 206 CURVE",
"113 214 OFFCURVE",
"117 222 OFFCURVE",
"121 231 CURVE",
"126 240 OFFCURVE",
"130 250 OFFCURVE",
"135 259 CURVE",
"144 277 OFFCURVE",
"158 295 OFFCURVE",
"171 312 CURVE SMOOTH",
"184 329 OFFCURVE",
"195 346 OFFCURVE",
"204 364 CURVE",
"209 373 OFFCURVE",
"215 379 OFFCURVE",
"222 384 CURVE",
"225 388 LINE",
"225 389 OFFCURVE",
"226 390 OFFCURVE",
"227 391 CURVE SMOOTH",
"228 392 OFFCURVE",
"229 394 OFFCURVE",
"230 396 CURVE",
"231 400 OFFCURVE",
"234 405 OFFCURVE",
"237 406 CURVE",
"240 409 OFFCURVE",
"245 411 OFFCURVE",
"250 413 CURVE",
"250 408 LINE SMOOTH",
"250 399 OFFCURVE",
"249 390 OFFCURVE",
"248 382 CURVE SMOOTH",
"247 373 OFFCURVE",
"245 364 OFFCURVE",
"244 355 CURVE",
"240 333 LINE",
"239 325 OFFCURVE",
"237 317 OFFCURVE",
"236 310 CURVE SMOOTH",
"235 301 OFFCURVE",
"233 291 OFFCURVE",
"232 281 CURVE",
"230 271 OFFCURVE",
"228 261 OFFCURVE",
"227 252 CURVE",
"223 230 LINE",
"222 222 OFFCURVE",
"220 214 OFFCURVE",
"219 207 CURVE",
"211 170 OFFCURVE",
"206 133 OFFCURVE",
"204 96 CURVE",
"204 70 LINE SMOOTH",
"204 47 OFFCURVE",
"206 25 OFFCURVE",
"210 3 CURVE SMOOTH",
"211 -2 OFFCURVE",
"212 -6 OFFCURVE",
"214 -10 CURVE",
"215 -14 OFFCURVE",
"217 -18 OFFCURVE",
"218 -22 CURVE",
"229 -46 OFFCURVE",
"261 -54 OFFCURVE",
"296 -34 CURVE SMOOTH",
"331 -15 OFFCURVE",
"352 13 OFFCURVE",
"368 45 CURVE SMOOTH",
"375 60 OFFCURVE",
"383 76 OFFCURVE",
"391 91 CURVE SMOOTH",
"398 104 OFFCURVE",
"405 118 OFFCURVE",
"412 132 CURVE SMOOTH",
"419 146 OFFCURVE",
"426 160 OFFCURVE",
"434 173 CURVE",
"441 182 OFFCURVE",
"445 191 OFFCURVE",
"450 202 CURVE",
"453 207 OFFCURVE",
"456 213 OFFCURVE",
"458 219 CURVE",
"459 225 OFFCURVE",
"461 231 OFFCURVE",
"464 237 CURVE",
"467 244 OFFCURVE",
"470 252 OFFCURVE",
"471 261 CURVE",
"471 266 LINE",
"472 269 OFFCURVE",
"472 273 OFFCURVE",
"473 276 CURVE",
"473 279 OFFCURVE",
"474 283 OFFCURVE",
"476 286 CURVE",
"477 288 OFFCURVE",
"478 290 OFFCURVE",
"479 292 CURVE SMOOTH",
"482 298 LINE",
"471 303 OFFCURVE",
"468 293 OFFCURVE",
"465 288 CURVE",
"463 285 OFFCURVE",
"461 282 OFFCURVE",
"460 279 CURVE SMOOTH",
"459 276 OFFCURVE",
"457 273 OFFCURVE",
"455 270 CURVE SMOOTH",
"453 267 OFFCURVE",
"451 264 OFFCURVE",
"450 261 CURVE",
"438 241 LINE SMOOTH",
"435 236 OFFCURVE",
"432 231 OFFCURVE",
"430 226 CURVE",
"427 221 OFFCURVE",
"424 215 OFFCURVE",
"421 210 CURVE SMOOTH",
"411 192 LINE",
"408 185 OFFCURVE",
"404 179 OFFCURVE",
"400 174 CURVE",
"392 163 OFFCURVE",
"385 153 OFFCURVE",
"380 142 CURVE",
"360 103 LINE SMOOTH",
"347 78 OFFCURVE",
"334 55 OFFCURVE",
"322 36 CURVE SMOOTH",
"304 8 LINE",
"303 7 OFFCURVE",
"302 6 OFFCURVE",
"302 5 CURVE",
"299 2 LINE",
"296 -1 LINE",
"292 4 OFFCURVE",
"292 5 OFFCURVE",
"292 9 CURVE",
"293 12 OFFCURVE",
"294 14 OFFCURVE",
"294 16 CURVE",
"293 25 OFFCURVE",
"294 33 OFFCURVE",
"295 42 CURVE",
"296 65 OFFCURVE",
"298 89 OFFCURVE",
"300 113 CURVE SMOOTH",
"303 161 OFFCURVE",
"313 208 OFFCURVE",
"325 253 CURVE",
"330 275 OFFCURVE",
"336 297 OFFCURVE",
"341 320 CURVE"
);
}
);
width = 460;
}
);
note = n;
unicode = 006E;
},
{
glyphname = o;
layers = (
{
hints = (
{
horizontal = 1;
place = "{63, 36}";
type = Stem;
},
{
horizontal = 1;
place = "{198, 26}";
type = Stem;
},
{
horizontal = 1;
place = "{395, 13}";
type = Stem;
},
{
place = "{-57, 75}";
type = Stem;
},
{
place = "{85.46, 60.56}";
type = Stem;
},
{
place = "{198, 34}";
type = Stem;
}
);
layerId = "54D2F088-3B12-48DB-A05E-ED165257FC93";
paths = (
{
closed = 1;
nodes = (
"104 443 OFFCURVE",
"95 447 OFFCURVE",
"85 448 CURVE",
"79 449 OFFCURVE",
"74 448 OFFCURVE",
"70 445 CURVE",
"53 434 LINE",
"47 431 OFFCURVE",
"41 427 OFFCURVE",
"36 423 CURVE",
"33 420 OFFCURVE",
"29 418 OFFCURVE",
"26 416 CURVE SMOOTH",
"18 411 OFFCURVE",
"12 403 OFFCURVE",
"6 395 CURVE SMOOTH",
"3 391 OFFCURVE",
"-1 387 OFFCURVE",
"-4 384 CURVE SMOOTH",
"-16 372 OFFCURVE",
"-22 354 OFFCURVE",
"-32 331 CURVE SMOOTH",
"-42 308 OFFCURVE",
"-53 278 OFFCURVE",
"-57 246 CURVE",
"-58 227 OFFCURVE",
"-58 211 OFFCURVE",
"-55 192 CURVE",
"-54 176 OFFCURVE",
"-51 160 OFFCURVE",
"-44 145 CURVE",
"-29 118 OFFCURVE",
"-2 95 OFFCURVE",
"25 80 CURVE",
"32 77 OFFCURVE",
"39 73 OFFCURVE",
"46 70 CURVE",
"61 62 OFFCURVE",
"76 60 OFFCURVE",
"88 68 CURVE",
"100 75 OFFCURVE",
"111 81 OFFCURVE",
"119 88 CURVE",
"122 91 OFFCURVE",
"126 95 OFFCURVE",
"131 98 CURVE",
"135 101 OFFCURVE",
"139 104 OFFCURVE",
"142 109 CURVE",
"152 121 LINE",
"156 127 OFFCURVE",
"161 132 OFFCURVE",
"167 137 CURVE SMOOTH",
"173 142 OFFCURVE",
"178 148 OFFCURVE",
"181 155 CURVE SMOOTH",
"187 170 LINE",
"191 179 OFFCURVE",
"196 194 OFFCURVE",
"204 195 CURVE",
"215 198 LINE",
"218 199 OFFCURVE",
"222 198 OFFCURVE",
"225 197 CURVE",
"234 196 OFFCURVE",
"242 196 OFFCURVE",
"249 198 CURVE",
"264 201 OFFCURVE",
"282 208 OFFCURVE",
"298 218 CURVE SMOOTH",
"306 223 OFFCURVE",
"315 227 OFFCURVE",
"324 230 CURVE",
"331 233 OFFCURVE",
"346 243 OFFCURVE",
"359 255 CURVE",
"371 267 OFFCURVE",
"383 281 OFFCURVE",
"386 289 CURVE",
"382 296 OFFCURVE",
"374 300 OFFCURVE",
"363 297 CURVE",
"362 296 OFFCURVE",
"361 296 OFFCURVE",
"361 295 CURVE",
"358 291 LINE",
"357 288 OFFCURVE",
"355 286 OFFCURVE",
"353 284 CURVE SMOOTH",
"324 256 OFFCURVE",
"286 233 OFFCURVE",
"246 226 CURVE SMOOTH",
"239 225 OFFCURVE",
"233 224 OFFCURVE",
"226 224 CURVE SMOOTH",
"225 224 OFFCURVE",
"224 224 OFFCURVE",
"223 225 CURVE SMOOTH",
"222 226 OFFCURVE",
"220 226 OFFCURVE",
"219 226 CURVE",
"220 230 OFFCURVE",
"221 234 OFFCURVE",
"221 237 CURVE SMOOTH",
"221 244 OFFCURVE",
"223 252 OFFCURVE",
"228 260 CURVE",
"230 264 OFFCURVE",
"231 269 OFFCURVE",
"232 274 CURVE",
"233 286 OFFCURVE",
"233 301 OFFCURVE",
"230 313 CURVE",
"229 316 OFFCURVE",
"229 318 OFFCURVE",
"229 321 CURVE",
"228 323 OFFCURVE",
"228 326 OFFCURVE",
"227 329 CURVE",
"227 344 OFFCURVE",
"223 355 OFFCURVE",
"216 368 CURVE SMOOTH",
"208 384 OFFCURVE",
"191 391 OFFCURVE",
"176 399 CURVE",
"164 406 OFFCURVE",
"155 413 OFFCURVE",
"140 410 CURVE SMOOTH",
"135 409 OFFCURVE",
"131 408 OFFCURVE",
"128 408 CURVE",
"123 407 OFFCURVE",
"120 405 OFFCURVE",
"117 402 CURVE SMOOTH",
"114 399 OFFCURVE",
"111 396 OFFCURVE",
"107 395 CURVE",
"107 395 OFFCURVE",
"107 394 OFFCURVE",
"106 393 CURVE",
"103 386 OFFCURVE",
"99 379 OFFCURVE",
"96 372 CURVE SMOOTH",
"93 365 OFFCURVE",
"90 357 OFFCURVE",
"89 349 CURVE",
"82 322 OFFCURVE",
"84 297 OFFCURVE",
"97 272 CURVE",
"101 265 OFFCURVE",
"106 258 OFFCURVE",
"111 251 CURVE SMOOTH",
"122 236 OFFCURVE",
"137 223 OFFCURVE",
"155 211 CURVE SMOOTH",
"164 205 LINE SMOOTH",
"167 203 OFFCURVE",
"170 201 OFFCURVE",
"173 200 CURVE",
"172 199 OFFCURVE",
"172 198 OFFCURVE",
"172 197 CURVE SMOOTH",
"172 196 OFFCURVE",
"172 194 OFFCURVE",
"171 193 CURVE",
"167 188 OFFCURVE",
"164 182 OFFCURVE",
"162 176 CURVE",
"162 175 OFFCURVE",
"162 175 OFFCURVE",
"161 174 CURVE",
"156 165 OFFCURVE",
"149 157 OFFCURVE",
"140 148 CURVE SMOOTH",
"138 146 OFFCURVE",
"136 144 OFFCURVE",
"135 142 CURVE",
"133 140 OFFCURVE",
"131 138 OFFCURVE",
"128 137 CURVE",
"125 134 OFFCURVE",
"121 131 OFFCURVE",
"117 129 CURVE",
"112 126 OFFCURVE",
"108 124 OFFCURVE",
"105 121 CURVE",
"98 115 OFFCURVE",
"90 111 OFFCURVE",
"82 108 CURVE SMOOTH",
"57 99 LINE",
"52 97 OFFCURVE",
"47 98 OFFCURVE",
"42 102 CURVE",
"36 108 LINE",
"33 110 OFFCURVE",
"31 112 OFFCURVE",
"29 114 CURVE",
"20 121 OFFCURVE",
"20 134 OFFCURVE",
"20 147 CURVE",
"19 154 OFFCURVE",
"19 161 OFFCURVE",
"18 168 CURVE",
"17 181 OFFCURVE",
"18 194 OFFCURVE",
"26 205 CURVE",
"27 208 OFFCURVE",
"28 209 OFFCURVE",
"28 210 CURVE",
"29 217 OFFCURVE",
"32 224 OFFCURVE",
"35 231 CURVE",
"41 243 OFFCURVE",
"44 259 OFFCURVE",
"48 273 CURVE",
"49 280 OFFCURVE",
"51 287 OFFCURVE",
"54 294 CURVE",
"61 315 OFFCURVE",
"66 337 OFFCURVE",
"71 358 CURVE",
"72 363 OFFCURVE",
"74 368 OFFCURVE",
"76 373 CURVE SMOOTH",
"79 381 OFFCURVE",
"82 388 OFFCURVE",
"86 393 CURVE",
"88 395 OFFCURVE",
"90 398 OFFCURVE",
"91 401 CURVE",
"95 403 OFFCURVE",
"98 407 OFFCURVE",
"100 413 CURVE",
"101 414 OFFCURVE",
"102 416 OFFCURVE",
"105 419 CURVE SMOOTH",
"111 425 OFFCURVE",
"114 431 OFFCURVE",
"113 438 CURVE"
);
},
{
closed = 1;
nodes = (
"179 233 OFFCURVE",
"176 234 OFFCURVE",
"174 237 CURVE",
"171 239 OFFCURVE",
"169 241 OFFCURVE",
"166 244 CURVE",
"150 264 OFFCURVE",
"139 292 OFFCURVE",
"151 317 CURVE",
"152 320 OFFCURVE",
"153 322 OFFCURVE",
"153 323 CURVE",
"155 335 OFFCURVE",
"158 346 OFFCURVE",
"163 356 CURVE",
"164 357 OFFCURVE",
"165 359 OFFCURVE",
"166 361 CURVE",
"166 365 OFFCURVE",
"167 370 OFFCURVE",
"172 370 CURVE SMOOTH",
"173 370 OFFCURVE",
"174 370 OFFCURVE",
"175 369 CURVE",
"175 368 OFFCURVE",
"176 368 OFFCURVE",
"177 367 CURVE",
"177 366 LINE",
"180 355 OFFCURVE",
"185 348 OFFCURVE",
"190 340 CURVE",
"194 333 OFFCURVE",
"196 325 OFFCURVE",
"197 316 CURVE",
"197 307 OFFCURVE",
"197 298 OFFCURVE",
"198 291 CURVE",
"199 280 OFFCURVE",
"198 263 OFFCURVE",
"190 254 CURVE",
"189 253 OFFCURVE",
"189 251 OFFCURVE",
"189 248 CURVE",
"190 241 OFFCURVE",
"186 237 OFFCURVE",
"182 232 CURVE"
);
}
);
width = 359;
}
);
note = o;
unicode = 006F;
},
{
glyphname = p;
layers = (
{
hints = (
{
horizontal = 1;
place = "{298, 8}";
type = Stem;
},
{
place = "{-15.5, 87.5}";
type = Stem;
},
{
place = "{157, 21}";
type = Stem;
},
{
place = "{229, 109}";
type = Stem;
},
{
place = "{-17, 102.08}";
type = Stem;
}
);
layerId = "54D2F088-3B12-48DB-A05E-ED165257FC93";
paths = (
{
closed = 1;
nodes = (
"105 345 OFFCURVE",
"104 345 OFFCURVE",
"103 346 CURVE",
"100 356 LINE",
"97 363 OFFCURVE",
"95 370 OFFCURVE",
"92 377 CURVE SMOOTH",
"86 390 OFFCURVE",
"74 401 OFFCURVE",
"64 409 CURVE SMOOTH",
"59 413 OFFCURVE",
"53 418 OFFCURVE",
"48 423 CURVE",
"44 426 OFFCURVE",
"40 431 OFFCURVE",
"37 435 CURVE SMOOTH",
"29 446 OFFCURVE",
"21 454 OFFCURVE",
"8 457 CURVE",
"-13 460 LINE",
"-20 460 OFFCURVE",
"-23 458 OFFCURVE",
"-24 453 CURVE",
"-25 444 OFFCURVE",
"-27 436 OFFCURVE",
"-28 428 CURVE",
"-32 412 OFFCURVE",
"-28 396 OFFCURVE",
"-25 381 CURVE",
"-22 359 LINE",
"-21 346 OFFCURVE",
"-20 332 OFFCURVE",
"-20 319 CURVE SMOOTH",
"-20 306 OFFCURVE",
"-20 292 OFFCURVE",
"-20 279 CURVE SMOOTH",
"-20 236 LINE SMOOTH",
"-21 207 OFFCURVE",
"-20 174 OFFCURVE",
"-19 142 CURVE SMOOTH",
"-18 109 OFFCURVE",
"-17 78 OFFCURVE",
"-17 53 CURVE",
"-18 40 OFFCURVE",
"-18 27 OFFCURVE",
"-17 14 CURVE",
"-14 -121 LINE SMOOTH",
"-13 -148 OFFCURVE",
"-13 -174 OFFCURVE",
"-14 -200 CURVE",
"-14 -219 OFFCURVE",
"-16 -238 OFFCURVE",
"-17 -257 CURVE",
"-17 -272 OFFCURVE",
"-18 -284 OFFCURVE",
"-19 -299 CURVE",
"-19 -300 OFFCURVE",
"-18 -302 OFFCURVE",
"-17 -303 CURVE",
"-13 -310 OFFCURVE",
"-8 -314 OFFCURVE",
"-3 -319 CURVE",
"7 -328 OFFCURVE",
"16 -327 OFFCURVE",
"25 -318 CURVE",
"28 -314 LINE",
"28 -313 OFFCURVE",
"29 -313 OFFCURVE",
"30 -312 CURVE",
"34 -311 OFFCURVE",
"37 -310 OFFCURVE",
"38 -307 CURVE",
"40 -302 OFFCURVE",
"42 -292 OFFCURVE",
"43 -283 CURVE",
"43 -279 OFFCURVE",
"46 -275 OFFCURVE",
"51 -272 CURVE",
"50 -272 OFFCURVE",
"51 -270 OFFCURVE",
"53 -267 CURVE",
"56 -260 OFFCURVE",
"58 -252 OFFCURVE",
"61 -243 CURVE",
"62 -244 OFFCURVE",
"63 -245 OFFCURVE",
"63 -246 CURVE SMOOTH",
"63 -247 OFFCURVE",
"63 -248 OFFCURVE",
"64 -249 CURVE",
"67 -237 LINE",
"68 -234 OFFCURVE",
"68 -230 OFFCURVE",
"68 -227 CURVE",
"69 -220 OFFCURVE",
"69 -213 OFFCURVE",
"69 -206 CURVE SMOOTH",
"69 -185 LINE",
"70 -173 OFFCURVE",
"70 -161 OFFCURVE",
"69 -149 CURVE SMOOTH",
"68 -137 OFFCURVE",
"69 -125 OFFCURVE",
"71 -114 CURVE SMOOTH",
"72 -109 OFFCURVE",
"72 -105 OFFCURVE",
"73 -101 CURVE",
"73 -97 OFFCURVE",
"73 -93 OFFCURVE",
"74 -88 CURVE",
"75 -75 OFFCURVE",
"74 -61 OFFCURVE",
"72 -47 CURVE SMOOTH",
"70 -34 OFFCURVE",
"70 -20 OFFCURVE",
"73 -7 CURVE",
"84 20 OFFCURVE",
"88 42 OFFCURVE",
"83 69 CURVE",
"92 117 LINE SMOOTH",
"93 123 OFFCURVE",
"93 129 OFFCURVE",
"94 136 CURVE",
"94 142 OFFCURVE",
"95 148 OFFCURVE",
"96 154 CURVE SMOOTH",
"99 169 OFFCURVE",
"102 184 OFFCURVE",
"104 199 CURVE",
"105 214 OFFCURVE",
"107 229 OFFCURVE",
"109 244 CURVE",
"110 261 OFFCURVE",
"119 277 OFFCURVE",
"128 293 CURVE SMOOTH",
"137 309 OFFCURVE",
"147 325 OFFCURVE",
"154 341 CURVE SMOOTH",
"167 373 OFFCURVE",
"185 403 OFFCURVE",
"208 430 CURVE SMOOTH",
"215 438 OFFCURVE",
"223 444 OFFCURVE",
"235 447 CURVE",
"237 443 OFFCURVE",
"238 439 OFFCURVE",
"238 435 CURVE SMOOTH",
"238 431 OFFCURVE",
"238 427 OFFCURVE",
"238 423 CURVE",
"235 361 LINE SMOOTH",
"234 340 OFFCURVE",
"232 319 OFFCURVE",
"231 298 CURVE SMOOTH",
"230 283 OFFCURVE",
"229 269 OFFCURVE",
"229 255 CURVE SMOOTH",
"228 226 OFFCURVE",
"225 199 OFFCURVE",
"220 175 CURVE SMOOTH",
"217 162 OFFCURVE",
"215 150 OFFCURVE",
"214 138 CURVE SMOOTH",
"213 119 OFFCURVE",
"205 102 OFFCURVE",
"190 88 CURVE",
"172 69 OFFCURVE",
"161 45 OFFCURVE",
"157 16 CURVE",
"154 7 OFFCURVE",
"155 -3 OFFCURVE",
"163 -10 CURVE",
"174 -21 OFFCURVE",
"185 -30 OFFCURVE",
"201 -37 CURVE",
"202 -34 OFFCURVE",
"204 -32 OFFCURVE",
"206 -30 CURVE SMOOTH",
"208 -28 OFFCURVE",
"210 -26 OFFCURVE",
"211 -23 CURVE",
"214 -21 LINE",
"214 -20 OFFCURVE",
"215 -20 OFFCURVE",
"216 -20 CURVE",
"221 -19 OFFCURVE",
"225 -16 OFFCURVE",
"228 -12 CURVE SMOOTH",
"231 -8 OFFCURVE",
"234 -5 OFFCURVE",
"238 -2 CURVE",
"241 7 OFFCURVE",
"246 13 OFFCURVE",
"253 16 CURVE SMOOTH",
"260 19 OFFCURVE",
"266 23 OFFCURVE",
"271 29 CURVE",
"276 30 OFFCURVE",
"280 33 OFFCURVE",
"283 37 CURVE",
"287 44 OFFCURVE",
"293 53 OFFCURVE",
"297 64 CURVE",
"298 69 OFFCURVE",
"301 75 OFFCURVE",
"304 80 CURVE",
"311 89 OFFCURVE",
"315 100 OFFCURVE",
"317 111 CURVE",
"320 134 OFFCURVE",
"324 155 OFFCURVE",
"336 166 CURVE",
"347 177 OFFCURVE",
"358 187 OFFCURVE",
"370 196 CURVE",
"381 205 OFFCURVE",
"401 219 OFFCURVE",
"421 232 CURVE SMOOTH",
"441 245 OFFCURVE",
"461 260 OFFCURVE",
"469 271 CURVE",
"479 276 OFFCURVE",
"485 281 OFFCURVE",
"488 286 CURVE",
"490 290 OFFCURVE",
"494 294 OFFCURVE",
"500 298 CURVE",
"501 298 OFFCURVE",
"501 299 OFFCURVE",
"500 301 CURVE SMOOTH",
"499 303 OFFCURVE",
"498 305 OFFCURVE",
"499 306 CURVE",
"494 308 OFFCURVE",
"489 307 OFFCURVE",
"484 303 CURVE",
"479 298 OFFCURVE",
"474 295 OFFCURVE",
"469 292 CURVE SMOOTH",
"442 277 LINE",
"431 270 OFFCURVE",
"419 264 OFFCURVE",
"407 257 CURVE SMOOTH",
"383 244 OFFCURVE",
"360 229 OFFCURVE",
"347 218 CURVE",
"346 217 OFFCURVE",
"344 216 OFFCURVE",
"342 215 CURVE",
"336 211 LINE",
"337 234 OFFCURVE",
"338 265 OFFCURVE",
"338 285 CURVE",
"339 292 OFFCURVE",
"339 298 OFFCURVE",
"338 304 CURVE SMOOTH",
"337 310 OFFCURVE",
"337 316 OFFCURVE",
"337 323 CURVE SMOOTH",
"337 329 OFFCURVE",
"337 335 OFFCURVE",
"338 342 CURVE",
"338 348 OFFCURVE",
"337 354 OFFCURVE",
"336 360 CURVE",
"333 374 OFFCURVE",
"331 388 OFFCURVE",
"329 402 CURVE",
"326 416 OFFCURVE",
"322 430 OFFCURVE",
"317 444 CURVE SMOOTH",
"305 476 OFFCURVE",
"272 494 OFFCURVE",
"240 487 CURVE SMOOTH",
"213 482 OFFCURVE",
"191 466 OFFCURVE",
"172 447 CURVE SMOOTH",
"153 427 OFFCURVE",
"137 404 OFFCURVE",
"122 377 CURVE",
"117 366 OFFCURVE",
"111 356 OFFCURVE",
"106 345 CURVE"
);
},
{
closed = 1;
nodes = (
"181 3 OFFCURVE",
"181 3 OFFCURVE",
"180 4 CURVE",
"179 4 OFFCURVE",
"179 5 OFFCURVE",
"179 6 CURVE",
"178 7 OFFCURVE",
"178 10 OFFCURVE",
"178 13 CURVE",
"193 46 LINE",
"195 49 LINE",
"196 49 OFFCURVE",
"197 50 OFFCURVE",
"198 51 CURVE",
"203 35 OFFCURVE",
"196 11 OFFCURVE",
"181 2 CURVE"
);
}
);
width = 478;
}
);
note = p;
unicode = 0070;
},
{
glyphname = q;
layers = (
{
hints = (
{
horizontal = 1;
place = "{490.63, 18.37}";
type = Stem;
},
{
place = "{183, 24}";
type = Stem;
},
{
horizontal = 1;
place = "{153.25, 37.25}";
type = Stem;
},
{
place = "{-32.13, 82.13}";
type = Stem;
},
{
place = "{114, 83}";
type = Stem;
},
{
place = "{243, 17}";
type = Stem;
},
{
place = "{60, 90}";
type = Stem;
},
{
place = "{134, 19}";
type = Stem;
}
);
layerId = "54D2F088-3B12-48DB-A05E-ED165257FC93";
paths = (
{
closed = 1;
nodes = (
"409 304 OFFCURVE",
"409 304 OFFCURVE",
"408 304 CURVE SMOOTH",
"385 304 LINE SMOOTH",
"382 304 OFFCURVE",
"380 302 OFFCURVE",
"379 298 CURVE",
"378 297 OFFCURVE",
"378 296 OFFCURVE",
"378 294 CURVE SMOOTH",
"378 287 OFFCURVE",
"376 280 OFFCURVE",
"371 272 CURVE SMOOTH",
"363 259 OFFCURVE",
"356 246 OFFCURVE",
"345 235 CURVE SMOOTH",
"343 233 OFFCURVE",
"341 231 OFFCURVE",
"340 228 CURVE",
"336 223 OFFCURVE",
"332 218 OFFCURVE",
"329 213 CURVE",
"321 203 OFFCURVE",
"311 192 OFFCURVE",
"302 183 CURVE SMOOTH",
"288 169 LINE",
"286 168 OFFCURVE",
"284 166 OFFCURVE",
"283 164 CURVE",
"281 162 OFFCURVE",
"279 160 OFFCURVE",
"277 159 CURVE",
"271 154 OFFCURVE",
"265 150 OFFCURVE",
"259 146 CURVE SMOOTH",
"252 141 OFFCURVE",
"246 136 OFFCURVE",
"240 131 CURVE SMOOTH",
"227 120 OFFCURVE",
"212 110 OFFCURVE",
"197 101 CURVE",
"196 108 OFFCURVE",
"196 114 OFFCURVE",
"199 119 CURVE SMOOTH",
"202 124 OFFCURVE",
"204 130 OFFCURVE",
"206 137 CURVE",
"207 143 OFFCURVE",
"210 149 OFFCURVE",
"213 154 CURVE SMOOTH",
"218 162 OFFCURVE",
"220 171 OFFCURVE",
"221 182 CURVE",
"227 216 OFFCURVE",
"235 251 OFFCURVE",
"244 286 CURVE",
"247 292 OFFCURVE",
"248 300 OFFCURVE",
"248 309 CURVE SMOOTH",
"248 310 LINE",
"252 322 OFFCURVE",
"254 334 OFFCURVE",
"254 347 CURVE SMOOTH",
"254 348 LINE",
"257 366 LINE SMOOTH",
"258 372 OFFCURVE",
"258 378 OFFCURVE",
"257 384 CURVE",
"257 385 OFFCURVE",
"257 387 OFFCURVE",
"258 389 CURVE",
"258 393 LINE",
"258 400 LINE",
"255 409 OFFCURVE",
"256 420 OFFCURVE",
"259 432 CURVE",
"260 434 OFFCURVE",
"260 437 OFFCURVE",
"260 440 CURVE",
"249 445 OFFCURVE",
"231 449 OFFCURVE",
"216 446 CURVE",
"205 445 OFFCURVE",
"202 429 OFFCURVE",
"198 414 CURVE SMOOTH",
"196 406 OFFCURVE",
"193 398 OFFCURVE",
"190 391 CURVE",
"184 373 LINE",
"181 366 OFFCURVE",
"179 360 OFFCURVE",
"178 353 CURVE",
"177 352 OFFCURVE",
"177 352 OFFCURVE",
"177 351 CURVE SMOOTH",
"177 350 OFFCURVE",
"177 350 OFFCURVE",
"176 349 CURVE",
"173 342 OFFCURVE",
"171 335 OFFCURVE",
"168 329 CURVE SMOOTH",
"165 323 OFFCURVE",
"162 316 OFFCURVE",
"161 309 CURVE",
"161 308 OFFCURVE",
"161 307 OFFCURVE",
"160 307 CURVE",
"158 304 OFFCURVE",
"157 302 OFFCURVE",
"157 299 CURVE",
"154 290 LINE",
"153 289 OFFCURVE",
"153 287 OFFCURVE",
"153 286 CURVE",
"152 284 OFFCURVE",
"152 282 OFFCURVE",
"151 281 CURVE",
"148 276 OFFCURVE",
"145 271 OFFCURVE",
"142 266 CURVE SMOOTH",
"133 250 LINE SMOOTH",
"129 243 OFFCURVE",
"124 237 OFFCURVE",
"117 230 CURVE",
"109 219 OFFCURVE",
"100 210 OFFCURVE",
"89 199 CURVE SMOOTH",
"88 198 OFFCURVE",
"86 196 OFFCURVE",
"84 195 CURVE SMOOTH",
"82 194 OFFCURVE",
"80 192 OFFCURVE",
"79 191 CURVE",
"76 190 OFFCURVE",
"74 189 OFFCURVE",
"71 190 CURVE",
"58 197 OFFCURVE",
"50 202 OFFCURVE",
"50 218 CURVE SMOOTH",
"50 231 LINE",
"50 252 LINE",
"49 266 OFFCURVE",
"51 280 OFFCURVE",
"58 293 CURVE SMOOTH",
"65 306 OFFCURVE",
"70 325 OFFCURVE",
"71 350 CURVE",
"71 362 OFFCURVE",
"73 373 OFFCURVE",
"78 384 CURVE SMOOTH",
"81 391 LINE",
"84 399 OFFCURVE",
"88 404 OFFCURVE",
"93 411 CURVE",
"96 414 OFFCURVE",
"99 418 OFFCURVE",
"102 421 CURVE SMOOTH",
"111 430 LINE SMOOTH",
"114 433 OFFCURVE",
"116 435 OFFCURVE",
"119 438 CURVE",
"128 446 LINE",
"135 451 OFFCURVE",
"140 455 OFFCURVE",
"145 462 CURVE",
"152 469 OFFCURVE",
"160 474 OFFCURVE",
"169 477 CURVE",
"178 479 OFFCURVE",
"185 482 OFFCURVE",
"192 486 CURVE SMOOTH",
"202 492 OFFCURVE",
"212 492 OFFCURVE",
"223 487 CURVE",
"231 483 OFFCURVE",
"242 479 OFFCURVE",
"243 467 CURVE",
"246 459 OFFCURVE",
"257 464 OFFCURVE",
"261 472 CURVE",
"263 477 OFFCURVE",
"265 481 OFFCURVE",
"268 486 CURVE",
"263 499 OFFCURVE",
"244 503 OFFCURVE",
"232 504 CURVE",
"212 507 LINE SMOOTH",
"205 508 OFFCURVE",
"200 509 OFFCURVE",
"193 509 CURVE",
"175 510 OFFCURVE",
"158 508 OFFCURVE",
"141 503 CURVE",
"132 501 OFFCURVE",
"125 497 OFFCURVE",
"120 492 CURVE",
"114 487 OFFCURVE",
"108 484 OFFCURVE",
"102 481 CURVE",
"98 478 OFFCURVE",
"93 475 OFFCURVE",
"90 471 CURVE",
"82 463 OFFCURVE",
"73 455 OFFCURVE",
"62 448 CURVE",
"60 447 OFFCURVE",
"58 445 OFFCURVE",
"57 443 CURVE",
"51 437 LINE SMOOTH",
"49 435 OFFCURVE",
"47 433 OFFCURVE",
"46 431 CURVE",
"44 428 OFFCURVE",
"42 426 OFFCURVE",
"40 424 CURVE",
"35 420 OFFCURVE",
"31 415 OFFCURVE",
"28 410 CURVE",
"24 405 OFFCURVE",
"20 400 OFFCURVE",
"15 395 CURVE SMOOTH",
"12 392 OFFCURVE",
"11 390 OFFCURVE",
"10 387 CURVE SMOOTH",
"9 384 OFFCURVE",
"7 381 OFFCURVE",
"4 379 CURVE",
"3 376 OFFCURVE",
"1 374 OFFCURVE",
"0 372 CURVE SMOOTH",
"-1 370 OFFCURVE",
"-3 367 OFFCURVE",
"-4 364 CURVE",
"-5 360 OFFCURVE",
"-7 357 OFFCURVE",
"-8 356 CURVE",
"-12 350 OFFCURVE",
"-15 342 OFFCURVE",
"-18 331 CURVE",
"-19 328 OFFCURVE",
"-20 325 OFFCURVE",
"-20 322 CURVE",
"-23 313 LINE SMOOTH",
"-24 310 OFFCURVE",
"-25 308 OFFCURVE",
"-26 306 CURVE",
"-29 297 LINE",
"-32 290 OFFCURVE",
"-34 284 OFFCURVE",
"-30 276 CURVE",
"-35 272 OFFCURVE",
"-36 268 OFFCURVE",
"-37 261 CURVE",
"-37 256 LINE",
"-38 254 OFFCURVE",
"-38 252 OFFCURVE",
"-38 251 CURVE",
"-42 220 OFFCURVE",
"-30 189 OFFCURVE",
"-1 170 CURVE",
"1 169 OFFCURVE",
"3 168 OFFCURVE",
"5 167 CURVE",
"11 163 LINE",
"30 152 OFFCURVE",
"50 149 OFFCURVE",
"70 160 CURVE",
"75 161 OFFCURVE",
"79 163 OFFCURVE",
"83 165 CURVE",
"86 167 OFFCURVE",
"91 168 OFFCURVE",
"96 168 CURVE SMOOTH",
"98 168 OFFCURVE",
"101 169 OFFCURVE",
"105 172 CURVE",
"114 178 LINE",
"116 179 OFFCURVE",
"118 179 OFFCURVE",
"120 178 CURVE",
"119 175 OFFCURVE",
"117 170 OFFCURVE",
"116 163 CURVE",
"115 161 OFFCURVE",
"115 159 OFFCURVE",
"114 157 CURVE",
"113 154 OFFCURVE",
"113 152 OFFCURVE",
"114 149 CURVE",
"117 144 OFFCURVE",
"117 137 OFFCURVE",
"114 129 CURVE",
"111 120 OFFCURVE",
"109 113 OFFCURVE",
"108 108 CURVE",
"96 62 LINE SMOOTH",
"87 29 OFFCURVE",
"78 -5 OFFCURVE",
"70 -38 CURVE SMOOTH",
"62 -73 OFFCURVE",
"52 -108 OFFCURVE",
"53 -144 CURVE SMOOTH",
"53 -147 OFFCURVE",
"53 -151 OFFCURVE",
"52 -155 CURVE SMOOTH",
"51 -159 OFFCURVE",
"51 -163 OFFCURVE",
"51 -166 CURVE",
"54 -199 LINE SMOOTH",
"55 -210 OFFCURVE",
"56 -221 OFFCURVE",
"59 -232 CURVE",
"60 -234 OFFCURVE",
"60 -237 OFFCURVE",
"60 -240 CURVE",
"61 -255 OFFCURVE",
"67 -265 OFFCURVE",
"75 -276 CURVE",
"76 -277 OFFCURVE",
"77 -278 OFFCURVE",
"78 -278 CURVE",
"81 -279 OFFCURVE",
"84 -281 OFFCURVE",
"86 -285 CURVE",
"86 -285 OFFCURVE",
"88 -289 OFFCURVE",
"95 -290 CURVE",
"98 -291 OFFCURVE",
"102 -291 OFFCURVE",
"106 -292 CURVE",
"114 -293 OFFCURVE",
"120 -294 OFFCURVE",
"123 -293 CURVE",
"148 -282 OFFCURVE",
"169 -266 OFFCURVE",
"186 -247 CURVE SMOOTH",
"193 -239 OFFCURVE",
"198 -227 OFFCURVE",
"201 -212 CURVE SMOOTH",
"207 -181 OFFCURVE",
"209 -144 OFFCURVE",
"207 -107 CURVE SMOOTH",
"205 -70 OFFCURVE",
"202 -38 OFFCURVE",
"200 -18 CURVE SMOOTH",
"199 -8 OFFCURVE",
"198 -3 OFFCURVE",
"198 -3 CURVE",
"199 2 OFFCURVE",
"199 8 OFFCURVE",
"197 15 CURVE",
"196 18 OFFCURVE",
"196 21 OFFCURVE",
"195 24 CURVE SMOOTH",
"194 27 OFFCURVE",
"194 30 OFFCURVE",
"195 33 CURVE",
"195 38 OFFCURVE",
"194 42 OFFCURVE",
"192 45 CURVE",
"191 45 OFFCURVE",
"191 46 OFFCURVE",
"191 48 CURVE",
"193 50 OFFCURVE",
"193 54 OFFCURVE",
"192 59 CURVE",
"191 69 OFFCURVE",
"194 77 OFFCURVE",
"202 83 CURVE",
"209 87 OFFCURVE",
"214 92 OFFCURVE",
"221 97 CURVE",
"224 100 OFFCURVE",
"228 102 OFFCURVE",
"231 105 CURVE",
"238 109 OFFCURVE",
"248 118 OFFCURVE",
"252 123 CURVE",
"254 126 OFFCURVE",
"257 129 OFFCURVE",
"261 133 CURVE",
"282 147 LINE SMOOTH",
"289 152 OFFCURVE",
"296 156 OFFCURVE",
"303 160 CURVE",
"307 162 OFFCURVE",
"314 170 OFFCURVE",
"325 183 CURVE",
"345 209 OFFCURVE",
"370 241 OFFCURVE",
"388 267 CURVE SMOOTH",
"397 280 OFFCURVE",
"401 287 OFFCURVE",
"402 289 CURVE",
"403 293 OFFCURVE",
"406 296 OFFCURVE",
"409 298 CURVE",
"412 301 LINE",
"411 302 OFFCURVE",
"410 302 OFFCURVE",
"410 303 CURVE"
);
},
{
closed = 1;
nodes = (
"180 -153 OFFCURVE",
"176 -202 OFFCURVE",
"155 -246 CURVE",
"154 -247 OFFCURVE",
"154 -248 OFFCURVE",
"153 -248 CURVE SMOOTH",
"152 -248 OFFCURVE",
"150 -249 OFFCURVE",
"147 -250 CURVE",
"148 -246 OFFCURVE",
"149 -244 OFFCURVE",
"149 -244 CURVE",
"152 -239 OFFCURVE",
"152 -233 OFFCURVE",
"150 -226 CURVE",
"149 -221 OFFCURVE",
"148 -217 OFFCURVE",
"148 -212 CURVE",
"147 -208 OFFCURVE",
"147 -204 OFFCURVE",
"146 -199 CURVE",
"146 -195 LINE",
"145 -194 OFFCURVE",
"146 -192 OFFCURVE",
"147 -191 CURVE",
"151 -180 OFFCURVE",
"151 -172 OFFCURVE",
"150 -161 CURVE",
"149 -157 OFFCURVE",
"149 -153 OFFCURVE",
"150 -149 CURVE",
"153 -133 LINE",
"153 -128 OFFCURVE",
"154 -122 OFFCURVE",
"155 -117 CURVE",
"156 -114 OFFCURVE",
"156 -111 OFFCURVE",
"156 -106 CURVE SMOOTH",
"156 -95 OFFCURVE",
"156 -95 OFFCURVE",
"161 -87 CURVE",
"161 -86 OFFCURVE",
"160 -85 OFFCURVE",
"158 -85 CURVE SMOOTH",
"157 -85 OFFCURVE",
"157 -85 OFFCURVE",
"157 -84 CURVE",
"155 -84 LINE",
"155 -82 LINE",
"158 -77 OFFCURVE",
"160 -73 OFFCURVE",
"161 -68 CURVE",
"161 -63 OFFCURVE",
"161 -59 OFFCURVE",
"162 -54 CURVE",
"162 -51 OFFCURVE",
"162 -48 OFFCURVE",
"163 -47 CURVE",
"165 -44 OFFCURVE",
"166 -40 OFFCURVE",
"167 -36 CURVE",
"167 -33 OFFCURVE",
"168 -29 OFFCURVE",
"169 -26 CURVE",
"170 -37 OFFCURVE",
"173 -50 OFFCURVE",
"178 -65 CURVE",
"182 -80 OFFCURVE",
"184 -94 OFFCURVE",
"183 -105 CURVE SMOOTH"
);
},
{
closed = 1;
nodes = (
"76 -40 LINE",
"75 -40 OFFCURVE",
"75 -40 OFFCURVE",
"74 -41 CURVE",
"74 -39 LINE",
"73 -39 OFFCURVE",
"73 -39 OFFCURVE",
"73 -38 CURVE SMOOTH",
"73 -36 OFFCURVE",
"74 -34 OFFCURVE",
"77 -33 CURVE",
"78 -33 OFFCURVE",
"78 -33 OFFCURVE",
"79 -34 CURVE",
"80 -36 OFFCURVE",
"80 -38 OFFCURVE",
"77 -39 CURVE"
);
},
{
closed = 1;
nodes = (
"132 -140 OFFCURVE",
"132 -140 OFFCURVE",
"132 -139 CURVE",
"134 -139 LINE",
"134 -139 OFFCURVE",
"134 -140 OFFCURVE",
"133 -141 CURVE"
);
}
);
width = 378;
}
);
note = q;
unicode = 0071;
},
{
glyphname = s;
layers = (
{
hints = (
{
horizontal = 1;
place = "{-179, 71.13}";
type = Stem;
},
{
place = "{14.91, 25.09}";
type = Stem;
},
{
place = "{190, 94}";
type = Stem;
},
{
place = "{-38, 85}";
type = Stem;
}
);
layerId = "54D2F088-3B12-48DB-A05E-ED165257FC93";
paths = (
{
closed = 1;
nodes = (
"134 127 LINE",
"121 111 OFFCURVE",
"107 97 OFFCURVE",
"92 82 CURVE SMOOTH",
"89 79 OFFCURVE",
"86 75 OFFCURVE",
"84 72 CURVE",
"75 62 LINE",
"71 55 OFFCURVE",
"67 49 OFFCURVE",
"62 44 CURVE",
"27 1 OFFCURVE",
"8 -56 OFFCURVE",
"17 -107 CURVE SMOOTH",
"18 -112 OFFCURVE",
"20 -116 OFFCURVE",
"23 -118 CURVE SMOOTH",
"26 -120 OFFCURVE",
"29 -123 OFFCURVE",
"31 -126 CURVE",
"34 -131 OFFCURVE",
"38 -134 OFFCURVE",
"42 -137 CURVE",
"45 -138 OFFCURVE",
"47 -139 OFFCURVE",
"48 -142 CURVE",
"68 -162 OFFCURVE",
"89 -176 OFFCURVE",
"118 -179 CURVE",
"142 -180 OFFCURVE",
"179 -177 OFFCURVE",
"198 -158 CURVE",
"229 -130 OFFCURVE",
"258 -111 OFFCURVE",
"271 -68 CURVE",
"276 -49 OFFCURVE",
"281 -26 OFFCURVE",
"284 -3 CURVE SMOOTH",
"287 20 OFFCURVE",
"285 43 OFFCURVE",
"276 62 CURVE",
"273 69 OFFCURVE",
"272 75 OFFCURVE",
"273 82 CURVE SMOOTH",
"274 88 OFFCURVE",
"273 95 OFFCURVE",
"271 103 CURVE",
"268 110 OFFCURVE",
"265 118 OFFCURVE",
"263 125 CURVE",
"260 132 OFFCURVE",
"256 138 OFFCURVE",
"251 144 CURVE",
"250 145 OFFCURVE",
"249 147 OFFCURVE",
"249 148 CURVE",
"248 149 OFFCURVE",
"247 151 OFFCURVE",
"246 152 CURVE",
"238 164 LINE",
"234 169 OFFCURVE",
"234 172 OFFCURVE",
"238 175 CURVE",
"241 178 OFFCURVE",
"244 182 OFFCURVE",
"247 185 CURVE SMOOTH",
"256 194 LINE SMOOTH",
"257 195 OFFCURVE",
"259 196 OFFCURVE",
"262 198 CURVE SMOOTH",
"265 200 LINE",
"266 201 OFFCURVE",
"266 201 OFFCURVE",
"266 202 CURVE",
"267 209 OFFCURVE",
"271 211 OFFCURVE",
"275 214 CURVE",
"280 219 OFFCURVE",
"284 223 OFFCURVE",
"287 228 CURVE",
"291 232 OFFCURVE",
"294 235 OFFCURVE",
"296 238 CURVE",
"304 246 LINE SMOOTH",
"307 249 OFFCURVE",
"309 252 OFFCURVE",
"311 255 CURVE SMOOTH",
"313 258 OFFCURVE",
"316 261 OFFCURVE",
"319 263 CURVE SMOOTH",
"322 265 OFFCURVE",
"324 267 OFFCURVE",
"326 269 CURVE SMOOTH",
"328 271 OFFCURVE",
"330 272 OFFCURVE",
"333 273 CURVE SMOOTH",
"336 274 OFFCURVE",
"338 277 OFFCURVE",
"339 280 CURVE",
"339 283 OFFCURVE",
"340 285 OFFCURVE",
"342 287 CURVE SMOOTH",
"345 290 LINE",
"352 299 OFFCURVE",
"338 301 OFFCURVE",
"333 302 CURVE",
"330 302 OFFCURVE",
"328 303 OFFCURVE",
"325 304 CURVE",
"320 306 OFFCURVE",
"316 305 OFFCURVE",
"313 302 CURVE SMOOTH",
"306 295 LINE",
"302 288 OFFCURVE",
"297 283 OFFCURVE",
"292 278 CURVE",
"286 273 OFFCURVE",
"280 267 OFFCURVE",
"275 262 CURVE",
"265 253 LINE",
"258 248 OFFCURVE",
"251 239 OFFCURVE",
"244 231 CURVE",
"240 226 OFFCURVE",
"235 222 OFFCURVE",
"230 219 CURVE",
"227 216 OFFCURVE",
"225 214 OFFCURVE",
"223 213 CURVE",
"218 208 OFFCURVE",
"213 205 OFFCURVE",
"208 202 CURVE",
"202 208 LINE",
"200 209 OFFCURVE",
"198 211 OFFCURVE",
"196 213 CURVE SMOOTH",
"193 216 OFFCURVE",
"190 220 OFFCURVE",
"187 224 CURVE SMOOTH",
"184 228 OFFCURVE",
"181 232 OFFCURVE",
"178 235 CURVE SMOOTH",
"173 240 OFFCURVE",
"168 246 OFFCURVE",
"163 251 CURVE SMOOTH",
"148 267 LINE SMOOTH",
"139 276 OFFCURVE",
"129 285 OFFCURVE",
"120 293 CURVE",
"110 300 OFFCURVE",
"100 308 OFFCURVE",
"91 317 CURVE SMOOTH",
"86 322 LINE",
"84 323 OFFCURVE",
"82 325 OFFCURVE",
"81 326 CURVE",
"77 331 OFFCURVE",
"73 336 OFFCURVE",
"68 341 CURVE SMOOTH",
"63 346 OFFCURVE",
"60 351 OFFCURVE",
"57 357 CURVE",
"57 358 OFFCURVE",
"57 358 OFFCURVE",
"56 359 CURVE SMOOTH",
"53 362 OFFCURVE",
"52 364 OFFCURVE",
"51 367 CURVE SMOOTH",
"50 370 OFFCURVE",
"48 373 OFFCURVE",
"47 376 CURVE",
"45 386 OFFCURVE",
"46 395 OFFCURVE",
"49 402 CURVE",
"52 406 OFFCURVE",
"53 409 OFFCURVE",
"54 413 CURVE",
"55 418 OFFCURVE",
"58 423 OFFCURVE",
"61 427 CURVE",
"64 430 OFFCURVE",
"68 434 OFFCURVE",
"71 438 CURVE",
"74 440 OFFCURVE",
"78 442 OFFCURVE",
"81 443 CURVE",
"86 444 OFFCURVE",
"91 445 OFFCURVE",
"96 447 CURVE SMOOTH",
"101 449 OFFCURVE",
"105 451 OFFCURVE",
"110 452 CURVE",
"120 457 OFFCURVE",
"120 462 OFFCURVE",
"111 468 CURVE SMOOTH",
"100 475 OFFCURVE",
"91 481 OFFCURVE",
"78 484 CURVE",
"76 485 OFFCURVE",
"72 486 OFFCURVE",
"67 487 CURVE",
"60 490 OFFCURVE",
"54 491 OFFCURVE",
"47 491 CURVE",
"34 490 OFFCURVE",
"11 486 OFFCURVE",
"-4 467 CURVE",
"-21 448 OFFCURVE",
"-31 427 OFFCURVE",
"-35 404 CURVE",
"-37 397 OFFCURVE",
"-38 389 OFFCURVE",
"-38 382 CURVE",
"-34 335 OFFCURVE",
"-14 306 OFFCURVE",
"3 284 CURVE SMOOTH",
"19 262 OFFCURVE",
"38 236 OFFCURVE",
"70 208 CURVE SMOOTH",
"96 184 LINE",
"104 175 OFFCURVE",
"112 167 OFFCURVE",
"121 159 CURVE",
"128 152 OFFCURVE",
"135 144 OFFCURVE",
"142 135 CURVE"
);
},
{
closed = 1;
nodes = (
"165 105 LINE",
"173 94 OFFCURVE",
"178 82 OFFCURVE",
"181 70 CURVE",
"182 69 OFFCURVE",
"182 67 OFFCURVE",
"182 66 CURVE SMOOTH",
"182 65 OFFCURVE",
"182 63 OFFCURVE",
"183 62 CURVE",
"186 52 OFFCURVE",
"189 42 OFFCURVE",
"190 31 CURVE SMOOTH",
"192 10 OFFCURVE",
"195 -14 OFFCURVE",
"184 -43 CURVE",
"181 -47 OFFCURVE",
"179 -50 OFFCURVE",
"177 -52 CURVE",
"170 -57 OFFCURVE",
"165 -61 OFFCURVE",
"157 -64 CURVE",
"152 -65 OFFCURVE",
"147 -67 OFFCURVE",
"144 -70 CURVE",
"139 -73 OFFCURVE",
"134 -77 OFFCURVE",
"129 -80 CURVE SMOOTH",
"113 -90 LINE",
"104 -97 OFFCURVE",
"93 -101 OFFCURVE",
"81 -103 CURVE",
"80 -104 OFFCURVE",
"78 -104 OFFCURVE",
"77 -104 CURVE SMOOTH",
"76 -104 OFFCURVE",
"74 -104 OFFCURVE",
"73 -105 CURVE",
"65 -108 OFFCURVE",
"56 -110 OFFCURVE",
"48 -104 CURVE SMOOTH",
"40 -98 OFFCURVE",
"40 -85 OFFCURVE",
"40 -69 CURVE SMOOTH",
"40 -62 OFFCURVE",
"41 -54 OFFCURVE",
"43 -47 CURVE SMOOTH",
"46 -35 LINE",
"47 -32 OFFCURVE",
"48 -28 OFFCURVE",
"49 -24 CURVE",
"52 -14 LINE SMOOTH",
"53 -11 OFFCURVE",
"54 -8 OFFCURVE",
"57 -5 CURVE",
"57 -4 LINE",
"60 4 OFFCURVE",
"65 9 OFFCURVE",
"70 16 CURVE",
"81 29 OFFCURVE",
"90 41 OFFCURVE",
"105 52 CURVE SMOOTH",
"109 55 OFFCURVE",
"111 57 OFFCURVE",
"112 59 CURVE",
"114 62 OFFCURVE",
"116 64 OFFCURVE",
"119 66 CURVE",
"123 70 OFFCURVE",
"129 75 OFFCURVE",
"133 80 CURVE",
"137 84 OFFCURVE",
"143 91 OFFCURVE",
"150 99 CURVE",
"153 102 OFFCURVE",
"157 105 OFFCURVE",
"162 107 CURVE"
);
}
);
width = 319;
}
);
note = s;
unicode = 0073;
},
{
glyphname = t;
layers = (
{
hints = (
{
horizontal = 1;
place = "{548, 23}";
type = Stem;
},
{
place = "{6, 61}";
type = Stem;
},
{
horizontal = 1;
place = "{-43, 21}";
type = Stem;
},
{
horizontal = 1;
place = "{487, 49}";
type = Stem;
},
{
place = "{-22, 89.62}";
type = Stem;
},
{
horizontal = 1;
place = "{550, 15}";
type = Stem;
},
{
place = "{19, 43}";
type = Stem;
}
);
layerId = "54D2F088-3B12-48DB-A05E-ED165257FC93";
paths = (
{
closed = 1;
nodes = (
"8 502 OFFCURVE",
"8 499 OFFCURVE",
"8 497 CURVE SMOOTH",
"8 495 OFFCURVE",
"8 493 OFFCURVE",
"7 490 CURVE",
"6 485 OFFCURVE",
"6 479 OFFCURVE",
"6 474 CURVE",
"3 457 LINE",
"0 446 OFFCURVE",
"-1 434 OFFCURVE",
"-2 422 CURVE SMOOTH",
"-3 410 OFFCURVE",
"-5 398 OFFCURVE",
"-7 387 CURVE",
"-8 380 OFFCURVE",
"-8 373 OFFCURVE",
"-8 366 CURVE",
"-9 359 OFFCURVE",
"-9 352 OFFCURVE",
"-10 345 CURVE",
"-14 325 OFFCURVE",
"-17 304 OFFCURVE",
"-18 283 CURVE",
"-18 278 OFFCURVE",
"-18 274 OFFCURVE",
"-19 271 CURVE",
"-22 217 LINE",
"-22 205 LINE",
"-23 201 OFFCURVE",
"-23 197 OFFCURVE",
"-23 193 CURVE SMOOTH",
"-23 185 LINE SMOOTH",
"-23 183 OFFCURVE",
"-23 180 OFFCURVE",
"-24 177 CURVE",
"-24 161 LINE",
"-25 156 OFFCURVE",
"-25 150 OFFCURVE",
"-25 145 CURVE SMOOTH",
"-25 101 LINE SMOOTH",
"-25 92 OFFCURVE",
"-24 83 OFFCURVE",
"-23 74 CURVE",
"-22 71 OFFCURVE",
"-22 68 OFFCURVE",
"-22 64 CURVE",
"-21 61 OFFCURVE",
"-21 58 OFFCURVE",
"-20 55 CURVE",
"-20 52 OFFCURVE",
"-20 48 OFFCURVE",
"-19 45 CURVE",
"-18 30 OFFCURVE",
"-17 17 OFFCURVE",
"-10 2 CURVE",
"-2 -21 OFFCURVE",
"13 -35 OFFCURVE",
"36 -39 CURVE",
"51 -43 OFFCURVE",
"64 -43 OFFCURVE",
"77 -43 CURVE SMOOTH",
"81 -43 OFFCURVE",
"85 -42 OFFCURVE",
"90 -39 CURVE",
"91 -39 OFFCURVE",
"91 -39 OFFCURVE",
"92 -38 CURVE",
"92 -37 OFFCURVE",
"93 -37 OFFCURVE",
"94 -37 CURVE",
"101 -35 OFFCURVE",
"107 -30 OFFCURVE",
"112 -23 CURVE",
"119 -16 OFFCURVE",
"127 -9 OFFCURVE",
"136 -3 CURVE",
"152 9 OFFCURVE",
"164 29 OFFCURVE",
"173 48 CURVE",
"188 76 LINE",
"207 117 OFFCURVE",
"231 153 OFFCURVE",
"258 190 CURVE",
"265 201 OFFCURVE",
"272 213 OFFCURVE",
"278 225 CURVE SMOOTH",
"284 237 OFFCURVE",
"290 249 OFFCURVE",
"297 260 CURVE",
"298 263 OFFCURVE",
"300 266 OFFCURVE",
"302 269 CURVE",
"305 273 OFFCURVE",
"307 278 OFFCURVE",
"310 286 CURVE",
"310 287 OFFCURVE",
"310 287 OFFCURVE",
"311 288 CURVE",
"313 291 LINE",
"315 293 LINE",
"323 309 OFFCURVE",
"303 312 OFFCURVE",
"298 307 CURVE",
"294 302 OFFCURVE",
"292 296 OFFCURVE",
"289 291 CURVE",
"286 282 OFFCURVE",
"282 274 OFFCURVE",
"277 269 CURVE",
"275 266 OFFCURVE",
"273 263 OFFCURVE",
"271 260 CURVE",
"265 250 LINE",
"264 249 OFFCURVE",
"264 249 OFFCURVE",
"264 248 CURVE SMOOTH",
"264 247 OFFCURVE",
"264 246 OFFCURVE",
"263 245 CURVE",
"247 221 LINE",
"241 213 OFFCURVE",
"235 205 OFFCURVE",
"230 196 CURVE",
"223 188 OFFCURVE",
"218 180 OFFCURVE",
"213 172 CURVE SMOOTH",
"203 156 LINE",
"199 151 OFFCURVE",
"195 145 OFFCURVE",
"192 140 CURVE SMOOTH",
"189 135 OFFCURVE",
"185 130 OFFCURVE",
"182 125 CURVE SMOOTH",
"172 109 LINE",
"171 108 OFFCURVE",
"169 106 OFFCURVE",
"168 102 CURVE",
"149 74 OFFCURVE",
"130 45 OFFCURVE",
"109 16 CURVE SMOOTH",
"100 4 LINE",
"97 -1 OFFCURVE",
"93 -5 OFFCURVE",
"90 -9 CURVE",
"84 -15 LINE",
"80 -18 OFFCURVE",
"75 -23 OFFCURVE",
"68 -22 CURVE",
"60 -19 OFFCURVE",
"55 -11 OFFCURVE",
"58 -3 CURVE",
"58 0 OFFCURVE",
"58 2 OFFCURVE",
"59 5 CURVE",
"59 7 OFFCURVE",
"59 9 OFFCURVE",
"58 11 CURVE",
"58 15 LINE SMOOTH",
"58 17 OFFCURVE",
"58 19 OFFCURVE",
"59 21 CURVE",
"59 23 OFFCURVE",
"59 25 OFFCURVE",
"58 27 CURVE",
"58 37 LINE SMOOTH",
"58 67 OFFCURVE",
"59 97 OFFCURVE",
"61 127 CURVE SMOOTH",
"62 156 OFFCURVE",
"64 186 OFFCURVE",
"65 216 CURVE SMOOTH",
"68 275 OFFCURVE",
"69 334 OFFCURVE",
"65 393 CURVE",
"64 398 OFFCURVE",
"64 403 OFFCURVE",
"66 407 CURVE",
"66 424 LINE",
"67 431 OFFCURVE",
"67 439 OFFCURVE",
"67 446 CURVE",
"66 453 OFFCURVE",
"66 459 OFFCURVE",
"67 466 CURVE",
"67 477 LINE",
"66 481 OFFCURVE",
"66 485 OFFCURVE",
"67 488 CURVE",
"81 488 LINE",
"84 487 OFFCURVE",
"88 487 OFFCURVE",
"91 487 CURVE SMOOTH",
"101 487 LINE",
"108 486 OFFCURVE",
"115 486 OFFCURVE",
"122 489 CURVE",
"123 490 LINE",
"127 490 OFFCURVE",
"130 491 OFFCURVE",
"132 493 CURVE",
"138 496 LINE",
"139 497 OFFCURVE",
"141 497 OFFCURVE",
"142 498 CURVE",
"145 496 OFFCURVE",
"148 495 OFFCURVE",
"149 495 CURVE SMOOTH",
"150 495 OFFCURVE",
"151 496 OFFCURVE",
"152 499 CURVE",
"153 499 OFFCURVE",
"153 500 OFFCURVE",
"153 501 CURVE",
"154 504 OFFCURVE",
"157 506 OFFCURVE",
"161 506 CURVE SMOOTH",
"162 506 OFFCURVE",
"164 506 OFFCURVE",
"165 507 CURVE SMOOTH",
"166 508 OFFCURVE",
"167 508 OFFCURVE",
"168 509 CURVE",
"172 512 LINE",
"173 513 OFFCURVE",
"175 513 OFFCURVE",
"176 514 CURVE SMOOTH",
"177 515 OFFCURVE",
"178 515 OFFCURVE",
"179 515 CURVE SMOOTH",
"180 515 OFFCURVE",
"181 515 OFFCURVE",
"182 516 CURVE",
"185 518 OFFCURVE",
"187 519 OFFCURVE",
"190 520 CURVE",
"198 523 LINE",
"201 523 LINE",
"208 527 OFFCURVE",
"216 530 OFFCURVE",
"223 533 CURVE",
"226 534 OFFCURVE",
"227 535 OFFCURVE",
"228 536 CURVE",
"233 540 OFFCURVE",
"239 543 OFFCURVE",
"244 550 CURVE",
"243 553 OFFCURVE",
"243 555 OFFCURVE",
"244 557 CURVE SMOOTH",
"245 559 OFFCURVE",
"246 562 OFFCURVE",
"245 565 CURVE",
"239 569 OFFCURVE",
"233 570 OFFCURVE",
"227 567 CURVE SMOOTH",
"225 566 OFFCURVE",
"223 565 OFFCURVE",
"220 565 CURVE",
"217 564 OFFCURVE",
"215 563 OFFCURVE",
"213 562 CURVE",
"185 552 LINE",
"166 544 OFFCURVE",
"146 533 OFFCURVE",
"114 536 CURVE",
"112 536 OFFCURVE",
"110 537 OFFCURVE",
"107 538 CURVE SMOOTH",
"90 544 LINE",
"77 547 OFFCURVE",
"62 551 OFFCURVE",
"62 564 CURVE",
"63 565 OFFCURVE",
"63 567 OFFCURVE",
"63 569 CURVE",
"62 570 OFFCURVE",
"62 572 OFFCURVE",
"62 573 CURVE SMOOTH",
"62 578 LINE",
"61 583 OFFCURVE",
"60 587 OFFCURVE",
"60 592 CURVE",
"59 597 OFFCURVE",
"59 601 OFFCURVE",
"58 606 CURVE",
"58 612 LINE SMOOTH",
"58 614 OFFCURVE",
"58 616 OFFCURVE",
"59 617 CURVE",
"62 622 OFFCURVE",
"61 628 OFFCURVE",
"58 635 CURVE",
"57 636 OFFCURVE",
"57 638 OFFCURVE",
"56 640 CURVE",
"55 641 OFFCURVE",
"54 643 OFFCURVE",
"53 645 CURVE",
"50 650 OFFCURVE",
"44 652 OFFCURVE",
"36 652 CURVE SMOOTH",
"36 652 OFFCURVE",
"36 651 OFFCURVE",
"35 650 CURVE",
"30 640 OFFCURVE",
"28 631 OFFCURVE",
"27 622 CURVE",
"24 606 OFFCURVE",
"22 590 OFFCURVE",
"19 574 CURVE",
"19 571 OFFCURVE",
"19 568 OFFCURVE",
"16 565 CURVE",
"13 564 OFFCURVE",
"10 565 OFFCURVE",
"5 566 CURVE",
"-6 567 OFFCURVE",
"-17 567 OFFCURVE",
"-28 566 CURVE",
"-35 565 OFFCURVE",
"-42 565 OFFCURVE",
"-49 567 CURVE",
"-51 568 OFFCURVE",
"-53 568 OFFCURVE",
"-55 568 CURVE SMOOTH",
"-58 568 OFFCURVE",
"-60 568 OFFCURVE",
"-63 569 CURVE",
"-68 570 OFFCURVE",
"-72 570 OFFCURVE",
"-76 571 CURVE",
"-85 571 OFFCURVE",
"-96 572 OFFCURVE",
"-108 573 CURVE",
"-121 573 OFFCURVE",
"-133 572 OFFCURVE",
"-144 571 CURVE SMOOTH",
"-156 570 OFFCURVE",
"-165 564 OFFCURVE",
"-172 560 CURVE",
"-175 558 OFFCURVE",
"-179 556 OFFCURVE",
"-182 555 CURVE",
"-182 554 OFFCURVE",
"-183 553 OFFCURVE",
"-184 552 CURVE",
"-189 549 OFFCURVE",
"-181 548 OFFCURVE",
"-176 548 CURVE",
"-174 547 OFFCURVE",
"-172 547 OFFCURVE",
"-170 547 CURVE SMOOTH",
"-167 547 OFFCURVE",
"-164 547 OFFCURVE",
"-161 548 CURVE",
"-152 548 LINE",
"-141 551 OFFCURVE",
"-135 549 OFFCURVE",
"-124 546 CURVE",
"-119 543 OFFCURVE",
"-112 541 OFFCURVE",
"-107 540 CURVE",
"-94 539 OFFCURVE",
"-80 536 OFFCURVE",
"-66 531 CURVE SMOOTH",
"-63 530 OFFCURVE",
"-59 528 OFFCURVE",
"-56 526 CURVE",
"-53 525 OFFCURVE",
"-49 524 OFFCURVE",
"-45 523 CURVE SMOOTH",
"-34 520 LINE",
"-29 519 OFFCURVE",
"-24 517 OFFCURVE",
"-19 516 CURVE",
"-14 514 OFFCURVE",
"-9 512 OFFCURVE",
"-4 511 CURVE",
"0 508 OFFCURVE",
"4 506 OFFCURVE",
"9 505 CURVE"
);
}
);
width = 299;
}
);
note = t;
unicode = 0074;
},
{
glyphname = u;
layers = (
{
hints = (
{
horizontal = 1;
place = "{47, 35}";
type = Stem;
},
{
horizontal = 1;
place = "{459, 12}";
type = Stem;
},
{
place = "{-19, 97}";
type = Stem;
},
{
place = "{194, 94}";
type = Stem;
},
{
place = "{16.5, 57.5}";
type = Stem;
}
);
layerId = "54D2F088-3B12-48DB-A05E-ED165257FC93";
paths = (
{
closed = 1;
nodes = (
"291 -15 LINE",
"289 -8 OFFCURVE",
"288 -2 OFFCURVE",
"288 3 CURVE SMOOTH",
"288 6 OFFCURVE",
"288 10 OFFCURVE",
"289 14 CURVE",
"289 18 OFFCURVE",
"289 22 OFFCURVE",
"288 26 CURVE",
"287 31 OFFCURVE",
"288 36 OFFCURVE",
"290 40 CURVE",
"293 48 OFFCURVE",
"294 57 OFFCURVE",
"293 66 CURVE",
"292 70 OFFCURVE",
"292 74 OFFCURVE",
"292 77 CURVE SMOOTH",
"292 93 OFFCURVE",
"293 109 OFFCURVE",
"295 125 CURVE SMOOTH",
"296 132 OFFCURVE",
"296 140 OFFCURVE",
"297 148 CURVE",
"297 164 OFFCURVE",
"299 177 OFFCURVE",
"304 187 CURVE",
"308 197 OFFCURVE",
"311 207 OFFCURVE",
"312 219 CURVE",
"312 224 OFFCURVE",
"312 230 OFFCURVE",
"313 235 CURVE",
"314 246 OFFCURVE",
"316 257 OFFCURVE",
"318 268 CURVE",
"321 290 OFFCURVE",
"318 308 OFFCURVE",
"314 322 CURVE",
"311 329 OFFCURVE",
"310 336 OFFCURVE",
"311 344 CURVE",
"311 356 OFFCURVE",
"310 369 OFFCURVE",
"309 381 CURVE",
"309 384 OFFCURVE",
"309 387 OFFCURVE",
"308 388 CURVE",
"305 394 OFFCURVE",
"304 401 OFFCURVE",
"304 409 CURVE SMOOTH",
"304 416 OFFCURVE",
"301 420 OFFCURVE",
"294 421 CURVE",
"288 424 LINE",
"285 424 OFFCURVE",
"283 424 OFFCURVE",
"281 425 CURVE",
"272 428 OFFCURVE",
"263 427 OFFCURVE",
"253 424 CURVE",
"252 418 OFFCURVE",
"251 413 OFFCURVE",
"249 409 CURVE",
"240 373 LINE",
"237 358 OFFCURVE",
"234 344 OFFCURVE",
"229 329 CURVE",
"226 322 OFFCURVE",
"224 314 OFFCURVE",
"223 307 CURVE",
"219 291 OFFCURVE",
"216 277 OFFCURVE",
"215 264 CURVE SMOOTH",
"214 251 OFFCURVE",
"213 239 OFFCURVE",
"208 232 CURVE",
"200 216 OFFCURVE",
"190 201 OFFCURVE",
"179 186 CURVE",
"175 180 LINE SMOOTH",
"173 177 OFFCURVE",
"171 175 OFFCURVE",
"170 173 CURVE",
"162 161 OFFCURVE",
"154 149 OFFCURVE",
"145 138 CURVE",
"128 115 OFFCURVE",
"112 97 OFFCURVE",
"99 85 CURVE",
"98 84 OFFCURVE",
"97 84 OFFCURVE",
"97 84 CURVE",
"94 82 LINE",
"93 83 OFFCURVE",
"92 84 OFFCURVE",
"92 85 CURVE",
"90 87 LINE",
"85 91 OFFCURVE",
"84 96 OFFCURVE",
"83 103 CURVE",
"83 107 LINE SMOOTH",
"83 114 OFFCURVE",
"81 121 OFFCURVE",
"78 128 CURVE",
"77 131 OFFCURVE",
"77 135 OFFCURVE",
"78 139 CURVE",
"78 151 LINE SMOOTH",
"78 160 OFFCURVE",
"76 169 OFFCURVE",
"75 177 CURVE",
"75 186 OFFCURVE",
"76 196 OFFCURVE",
"78 205 CURVE SMOOTH",
"80 214 OFFCURVE",
"81 223 OFFCURVE",
"82 232 CURVE SMOOTH",
"85 267 OFFCURVE",
"83 302 OFFCURVE",
"79 337 CURVE SMOOTH",
"78 344 OFFCURVE",
"78 352 OFFCURVE",
"79 359 CURVE SMOOTH",
"80 366 OFFCURVE",
"79 374 OFFCURVE",
"78 381 CURVE",
"75 389 LINE",
"72 393 OFFCURVE",
"72 400 OFFCURVE",
"74 408 CURVE",
"75 411 OFFCURVE",
"75 415 OFFCURVE",
"76 419 CURVE",
"76 427 OFFCURVE",
"77 433 OFFCURVE",
"70 440 CURVE SMOOTH",
"69 441 OFFCURVE",
"69 441 OFFCURVE",
"69 442 CURVE",
"66 447 OFFCURVE",
"66 451 OFFCURVE",
"69 454 CURVE SMOOTH",
"70 455 OFFCURVE",
"70 456 OFFCURVE",
"70 457 CURVE SMOOTH",
"70 458 OFFCURVE",
"70 458 OFFCURVE",
"71 459 CURVE",
"70 460 OFFCURVE",
"70 462 OFFCURVE",
"69 464 CURVE",
"68 465 OFFCURVE",
"68 467 OFFCURVE",
"67 468 CURVE",
"60 471 OFFCURVE",
"54 471 OFFCURVE",
"47 471 CURVE SMOOTH",
"42 471 OFFCURVE",
"39 469 OFFCURVE",
"38 465 CURVE",
"37 462 OFFCURVE",
"35 459 OFFCURVE",
"34 457 CURVE",
"31 452 OFFCURVE",
"28 445 OFFCURVE",
"27 440 CURVE",
"24 431 LINE",
"18 404 LINE",
"15 389 LINE",
"8 370 OFFCURVE",
"3 348 OFFCURVE",
"-1 325 CURVE",
"-2 322 OFFCURVE",
"-3 319 OFFCURVE",
"-3 316 CURVE",
"-4 311 OFFCURVE",
"-5 304 OFFCURVE",
"-7 300 CURVE",
"-8 297 OFFCURVE",
"-9 295 OFFCURVE",
"-9 292 CURVE",
"-12 281 OFFCURVE",
"-13 271 OFFCURVE",
"-13 260 CURVE SMOOTH",
"-13 253 OFFCURVE",
"-14 247 OFFCURVE",
"-15 240 CURVE",
"-18 229 OFFCURVE",
"-19 217 OFFCURVE",
"-19 203 CURVE SMOOTH",
"-19 164 LINE",
"-18 157 OFFCURVE",
"-16 149 OFFCURVE",
"-15 141 CURVE SMOOTH",
"-14 133 OFFCURVE",
"-13 125 OFFCURVE",
"-11 118 CURVE",
"-6 103 OFFCURVE",
"-1 89 OFFCURVE",
"8 76 CURVE",
"9 75 OFFCURVE",
"10 74 OFFCURVE",
"11 73 CURVE",
"13 70 LINE",
"14 67 OFFCURVE",
"17 64 OFFCURVE",
"20 62 CURVE SMOOTH",
"27 57 OFFCURVE",
"34 54 OFFCURVE",
"40 51 CURVE",
"43 50 OFFCURVE",
"46 49 OFFCURVE",
"49 49 CURVE SMOOTH",
"56 49 OFFCURVE",
"62 49 OFFCURVE",
"67 46 CURVE",
"69 45 OFFCURVE",
"71 45 OFFCURVE",
"73 46 CURVE",
"76 46 OFFCURVE",
"80 46 OFFCURVE",
"84 47 CURVE",
"94 47 LINE SMOOTH",
"95 47 OFFCURVE",
"97 48 OFFCURVE",
"98 49 CURVE",
"102 52 OFFCURVE",
"106 54 OFFCURVE",
"111 56 CURVE",
"115 57 OFFCURVE",
"119 60 OFFCURVE",
"122 63 CURVE",
"131 70 OFFCURVE",
"138 76 OFFCURVE",
"145 85 CURVE",
"146 86 OFFCURVE",
"148 88 OFFCURVE",
"149 90 CURVE",
"153 94 LINE",
"154 97 OFFCURVE",
"156 99 OFFCURVE",
"158 101 CURVE SMOOTH",
"160 103 OFFCURVE",
"162 105 OFFCURVE",
"163 108 CURVE",
"170 119 OFFCURVE",
"175 128 OFFCURVE",
"183 136 CURVE SMOOTH",
"186 139 LINE",
"192 148 LINE",
"195 153 OFFCURVE",
"197 156 OFFCURVE",
"202 159 CURVE",
"202 153 LINE",
"199 140 OFFCURVE",
"199 132 OFFCURVE",
"199 124 CURVE SMOOTH",
"199 120 OFFCURVE",
"199 116 OFFCURVE",
"198 111 CURVE",
"197 102 OFFCURVE",
"197 94 OFFCURVE",
"197 85 CURVE",
"196 76 OFFCURVE",
"196 67 OFFCURVE",
"195 58 CURVE",
"194 55 OFFCURVE",
"194 50 OFFCURVE",
"194 45 CURVE SMOOTH",
"193 12 OFFCURVE",
"198 -27 OFFCURVE",
"222 -47 CURVE SMOOTH",
"230 -54 OFFCURVE",
"238 -59 OFFCURVE",
"249 -56 CURVE",
"252 -56 OFFCURVE",
"255 -56 OFFCURVE",
"257 -57 CURVE",
"264 -60 OFFCURVE",
"271 -58 OFFCURVE",
"278 -57 CURVE SMOOTH",
"287 -56 OFFCURVE",
"294 -48 OFFCURVE",
"300 -41 CURVE SMOOTH",
"309 -31 LINE",
"311 -30 OFFCURVE",
"313 -28 OFFCURVE",
"315 -26 CURVE",
"316 -24 OFFCURVE",
"318 -22 OFFCURVE",
"320 -21 CURVE",
"323 -17 OFFCURVE",
"327 -13 OFFCURVE",
"331 -9 CURVE SMOOTH",
"342 2 LINE SMOOTH",
"345 5 OFFCURVE",
"347 7 OFFCURVE",
"348 9 CURVE",
"350 11 LINE",
"351 11 OFFCURVE",
"351 12 OFFCURVE",
"352 13 CURVE",
"373 48 OFFCURVE",
"392 82 OFFCURVE",
"411 118 CURVE",
"412 121 OFFCURVE",
"414 125 OFFCURVE",
"416 128 CURVE",
"417 131 OFFCURVE",
"419 134 OFFCURVE",
"420 137 CURVE SMOOTH",
"421 140 OFFCURVE",
"423 142 OFFCURVE",
"425 144 CURVE",
"427 145 OFFCURVE",
"429 148 OFFCURVE",
"430 151 CURVE",
"435 159 OFFCURVE",
"439 167 OFFCURVE",
"444 174 CURVE SMOOTH",
"449 181 OFFCURVE",
"453 189 OFFCURVE",
"457 197 CURVE",
"458 200 OFFCURVE",
"459 201 OFFCURVE",
"459 201 CURVE",
"466 210 OFFCURVE",
"472 218 OFFCURVE",
"475 230 CURVE",
"475 231 OFFCURVE",
"476 233 OFFCURVE",
"477 235 CURVE",
"478 236 OFFCURVE",
"478 238 OFFCURVE",
"479 239 CURVE SMOOTH",
"482 242 OFFCURVE",
"482 244 OFFCURVE",
"481 246 CURVE",
"480 249 OFFCURVE",
"481 253 OFFCURVE",
"483 256 CURVE",
"484 257 OFFCURVE",
"484 257 OFFCURVE",
"484 258 CURVE",
"486 266 LINE",
"487 268 OFFCURVE",
"488 271 OFFCURVE",
"488 274 CURVE",
"486 280 OFFCURVE",
"487 285 OFFCURVE",
"491 289 CURVE SMOOTH",
"493 291 OFFCURVE",
"494 294 OFFCURVE",
"493 297 CURVE",
"487 298 OFFCURVE",
"480 297 OFFCURVE",
"472 295 CURVE",
"471 289 OFFCURVE",
"469 284 OFFCURVE",
"466 279 CURVE SMOOTH",
"463 274 OFFCURVE",
"460 268 OFFCURVE",
"457 263 CURVE",
"454 256 LINE",
"453 253 OFFCURVE",
"451 251 OFFCURVE",
"450 249 CURVE",
"449 248 OFFCURVE",
"449 247 OFFCURVE",
"449 246 CURVE SMOOTH",
"449 245 OFFCURVE",
"449 244 OFFCURVE",
"448 243 CURVE",
"437 228 OFFCURVE",
"428 212 OFFCURVE",
"419 195 CURVE SMOOTH",
"402 162 OFFCURVE",
"385 135 OFFCURVE",
"373 115 CURVE",
"366 105 OFFCURVE",
"360 95 OFFCURVE",
"354 84 CURVE",
"348 75 LINE SMOOTH",
"344 69 OFFCURVE",
"338 59 OFFCURVE",
"335 52 CURVE",
"333 49 OFFCURVE",
"331 46 OFFCURVE",
"330 43 CURVE",
"328 40 OFFCURVE",
"326 36 OFFCURVE",
"324 33 CURVE",
"318 23 LINE",
"316 19 OFFCURVE",
"314 15 OFFCURVE",
"311 12 CURVE",
"308 8 OFFCURVE",
"306 4 OFFCURVE",
"303 1 CURVE",
"295 -11 LINE"
);
}
);
width = 471;
}
);
note = u;
unicode = 0075;
},
{
glyphname = v;
layers = (
{
hints = (
{
horizontal = 1;
place = "{-12.95, 28.95}";
type = Stem;
},
{
horizontal = 1;
place = "{188, 22}";
type = Stem;
},
{
horizontal = 1;
place = "{453, 25}";
type = Stem;
},
{
place = "{-12, 94.5}";
type = Stem;
},
{
place = "{149, 13}";
type = Stem;
},
{
place = "{202, 56}";
type = Stem;
},
{
place = "{234, 59}";
type = Stem;
},
{
place = "{276, 50}";
type = Stem;
}
);
layerId = "54D2F088-3B12-48DB-A05E-ED165257FC93";
paths = (
{
closed = 1;
nodes = (
"-17 495 OFFCURVE",
"-17 487 OFFCURVE",
"-16 478 CURVE",
"-13 462 OFFCURVE",
"-12 445 OFFCURVE",
"-12 428 CURVE SMOOTH",
"-12 388 LINE SMOOTH",
"-12 383 OFFCURVE",
"-12 379 OFFCURVE",
"-11 375 CURVE",
"-10 370 OFFCURVE",
"-10 365 OFFCURVE",
"-10 360 CURVE SMOOTH",
"-10 347 OFFCURVE",
"-9 334 OFFCURVE",
"-8 321 CURVE SMOOTH",
"-5 282 LINE",
"-5 271 OFFCURVE",
"-4 261 OFFCURVE",
"-2 250 CURVE",
"-2 246 OFFCURVE",
"-2 242 OFFCURVE",
"-1 239 CURVE",
"0 235 OFFCURVE",
"0 231 OFFCURVE",
"1 227 CURVE SMOOTH",
"4 216 OFFCURVE",
"6 206 OFFCURVE",
"8 195 CURVE",
"9 184 OFFCURVE",
"12 174 OFFCURVE",
"15 163 CURVE",
"16 161 OFFCURVE",
"17 159 OFFCURVE",
"17 157 CURVE SMOOTH",
"17 152 OFFCURVE",
"18 145 OFFCURVE",
"19 142 CURVE SMOOTH",
"22 133 OFFCURVE",
"25 123 OFFCURVE",
"26 113 CURVE SMOOTH",
"27 102 OFFCURVE",
"30 92 OFFCURVE",
"33 83 CURVE",
"33 82 OFFCURVE",
"33 81 OFFCURVE",
"34 80 CURVE",
"37 68 OFFCURVE",
"39 56 OFFCURVE",
"44 45 CURVE",
"50 28 OFFCURVE",
"60 14 OFFCURVE",
"75 1 CURVE",
"91 -14 OFFCURVE",
"118 -19 OFFCURVE",
"138 -4 CURVE SMOOTH",
"142 -1 OFFCURVE",
"146 2 OFFCURVE",
"151 4 CURVE",
"155 6 OFFCURVE",
"159 9 OFFCURVE",
"162 12 CURVE",
"162 13 OFFCURVE",
"162 13 OFFCURVE",
"163 13 CURVE",
"167 14 OFFCURVE",
"171 16 OFFCURVE",
"174 19 CURVE SMOOTH",
"177 22 OFFCURVE",
"180 24 OFFCURVE",
"183 26 CURVE",
"188 29 OFFCURVE",
"192 33 OFFCURVE",
"195 39 CURVE",
"196 42 OFFCURVE",
"198 44 OFFCURVE",
"199 47 CURVE SMOOTH",
"202 56 LINE",
"218 87 OFFCURVE",
"233 118 OFFCURVE",
"248 150 CURVE",
"251 155 OFFCURVE",
"252 161 OFFCURVE",
"253 167 CURVE",
"253 173 OFFCURVE",
"255 179 OFFCURVE",
"258 184 CURVE",
"259 187 OFFCURVE",
"260 189 OFFCURVE",
"259 191 CURVE",
"257 198 OFFCURVE",
"259 203 OFFCURVE",
"265 207 CURVE",
"266 207 OFFCURVE",
"267 206 OFFCURVE",
"270 205 CURVE",
"282 200 OFFCURVE",
"294 195 OFFCURVE",
"307 191 CURVE",
"315 188 OFFCURVE",
"324 187 OFFCURVE",
"333 188 CURVE",
"356 192 OFFCURVE",
"379 199 OFFCURVE",
"399 211 CURVE",
"402 212 OFFCURVE",
"404 214 OFFCURVE",
"407 215 CURVE",
"415 218 LINE",
"416 218 OFFCURVE",
"417 219 OFFCURVE",
"418 220 CURVE SMOOTH",
"423 225 OFFCURVE",
"429 230 OFFCURVE",
"435 234 CURVE",
"440 237 OFFCURVE",
"444 243 OFFCURVE",
"447 250 CURVE",
"451 253 OFFCURVE",
"454 257 OFFCURVE",
"456 262 CURVE",
"458 266 OFFCURVE",
"461 270 OFFCURVE",
"464 274 CURVE",
"465 275 OFFCURVE",
"466 277 OFFCURVE",
"467 279 CURVE",
"467 280 OFFCURVE",
"468 282 OFFCURVE",
"469 283 CURVE",
"472 287 OFFCURVE",
"473 291 OFFCURVE",
"471 296 CURVE",
"470 297 OFFCURVE",
"470 299 OFFCURVE",
"470 301 CURVE",
"469 302 OFFCURVE",
"468 302 OFFCURVE",
"467 302 CURVE SMOOTH",
"466 302 OFFCURVE",
"466 302 OFFCURVE",
"465 303 CURVE",
"456 308 OFFCURVE",
"447 304 OFFCURVE",
"440 295 CURVE",
"435 286 OFFCURVE",
"429 278 OFFCURVE",
"422 270 CURVE",
"419 266 LINE",
"414 255 OFFCURVE",
"406 248 OFFCURVE",
"398 241 CURVE",
"384 227 OFFCURVE",
"368 217 OFFCURVE",
"349 210 CURVE SMOOTH",
"343 208 OFFCURVE",
"338 209 OFFCURVE",
"334 212 CURVE",
"319 221 OFFCURVE",
"306 229 OFFCURVE",
"299 246 CURVE",
"298 249 OFFCURVE",
"296 251 OFFCURVE",
"293 254 CURVE SMOOTH",
"287 260 OFFCURVE",
"283 267 OFFCURVE",
"281 276 CURVE",
"288 284 OFFCURVE",
"292 293 OFFCURVE",
"293 304 CURVE",
"294 311 OFFCURVE",
"297 317 OFFCURVE",
"301 323 CURVE",
"308 335 OFFCURVE",
"311 347 OFFCURVE",
"313 359 CURVE SMOOTH",
"315 370 OFFCURVE",
"317 381 OFFCURVE",
"322 393 CURVE SMOOTH",
"324 398 OFFCURVE",
"325 404 OFFCURVE",
"326 411 CURVE",
"326 430 OFFCURVE",
"322 452 OFFCURVE",
"311 468 CURVE",
"308 473 OFFCURVE",
"304 476 OFFCURVE",
"299 476 CURVE SMOOTH",
"294 476 OFFCURVE",
"289 477 OFFCURVE",
"284 478 CURVE SMOOTH",
"279 479 OFFCURVE",
"273 479 OFFCURVE",
"268 478 CURVE SMOOTH",
"263 477 OFFCURVE",
"259 477 OFFCURVE",
"254 478 CURVE",
"247 478 OFFCURVE",
"242 476 OFFCURVE",
"238 471 CURVE",
"233 464 OFFCURVE",
"227 457 OFFCURVE",
"223 449 CURVE",
"215 437 OFFCURVE",
"211 424 OFFCURVE",
"208 409 CURVE",
"205 398 OFFCURVE",
"202 386 OFFCURVE",
"202 375 CURVE SMOOTH",
"202 352 OFFCURVE",
"203 331 OFFCURVE",
"206 308 CURVE",
"207 291 OFFCURVE",
"218 272 OFFCURVE",
"224 261 CURVE",
"227 255 OFFCURVE",
"230 249 OFFCURVE",
"234 244 CURVE",
"236 239 OFFCURVE",
"236 235 OFFCURVE",
"235 232 CURVE",
"232 220 LINE SMOOTH",
"231 216 OFFCURVE",
"229 212 OFFCURVE",
"228 208 CURVE",
"225 199 OFFCURVE",
"222 191 OFFCURVE",
"220 183 CURVE",
"217 175 OFFCURVE",
"215 167 OFFCURVE",
"212 158 CURVE",
"211 153 OFFCURVE",
"209 149 OFFCURVE",
"208 144 CURVE",
"206 139 OFFCURVE",
"204 135 OFFCURVE",
"203 130 CURVE",
"202 129 OFFCURVE",
"202 127 OFFCURVE",
"202 125 CURVE",
"201 123 OFFCURVE",
"201 121 OFFCURVE",
"200 120 CURVE",
"195 111 OFFCURVE",
"191 102 OFFCURVE",
"187 93 CURVE SMOOTH",
"183 84 OFFCURVE",
"179 75 OFFCURVE",
"174 66 CURVE SMOOTH",
"171 61 OFFCURVE",
"169 55 OFFCURVE",
"166 49 CURVE",
"161 37 OFFCURVE",
"157 30 OFFCURVE",
"149 19 CURVE",
"149 18 OFFCURVE",
"147 17 OFFCURVE",
"144 16 CURVE",
"142 17 OFFCURVE",
"141 19 OFFCURVE",
"141 21 CURVE SMOOTH",
"141 23 OFFCURVE",
"140 25 OFFCURVE",
"138 26 CURVE",
"135 27 OFFCURVE",
"133 29 OFFCURVE",
"132 32 CURVE SMOOTH",
"131 35 OFFCURVE",
"129 38 OFFCURVE",
"128 41 CURVE SMOOTH",
"127 44 OFFCURVE",
"127 46 OFFCURVE",
"126 48 CURVE SMOOTH",
"124 52 OFFCURVE",
"123 59 OFFCURVE",
"124 64 CURVE",
"125 66 OFFCURVE",
"125 68 OFFCURVE",
"126 71 CURVE",
"126 79 OFFCURVE",
"125 86 OFFCURVE",
"122 93 CURVE",
"119 104 OFFCURVE",
"117 116 OFFCURVE",
"117 129 CURVE",
"116 153 OFFCURVE",
"114 176 OFFCURVE",
"107 196 CURVE",
"103 205 OFFCURVE",
"100 215 OFFCURVE",
"99 225 CURVE",
"96 244 OFFCURVE",
"93 264 OFFCURVE",
"91 284 CURVE SMOOTH",
"89 304 OFFCURVE",
"87 324 OFFCURVE",
"84 343 CURVE",
"81 373 LINE SMOOTH",
"80 383 OFFCURVE",
"78 392 OFFCURVE",
"75 401 CURVE",
"70 410 OFFCURVE",
"68 418 OFFCURVE",
"67 425 CURVE",
"66 430 OFFCURVE",
"64 436 OFFCURVE",
"61 441 CURVE SMOOTH",
"56 449 OFFCURVE",
"52 457 OFFCURVE",
"49 466 CURVE",
"48 470 OFFCURVE",
"46 473 OFFCURVE",
"42 476 CURVE",
"37 479 OFFCURVE",
"34 483 OFFCURVE",
"33 490 CURVE",
"32 502 OFFCURVE",
"13 505 OFFCURVE",
"-6 505 CURVE",
"-10 506 OFFCURVE",
"-13 506 OFFCURVE",
"-16 503 CURVE"
);
},
{
closed = 1;
nodes = (
"280 442 OFFCURVE",
"281 432 OFFCURVE",
"278 421 CURVE",
"277 416 OFFCURVE",
"276 412 OFFCURVE",
"276 408 CURVE",
"275 403 OFFCURVE",
"275 399 OFFCURVE",
"274 394 CURVE",
"274 383 LINE",
"273 379 OFFCURVE",
"273 375 OFFCURVE",
"273 372 CURVE",
"272 371 OFFCURVE",
"272 369 OFFCURVE",
"272 368 CURVE SMOOTH",
"272 366 OFFCURVE",
"272 364 OFFCURVE",
"271 363 CURVE",
"270 360 OFFCURVE",
"269 357 OFFCURVE",
"269 354 CURVE",
"268 349 OFFCURVE",
"264 340 OFFCURVE",
"263 337 CURVE",
"260 337 OFFCURVE",
"259 338 OFFCURVE",
"258 340 CURVE",
"258 365 LINE",
"258 382 LINE SMOOTH",
"258 387 OFFCURVE",
"257 393 OFFCURVE",
"256 398 CURVE",
"255 411 OFFCURVE",
"256 422 OFFCURVE",
"263 433 CURVE",
"266 436 OFFCURVE",
"267 441 OFFCURVE",
"267 447 CURVE SMOOTH",
"267 450 OFFCURVE",
"269 452 OFFCURVE",
"273 453 CURVE"
);
}
);
width = 443;
}
);
note = v;
unicode = 0076;
},
{
glyphname = w;
layers = (
{
hints = (
{
horizontal = 1;
place = "{55.5, 41.97}";
type = Stem;
},
{
horizontal = 1;
place = "{160, 25.66}";
type = Stem;
},
{
place = "{-21, 92}";
type = Stem;
},
{
place = "{152, 103}";
type = Stem;
},
{
place = "{445, 20}";
type = Stem;
},
{
place = "{434, 16.5}";
type = Stem;
},
{
horizontal = 1;
place = "{-8, 46}";
type = Stem;
},
{
place = "{358, 74}";
type = Stem;
},
{
place = "{142.5, 111.5}";
type = Stem;
}
);
layerId = "54D2F088-3B12-48DB-A05E-ED165257FC93";
paths = (
{
closed = 1;
nodes = (
"621 302 OFFCURVE",
"618 300 OFFCURVE",
"613 291 CURVE",
"608 280 OFFCURVE",
"603 272 OFFCURVE",
"596 261 CURVE",
"589 252 OFFCURVE",
"582 242 OFFCURVE",
"573 232 CURVE SMOOTH",
"555 211 OFFCURVE",
"533 195 OFFCURVE",
"509 188 CURVE SMOOTH",
"485 181 OFFCURVE",
"459 190 OFFCURVE",
"450 209 CURVE",
"449 210 OFFCURVE",
"448 212 OFFCURVE",
"448 214 CURVE SMOOTH",
"448 215 OFFCURVE",
"447 217 OFFCURVE",
"446 218 CURVE",
"442 224 OFFCURVE",
"442 230 OFFCURVE",
"445 236 CURVE",
"447 241 OFFCURVE",
"448 247 OFFCURVE",
"449 252 CURVE SMOOTH",
"452 268 LINE SMOOTH",
"453 273 OFFCURVE",
"454 277 OFFCURVE",
"455 282 CURVE SMOOTH",
"458 295 LINE",
"461 302 OFFCURVE",
"462 308 OFFCURVE",
"463 315 CURVE",
"464 320 OFFCURVE",
"465 325 OFFCURVE",
"465 330 CURVE SMOOTH",
"465 335 OFFCURVE",
"466 340 OFFCURVE",
"467 345 CURVE",
"468 352 OFFCURVE",
"468 357 OFFCURVE",
"466 362 CURVE",
"463 373 OFFCURVE",
"462 382 OFFCURVE",
"464 390 CURVE SMOOTH",
"467 402 OFFCURVE",
"461 411 OFFCURVE",
"454 420 CURVE",
"451 421 OFFCURVE",
"449 422 OFFCURVE",
"448 424 CURVE",
"445 428 OFFCURVE",
"441 434 OFFCURVE",
"432 433 CURVE",
"412 433 LINE",
"400 434 OFFCURVE",
"389 433 OFFCURVE",
"379 428 CURVE",
"374 416 OFFCURVE",
"369 405 OFFCURVE",
"366 393 CURVE",
"361 376 OFFCURVE",
"358 361 OFFCURVE",
"358 342 CURVE SMOOTH",
"358 334 OFFCURVE",
"357 326 OFFCURVE",
"356 319 CURVE",
"356 315 LINE",
"357 308 OFFCURVE",
"358 302 OFFCURVE",
"359 295 CURVE SMOOTH",
"362 275 LINE SMOOTH",
"367 242 OFFCURVE",
"383 213 OFFCURVE",
"399 197 CURVE SMOOTH",
"400 196 OFFCURVE",
"402 195 OFFCURVE",
"403 192 CURVE",
"397 180 LINE",
"395 175 OFFCURVE",
"393 171 OFFCURVE",
"391 168 CURVE",
"378 143 LINE SMOOTH",
"370 127 OFFCURVE",
"359 111 OFFCURVE",
"348 95 CURVE",
"336 79 OFFCURVE",
"326 66 OFFCURVE",
"316 55 CURVE",
"311 49 OFFCURVE",
"306 43 OFFCURVE",
"301 38 CURVE SMOOTH",
"297 34 OFFCURVE",
"296 33 OFFCURVE",
"292 33 CURVE",
"287 34 OFFCURVE",
"282 35 OFFCURVE",
"277 38 CURVE SMOOTH",
"269 43 OFFCURVE",
"262 48 OFFCURVE",
"259 59 CURVE",
"258 64 OFFCURVE",
"257 68 OFFCURVE",
"254 73 CURVE",
"251 77 OFFCURVE",
"251 82 OFFCURVE",
"252 87 CURVE",
"254 106 OFFCURVE",
"255 126 OFFCURVE",
"255 145 CURVE",
"254 164 OFFCURVE",
"254 182 OFFCURVE",
"254 201 CURVE",
"253 240 OFFCURVE",
"252 275 OFFCURVE",
"245 314 CURVE SMOOTH",
"244 319 OFFCURVE",
"243 324 OFFCURVE",
"243 329 CURVE",
"240 343 LINE",
"239 346 OFFCURVE",
"238 350 OFFCURVE",
"238 353 CURVE SMOOTH",
"238 363 LINE",
"239 368 OFFCURVE",
"238 372 OFFCURVE",
"237 377 CURVE",
"235 384 OFFCURVE",
"230 387 OFFCURVE",
"223 386 CURVE",
"208 383 OFFCURVE",
"195 378 OFFCURVE",
"192 370 CURVE",
"191 365 OFFCURVE",
"189 361 OFFCURVE",
"187 357 CURVE",
"183 348 OFFCURVE",
"179 336 OFFCURVE",
"175 324 CURVE",
"173 317 OFFCURVE",
"171 310 OFFCURVE",
"168 303 CURVE",
"168 301 LINE",
"167 300 OFFCURVE",
"167 299 OFFCURVE",
"167 298 CURVE",
"166 289 OFFCURVE",
"164 280 OFFCURVE",
"163 271 CURVE",
"161 262 OFFCURVE",
"159 253 OFFCURVE",
"158 244 CURVE",
"155 229 OFFCURVE",
"153 215 OFFCURVE",
"144 202 CURVE",
"141 196 LINE",
"140 192 OFFCURVE",
"137 186 OFFCURVE",
"134 182 CURVE SMOOTH",
"130 177 OFFCURVE",
"128 172 OFFCURVE",
"126 168 CURVE",
"122 162 LINE",
"113 147 OFFCURVE",
"105 134 OFFCURVE",
"97 119 CURVE",
"94 112 OFFCURVE",
"88 106 OFFCURVE",
"81 100 CURVE",
"74 93 OFFCURVE",
"71 102 OFFCURVE",
"71 109 CURVE SMOOTH",
"71 116 OFFCURVE",
"70 120 OFFCURVE",
"69 125 CURVE",
"68 137 OFFCURVE",
"68 150 OFFCURVE",
"71 163 CURVE",
"75 190 OFFCURVE",
"79 210 OFFCURVE",
"79 230 CURVE",
"78 240 OFFCURVE",
"79 250 OFFCURVE",
"81 260 CURVE",
"84 271 OFFCURVE",
"85 281 OFFCURVE",
"85 292 CURVE",
"84 294 OFFCURVE",
"84 296 OFFCURVE",
"85 298 CURVE",
"85 304 LINE",
"86 311 OFFCURVE",
"87 315 OFFCURVE",
"87 322 CURVE SMOOTH",
"87 334 LINE",
"86 337 OFFCURVE",
"87 341 OFFCURVE",
"88 344 CURVE",
"89 345 OFFCURVE",
"88 348 OFFCURVE",
"87 351 CURVE",
"86 355 OFFCURVE",
"86 359 OFFCURVE",
"85 363 CURVE SMOOTH",
"84 367 OFFCURVE",
"85 371 OFFCURVE",
"86 376 CURVE",
"87 378 OFFCURVE",
"87 380 OFFCURVE",
"86 383 CURVE SMOOTH",
"82 396 LINE",
"81 397 OFFCURVE",
"81 399 OFFCURVE",
"80 401 CURVE",
"79 405 OFFCURVE",
"77 409 OFFCURVE",
"76 413 CURVE SMOOTH",
"73 424 LINE SMOOTH",
"70 436 OFFCURVE",
"63 444 OFFCURVE",
"55 452 CURVE SMOOTH",
"53 454 OFFCURVE",
"51 455 OFFCURVE",
"50 455 CURVE",
"40 458 LINE",
"36 458 OFFCURVE",
"32 458 OFFCURVE",
"29 459 CURVE",
"18 459 OFFCURVE",
"17 448 OFFCURVE",
"15 440 CURVE SMOOTH",
"14 436 OFFCURVE",
"12 432 OFFCURVE",
"11 428 CURVE SMOOTH",
"3 392 OFFCURVE",
"-4 355 OFFCURVE",
"-11 319 CURVE SMOOTH",
"-14 306 OFFCURVE",
"-17 292 OFFCURVE",
"-16 279 CURVE",
"-16 277 LINE",
"-17 276 OFFCURVE",
"-17 275 OFFCURVE",
"-17 274 CURVE",
"-20 263 OFFCURVE",
"-20 254 OFFCURVE",
"-19 243 CURVE",
"-19 237 OFFCURVE",
"-19 232 OFFCURVE",
"-20 229 CURVE",
"-21 224 OFFCURVE",
"-21 220 OFFCURVE",
"-21 215 CURVE SMOOTH",
"-21 210 OFFCURVE",
"-21 205 OFFCURVE",
"-21 200 CURVE SMOOTH",
"-21 193 LINE",
"-22 190 OFFCURVE",
"-22 188 OFFCURVE",
"-22 186 CURVE SMOOTH",
"-22 180 LINE",
"-19 137 OFFCURVE",
"-14 99 OFFCURVE",
"23 72 CURVE SMOOTH",
"27 69 OFFCURVE",
"30 67 OFFCURVE",
"33 64 CURVE",
"48 51 OFFCURVE",
"80 55 OFFCURVE",
"96 62 CURVE",
"117 68 OFFCURVE",
"131 81 OFFCURVE",
"138 102 CURVE",
"140 107 OFFCURVE",
"143 111 OFFCURVE",
"146 116 CURVE SMOOTH",
"149 121 OFFCURVE",
"152 117 OFFCURVE",
"152 114 CURVE SMOOTH",
"152 112 OFFCURVE",
"152 110 OFFCURVE",
"153 109 CURVE",
"154 90 OFFCURVE",
"156 72 OFFCURVE",
"163 55 CURVE SMOOTH",
"170 38 OFFCURVE",
"181 26 OFFCURVE",
"195 17 CURVE",
"202 12 OFFCURVE",
"210 9 OFFCURVE",
"219 6 CURVE",
"227 3 OFFCURVE",
"235 -1 OFFCURVE",
"242 -4 CURVE",
"245 -5 OFFCURVE",
"247 -6 OFFCURVE",
"250 -6 CURVE",
"254 -7 OFFCURVE",
"259 -8 OFFCURVE",
"266 -8 CURVE",
"269 -9 OFFCURVE",
"272 -9 OFFCURVE",
"275 -8 CURVE",
"282 -6 OFFCURVE",
"289 -5 OFFCURVE",
"294 -6 CURVE",
"307 -7 OFFCURVE",
"323 0 OFFCURVE",
"332 11 CURVE",
"334 14 OFFCURVE",
"336 16 OFFCURVE",
"339 19 CURVE SMOOTH",
"346 26 LINE SMOOTH",
"353 33 OFFCURVE",
"359 42 OFFCURVE",
"362 51 CURVE SMOOTH",
"365 60 OFFCURVE",
"370 69 OFFCURVE",
"375 78 CURVE SMOOTH",
"384 93 OFFCURVE",
"392 109 OFFCURVE",
"399 126 CURVE",
"400 129 OFFCURVE",
"402 132 OFFCURVE",
"404 135 CURVE",
"407 140 OFFCURVE",
"410 147 OFFCURVE",
"414 155 CURVE",
"417 162 OFFCURVE",
"420 168 OFFCURVE",
"421 172 CURVE",
"422 174 OFFCURVE",
"423 176 OFFCURVE",
"425 177 CURVE",
"427 177 LINE",
"442 169 OFFCURVE",
"458 163 OFFCURVE",
"476 160 CURVE",
"485 158 OFFCURVE",
"492 159 OFFCURVE",
"499 162 CURVE",
"508 165 LINE",
"511 165 OFFCURVE",
"514 166 OFFCURVE",
"517 167 CURVE",
"518 167 OFFCURVE",
"520 167 OFFCURVE",
"521 168 CURVE",
"524 168 LINE",
"543 175 OFFCURVE",
"555 183 OFFCURVE",
"570 195 CURVE",
"575 200 OFFCURVE",
"581 204 OFFCURVE",
"586 208 CURVE SMOOTH",
"591 212 OFFCURVE",
"595 217 OFFCURVE",
"600 222 CURVE",
"609 233 OFFCURVE",
"612 243 OFFCURVE",
"616 255 CURVE",
"617 256 OFFCURVE",
"617 258 OFFCURVE",
"617 259 CURVE SMOOTH",
"617 260 OFFCURVE",
"617 261 OFFCURVE",
"618 262 CURVE SMOOTH",
"619 263 OFFCURVE",
"619 265 OFFCURVE",
"619 266 CURVE SMOOTH",
"619 267 OFFCURVE",
"620 268 OFFCURVE",
"621 269 CURVE",
"628 278 OFFCURVE",
"632 288 OFFCURVE",
"632 299 CURVE"
);
},
{
closed = 1;
nodes = (
"448 382 OFFCURVE",
"446 365 OFFCURVE",
"445 349 CURVE",
"444 340 OFFCURVE",
"444 332 OFFCURVE",
"443 323 CURVE",
"443 321 LINE",
"442 320 OFFCURVE",
"442 320 OFFCURVE",
"442 319 CURVE",
"439 308 OFFCURVE",
"437 301 OFFCURVE",
"436 290 CURVE",
"436 289 OFFCURVE",
"436 287 OFFCURVE",
"435 286 CURVE SMOOTH",
"434 285 OFFCURVE",
"434 283 OFFCURVE",
"433 282 CURVE",
"432 285 OFFCURVE",
"431 287 OFFCURVE",
"432 290 CURVE",
"432 292 OFFCURVE",
"432 294 OFFCURVE",
"431 297 CURVE",
"431 309 LINE",
"430 313 OFFCURVE",
"430 317 OFFCURVE",
"430 321 CURVE SMOOTH",
"430 332 LINE SMOOTH",
"430 336 OFFCURVE",
"431 340 OFFCURVE",
"432 344 CURVE",
"432 368 LINE",
"433 371 OFFCURVE",
"433 374 OFFCURVE",
"433 377 CURVE SMOOTH",
"433 382 OFFCURVE",
"433 385 OFFCURVE",
"436 393 CURVE"
);
}
);
width = 609;
}
);
note = w;
unicode = 0077;
},
{
glyphname = x;
layers = (
{
hints = (
{
horizontal = 1;
place = "{-51, 45}";
type = Stem;
},
{
horizontal = 1;
place = "{383, 12}";
type = Stem;
},
{
place = "{-77, 580}";
type = Stem;
}
);
layerId = "54D2F088-3B12-48DB-A05E-ED165257FC93";
paths = (
{
closed = 1;
nodes = (
"503 298 LINE",
"500 299 OFFCURVE",
"496 300 OFFCURVE",
"493 299 CURVE",
"485 298 OFFCURVE",
"480 294 OFFCURVE",
"477 287 CURVE SMOOTH",
"475 282 OFFCURVE",
"473 278 OFFCURVE",
"470 273 CURVE",
"469 270 OFFCURVE",
"467 267 OFFCURVE",
"466 264 CURVE",
"462 254 LINE SMOOTH",
"459 246 OFFCURVE",
"457 238 OFFCURVE",
"455 230 CURVE SMOOTH",
"453 222 OFFCURVE",
"451 214 OFFCURVE",
"448 207 CURVE",
"447 203 OFFCURVE",
"446 200 OFFCURVE",
"445 199 CURVE",
"440 190 OFFCURVE",
"436 181 OFFCURVE",
"433 172 CURVE",
"429 163 OFFCURVE",
"424 154 OFFCURVE",
"419 145 CURVE",
"418 142 OFFCURVE",
"417 141 OFFCURVE",
"416 140 CURVE",
"408 121 OFFCURVE",
"399 103 OFFCURVE",
"390 86 CURVE",
"379 67 OFFCURVE",
"369 49 OFFCURVE",
"356 32 CURVE",
"347 19 OFFCURVE",
"336 6 OFFCURVE",
"325 -6 CURVE",
"314 -14 OFFCURVE",
"310 -18 OFFCURVE",
"303 -17 CURVE",
"295 -14 OFFCURVE",
"287 -13 OFFCURVE",
"282 -6 CURVE",
"281 -5 OFFCURVE",
"279 -3 OFFCURVE",
"278 -2 CURVE",
"274 1 LINE",
"268 6 OFFCURVE",
"264 11 OFFCURVE",
"261 18 CURVE",
"258 26 LINE",
"257 29 OFFCURVE",
"255 31 OFFCURVE",
"254 34 CURVE",
"251 41 OFFCURVE",
"249 49 OFFCURVE",
"246 56 CURVE SMOOTH",
"243 63 OFFCURVE",
"241 71 OFFCURVE",
"240 78 CURVE",
"240 80 LINE",
"239 81 OFFCURVE",
"239 81 OFFCURVE",
"239 82 CURVE",
"235 92 OFFCURVE",
"231 102 OFFCURVE",
"228 112 CURVE",
"224 121 OFFCURVE",
"219 131 OFFCURVE",
"214 140 CURVE SMOOTH",
"211 145 OFFCURVE",
"209 149 OFFCURVE",
"207 154 CURVE",
"202 165 OFFCURVE",
"203 168 OFFCURVE",
"211 177 CURVE",
"215 181 OFFCURVE",
"219 185 OFFCURVE",
"223 190 CURVE",
"231 198 OFFCURVE",
"235 203 OFFCURVE",
"243 212 CURVE SMOOTH",
"248 218 OFFCURVE",
"252 224 OFFCURVE",
"256 230 CURVE SMOOTH",
"260 236 OFFCURVE",
"264 242 OFFCURVE",
"269 247 CURVE",
"278 258 OFFCURVE",
"285 268 OFFCURVE",
"290 278 CURVE",
"294 285 OFFCURVE",
"298 292 OFFCURVE",
"301 301 CURVE SMOOTH",
"303 307 OFFCURVE",
"306 314 OFFCURVE",
"309 321 CURVE",
"313 328 OFFCURVE",
"314 336 OFFCURVE",
"311 345 CURVE",
"308 359 LINE SMOOTH",
"307 363 OFFCURVE",
"305 367 OFFCURVE",
"304 371 CURVE",
"304 374 OFFCURVE",
"302 377 OFFCURVE",
"298 378 CURVE",
"291 381 OFFCURVE",
"283 378 OFFCURVE",
"279 371 CURVE",
"277 368 OFFCURVE",
"275 365 OFFCURVE",
"273 362 CURVE SMOOTH",
"267 353 LINE",
"255 332 OFFCURVE",
"240 312 OFFCURVE",
"225 293 CURVE SMOOTH",
"213 278 LINE",
"206 270 OFFCURVE",
"199 262 OFFCURVE",
"193 254 CURVE",
"172 230 LINE",
"171 227 OFFCURVE",
"169 226 OFFCURVE",
"166 226 CURVE",
"163 231 OFFCURVE",
"160 237 OFFCURVE",
"156 242 CURVE SMOOTH",
"151 248 OFFCURVE",
"147 254 OFFCURVE",
"143 260 CURVE SMOOTH",
"139 266 OFFCURVE",
"135 272 OFFCURVE",
"130 278 CURVE",
"128 280 OFFCURVE",
"126 282 OFFCURVE",
"125 285 CURVE",
"123 287 OFFCURVE",
"121 289 OFFCURVE",
"119 290 CURVE",
"113 297 OFFCURVE",
"107 303 OFFCURVE",
"100 309 CURVE",
"93 314 OFFCURVE",
"86 320 OFFCURVE",
"79 327 CURVE SMOOTH",
"70 336 LINE",
"67 338 OFFCURVE",
"63 341 OFFCURVE",
"60 344 CURVE",
"47 355 OFFCURVE",
"32 364 OFFCURVE",
"17 373 CURVE",
"16 374 OFFCURVE",
"14 375 OFFCURVE",
"13 375 CURVE",
"8 376 OFFCURVE",
"4 378 OFFCURVE",
"0 379 CURVE",
"-9 382 OFFCURVE",
"-18 385 OFFCURVE",
"-23 387 CURVE",
"-32 390 LINE",
"-39 393 OFFCURVE",
"-46 395 OFFCURVE",
"-55 395 CURVE SMOOTH",
"-64 395 OFFCURVE",
"-71 391 OFFCURVE",
"-77 383 CURVE",
"-76 379 OFFCURVE",
"-73 376 OFFCURVE",
"-68 375 CURVE",
"-65 374 OFFCURVE",
"-62 372 OFFCURVE",
"-60 371 CURVE",
"-56 368 OFFCURVE",
"-49 363 OFFCURVE",
"-42 357 CURVE SMOOTH",
"-35 351 OFFCURVE",
"-28 342 OFFCURVE",
"-23 335 CURVE",
"-21 331 OFFCURVE",
"-18 327 OFFCURVE",
"-15 323 CURVE",
"-6 308 OFFCURVE",
"4 294 OFFCURVE",
"14 279 CURVE SMOOTH",
"24 264 OFFCURVE",
"33 249 OFFCURVE",
"41 234 CURVE SMOOTH",
"48 221 OFFCURVE",
"54 209 OFFCURVE",
"61 197 CURVE SMOOTH",
"68 185 OFFCURVE",
"74 173 OFFCURVE",
"81 160 CURVE",
"85 154 LINE",
"86 152 OFFCURVE",
"87 149 OFFCURVE",
"87 146 CURVE",
"86 145 OFFCURVE",
"85 144 OFFCURVE",
"84 143 CURVE",
"81 139 LINE",
"68 126 OFFCURVE",
"56 112 OFFCURVE",
"45 97 CURVE SMOOTH",
"32 80 OFFCURVE",
"22 63 OFFCURVE",
"13 44 CURVE SMOOTH",
"4 25 OFFCURVE",
"-4 6 OFFCURVE",
"-12 -15 CURVE",
"-13 -16 OFFCURVE",
"-14 -18 OFFCURVE",
"-14 -19 CURVE SMOOTH",
"-14 -21 OFFCURVE",
"-14 -23 OFFCURVE",
"-15 -24 CURVE",
"-11 -27 OFFCURVE",
"-8 -27 OFFCURVE",
"-5 -24 CURVE",
"4 -17 OFFCURVE",
"12 -13 OFFCURVE",
"19 -2 CURVE",
"20 0 OFFCURVE",
"22 2 OFFCURVE",
"23 4 CURVE",
"26 8 LINE",
"28 11 OFFCURVE",
"30 13 OFFCURVE",
"33 16 CURVE SMOOTH",
"35 18 OFFCURVE",
"37 21 OFFCURVE",
"39 24 CURVE",
"43 29 OFFCURVE",
"46 34 OFFCURVE",
"53 38 CURVE",
"56 40 OFFCURVE",
"59 43 OFFCURVE",
"61 46 CURVE",
"66 51 OFFCURVE",
"72 57 OFFCURVE",
"78 62 CURVE",
"94 78 LINE SMOOTH",
"95 79 OFFCURVE",
"97 80 OFFCURVE",
"98 80 CURVE",
"103 83 OFFCURVE",
"107 86 OFFCURVE",
"111 90 CURVE SMOOTH",
"114 93 OFFCURVE",
"116 95 OFFCURVE",
"118 96 CURVE",
"124 88 LINE",
"128 81 OFFCURVE",
"132 75 OFFCURVE",
"136 68 CURVE",
"170 23 LINE SMOOTH",
"193 -6 OFFCURVE",
"216 -28 OFFCURVE",
"233 -40 CURVE",
"250 -53 OFFCURVE",
"271 -60 OFFCURVE",
"283 -56 CURVE SMOOTH",
"292 -53 OFFCURVE",
"299 -51 OFFCURVE",
"310 -51 CURVE SMOOTH",
"319 -51 OFFCURVE",
"324 -48 OFFCURVE",
"327 -41 CURVE",
"328 -39 OFFCURVE",
"330 -37 OFFCURVE",
"333 -36 CURVE",
"337 -35 OFFCURVE",
"340 -33 OFFCURVE",
"343 -30 CURVE",
"345 -27 OFFCURVE",
"348 -25 OFFCURVE",
"351 -22 CURVE",
"357 -17 OFFCURVE",
"362 -12 OFFCURVE",
"367 -6 CURVE",
"372 -1 OFFCURVE",
"377 5 OFFCURVE",
"382 10 CURVE",
"385 14 LINE",
"385 15 OFFCURVE",
"386 16 OFFCURVE",
"387 17 CURVE",
"389 20 OFFCURVE",
"391 24 OFFCURVE",
"393 28 CURVE",
"394 31 OFFCURVE",
"396 35 OFFCURVE",
"399 38 CURVE SMOOTH",
"404 43 OFFCURVE",
"409 51 OFFCURVE",
"414 60 CURVE SMOOTH",
"417 65 OFFCURVE",
"421 69 OFFCURVE",
"424 74 CURVE",
"430 82 OFFCURVE",
"433 94 OFFCURVE",
"437 104 CURVE",
"438 109 OFFCURVE",
"440 114 OFFCURVE",
"442 119 CURVE SMOOTH",
"448 134 LINE",
"450 138 OFFCURVE",
"452 142 OFFCURVE",
"454 147 CURVE",
"463 173 LINE",
"464 178 OFFCURVE",
"466 182 OFFCURVE",
"469 186 CURVE",
"474 197 OFFCURVE",
"478 208 OFFCURVE",
"481 219 CURVE",
"481 224 OFFCURVE",
"483 228 OFFCURVE",
"486 231 CURVE SMOOTH",
"489 234 OFFCURVE",
"491 237 OFFCURVE",
"492 240 CURVE",
"492 243 OFFCURVE",
"493 246 OFFCURVE",
"494 249 CURVE",
"498 264 OFFCURVE",
"500 280 OFFCURVE",
"503 296 CURVE"
);
}
);
width = 477;
}
);
note = x;
unicode = 0078;
},
{
glyphname = y;
layers = (
{
hints = (
{
horizontal = 1;
place = "{-315, 31}";
type = Stem;
},
{
horizontal = 1;
place = "{93, 42.6}";
type = Stem;
},
{
place = "{-94, 36}";
type = Stem;
},
{
place = "{56, 14}";
type = Stem;
},
{
place = "{222, 95}";
type = Stem;
}
);
layerId = "54D2F088-3B12-48DB-A05E-ED165257FC93";
paths = (
{
closed = 1;
nodes = (
"537 303 OFFCURVE",
"534 303 OFFCURVE",
"531 301 CURVE",
"528 300 OFFCURVE",
"526 298 OFFCURVE",
"523 295 CURVE",
"519 290 OFFCURVE",
"516 286 OFFCURVE",
"513 284 CURVE",
"505 277 OFFCURVE",
"498 270 OFFCURVE",
"491 263 CURVE SMOOTH",
"487 259 OFFCURVE",
"483 256 OFFCURVE",
"479 253 CURVE",
"474 250 OFFCURVE",
"470 246 OFFCURVE",
"466 243 CURVE",
"456 234 LINE",
"452 231 OFFCURVE",
"448 229 OFFCURVE",
"445 226 CURVE",
"438 221 OFFCURVE",
"432 216 OFFCURVE",
"426 211 CURVE",
"419 206 OFFCURVE",
"413 200 OFFCURVE",
"406 195 CURVE SMOOTH",
"399 190 OFFCURVE",
"393 185 OFFCURVE",
"387 180 CURVE",
"349 154 LINE",
"342 150 OFFCURVE",
"336 146 OFFCURVE",
"330 142 CURVE",
"329 141 OFFCURVE",
"327 140 OFFCURVE",
"326 140 CURVE",
"324 139 OFFCURVE",
"322 138 OFFCURVE",
"321 137 CURVE",
"320 140 OFFCURVE",
"319 141 OFFCURVE",
"319 141 CURVE",
"320 166 OFFCURVE",
"322 191 OFFCURVE",
"319 216 CURVE",
"318 235 OFFCURVE",
"317 253 OFFCURVE",
"317 272 CURVE SMOOTH",
"317 291 OFFCURVE",
"316 309 OFFCURVE",
"314 328 CURVE",
"311 375 LINE SMOOTH",
"310 391 OFFCURVE",
"308 406 OFFCURVE",
"303 420 CURVE",
"300 432 LINE",
"299 435 OFFCURVE",
"298 439 OFFCURVE",
"297 442 CURVE",
"294 448 LINE SMOOTH",
"293 450 OFFCURVE",
"292 452 OFFCURVE",
"291 453 CURVE",
"283 462 OFFCURVE",
"271 464 OFFCURVE",
"259 464 CURVE SMOOTH",
"256 464 OFFCURVE",
"253 462 OFFCURVE",
"252 457 CURVE",
"251 448 OFFCURVE",
"249 438 OFFCURVE",
"247 428 CURVE SMOOTH",
"245 418 OFFCURVE",
"243 408 OFFCURVE",
"242 399 CURVE SMOOTH",
"241 390 OFFCURVE",
"239 381 OFFCURVE",
"238 372 CURVE SMOOTH",
"237 363 OFFCURVE",
"235 354 OFFCURVE",
"234 345 CURVE SMOOTH",
"232 329 OFFCURVE",
"227 314 OFFCURVE",
"219 300 CURVE",
"170 223 LINE SMOOTH",
"153 196 OFFCURVE",
"134 172 OFFCURVE",
"113 153 CURVE",
"110 150 OFFCURVE",
"108 147 OFFCURVE",
"105 145 CURVE SMOOTH",
"102 143 OFFCURVE",
"98 141 OFFCURVE",
"95 138 CURVE",
"85 133 OFFCURVE",
"78 135 OFFCURVE",
"75 146 CURVE",
"74 149 OFFCURVE",
"73 151 OFFCURVE",
"73 154 CURVE",
"71 162 LINE",
"70 164 OFFCURVE",
"70 167 OFFCURVE",
"70 171 CURVE",
"69 172 OFFCURVE",
"69 174 OFFCURVE",
"68 176 CURVE",
"67 177 OFFCURVE",
"66 179 OFFCURVE",
"65 181 CURVE",
"68 180 OFFCURVE",
"70 179 OFFCURVE",
"71 179 CURVE",
"70 180 OFFCURVE",
"70 185 OFFCURVE",
"70 194 CURVE SMOOTH",
"70 226 LINE SMOOTH",
"70 237 OFFCURVE",
"70 248 OFFCURVE",
"70 259 CURVE SMOOTH",
"70 279 LINE",
"69 296 OFFCURVE",
"69 313 OFFCURVE",
"72 330 CURVE",
"74 346 OFFCURVE",
"75 362 OFFCURVE",
"74 379 CURVE",
"73 384 OFFCURVE",
"73 388 OFFCURVE",
"73 392 CURVE SMOOTH",
"73 396 OFFCURVE",
"73 400 OFFCURVE",
"72 404 CURVE",
"71 409 OFFCURVE",
"71 415 OFFCURVE",
"71 420 CURVE",
"70 430 OFFCURVE",
"65 440 OFFCURVE",
"62 448 CURVE",
"58 456 OFFCURVE",
"54 470 OFFCURVE",
"38 477 CURVE",
"30 480 OFFCURVE",
"22 482 OFFCURVE",
"14 485 CURVE",
"3 488 OFFCURVE",
"3 474 OFFCURVE",
"2 464 CURVE SMOOTH",
"1 454 OFFCURVE",
"-3 438 OFFCURVE",
"-7 422 CURVE SMOOTH",
"-9 413 OFFCURVE",
"-11 404 OFFCURVE",
"-12 395 CURVE",
"-13 390 OFFCURVE",
"-14 384 OFFCURVE",
"-15 379 CURVE",
"-19 363 LINE",
"-24 329 OFFCURVE",
"-27 295 OFFCURVE",
"-28 262 CURVE SMOOTH",
"-29 231 OFFCURVE",
"-28 200 OFFCURVE",
"-17 169 CURVE SMOOTH",
"-14 161 OFFCURVE",
"-11 154 OFFCURVE",
"-7 147 CURVE",
"0 133 OFFCURVE",
"15 123 OFFCURVE",
"29 113 CURVE SMOOTH",
"43 103 OFFCURVE",
"54 92 OFFCURVE",
"73 93 CURVE SMOOTH",
"92 94 OFFCURVE",
"113 102 OFFCURVE",
"131 111 CURVE SMOOTH",
"149 120 OFFCURVE",
"157 127 OFFCURVE",
"166 140 CURVE SMOOTH",
"174 152 OFFCURVE",
"183 166 OFFCURVE",
"191 185 CURVE SMOOTH",
"195 194 OFFCURVE",
"200 203 OFFCURVE",
"206 212 CURVE",
"209 215 OFFCURVE",
"211 218 OFFCURVE",
"212 223 CURVE",
"213 227 OFFCURVE",
"215 231 OFFCURVE",
"217 235 CURVE",
"218 238 OFFCURVE",
"220 242 OFFCURVE",
"221 246 CURVE",
"223 246 LINE",
"224 245 OFFCURVE",
"224 243 OFFCURVE",
"224 241 CURVE SMOOTH",
"224 225 LINE",
"223 198 OFFCURVE",
"222 171 OFFCURVE",
"222 144 CURVE",
"221 133 OFFCURVE",
"221 123 OFFCURVE",
"221 113 CURVE SMOOTH",
"221 81 LINE SMOOTH",
"221 76 OFFCURVE",
"219 73 OFFCURVE",
"215 70 CURVE",
"206 66 OFFCURVE",
"198 61 OFFCURVE",
"190 56 CURVE SMOOTH",
"179 49 OFFCURVE",
"167 41 OFFCURVE",
"155 34 CURVE",
"120 11 LINE",
"111 6 OFFCURVE",
"103 0 OFFCURVE",
"95 -5 CURVE",
"79 -17 OFFCURVE",
"59 -32 OFFCURVE",
"34 -44 CURVE SMOOTH",
"25 -48 OFFCURVE",
"16 -53 OFFCURVE",
"9 -61 CURVE",
"4 -66 OFFCURVE",
"0 -69 OFFCURVE",
"-5 -72 CURVE SMOOTH",
"-21 -82 LINE SMOOTH",
"-33 -89 OFFCURVE",
"-42 -95 OFFCURVE",
"-51 -106 CURVE",
"-54 -110 OFFCURVE",
"-58 -114 OFFCURVE",
"-62 -117 CURVE SMOOTH",
"-69 -122 OFFCURVE",
"-74 -129 OFFCURVE",
"-78 -138 CURVE",
"-80 -141 LINE",
"-81 -142 OFFCURVE",
"-81 -144 OFFCURVE",
"-82 -145 CURVE",
"-87 -152 OFFCURVE",
"-91 -158 OFFCURVE",
"-94 -165 CURVE",
"-99 -179 OFFCURVE",
"-103 -196 OFFCURVE",
"-103 -205 CURVE",
"-102 -216 OFFCURVE",
"-99 -228 OFFCURVE",
"-94 -239 CURVE",
"-83 -258 OFFCURVE",
"-70 -274 OFFCURVE",
"-51 -289 CURVE",
"-46 -292 OFFCURVE",
"-40 -295 OFFCURVE",
"-35 -297 CURVE",
"-30 -300 OFFCURVE",
"-24 -302 OFFCURVE",
"-19 -305 CURVE",
"14 -317 OFFCURVE",
"60 -319 OFFCURVE",
"104 -307 CURVE",
"120 -304 LINE SMOOTH",
"125 -303 OFFCURVE",
"129 -301 OFFCURVE",
"134 -298 CURVE",
"135 -297 OFFCURVE",
"136 -297 OFFCURVE",
"137 -297 CURVE SMOOTH",
"144 -297 OFFCURVE",
"151 -295 OFFCURVE",
"160 -292 CURVE",
"176 -286 OFFCURVE",
"191 -278 OFFCURVE",
"204 -267 CURVE SMOOTH",
"217 -256 OFFCURVE",
"224 -249 OFFCURVE",
"228 -238 CURVE SMOOTH",
"232 -227 OFFCURVE",
"239 -215 OFFCURVE",
"252 -203 CURVE",
"258 -197 OFFCURVE",
"263 -190 OFFCURVE",
"266 -181 CURVE",
"268 -174 OFFCURVE",
"272 -167 OFFCURVE",
"277 -160 CURVE",
"287 -147 OFFCURVE",
"292 -130 OFFCURVE",
"296 -110 CURVE SMOOTH",
"298 -101 OFFCURVE",
"300 -91 OFFCURVE",
"303 -81 CURVE",
"307 -62 OFFCURVE",
"309 -42 OFFCURVE",
"310 -23 CURVE SMOOTH",
"311 -4 OFFCURVE",
"313 15 OFFCURVE",
"316 34 CURVE",
"316 35 OFFCURVE",
"316 37 OFFCURVE",
"317 38 CURVE",
"317 39 OFFCURVE",
"317 41 OFFCURVE",
"317 42 CURVE SMOOTH",
"317 62 LINE",
"316 68 OFFCURVE",
"316 74 OFFCURVE",
"316 81 CURVE SMOOTH",
"316 86 LINE",
"315 87 OFFCURVE",
"315 89 OFFCURVE",
"315 90 CURVE SMOOTH",
"315 93 OFFCURVE",
"316 96 OFFCURVE",
"319 97 CURVE",
"328 103 LINE",
"330 105 OFFCURVE",
"333 107 OFFCURVE",
"336 108 CURVE",
"358 119 OFFCURVE",
"378 131 OFFCURVE",
"395 144 CURVE SMOOTH",
"402 149 OFFCURVE",
"407 155 OFFCURVE",
"412 161 CURVE",
"421 173 OFFCURVE",
"432 184 OFFCURVE",
"445 191 CURVE SMOOTH",
"451 194 OFFCURVE",
"457 198 OFFCURVE",
"462 203 CURVE",
"479 218 OFFCURVE",
"493 235 OFFCURVE",
"506 251 CURVE",
"509 256 OFFCURVE",
"514 261 OFFCURVE",
"520 266 CURVE",
"523 269 OFFCURVE",
"525 273 OFFCURVE",
"526 276 CURVE",
"529 283 OFFCURVE",
"532 288 OFFCURVE",
"537 292 CURVE",
"540 295 OFFCURVE",
"541 297 OFFCURVE",
"540 300 CURVE"
);
},
{
closed = 1;
nodes = (
"54 224 LINE",
"52 226 LINE",
"53 227 OFFCURVE",
"53 227 OFFCURVE",
"54 227 CURVE SMOOTH",
"56 227 LINE",
"56 226 OFFCURVE",
"56 226 OFFCURVE",
"57 226 CURVE"
);
},
{
closed = 1;
nodes = (
"218 -60 LINE",
"217 -67 OFFCURVE",
"217 -73 OFFCURVE",
"217 -79 CURVE",
"216 -85 OFFCURVE",
"215 -91 OFFCURVE",
"214 -98 CURVE SMOOTH",
"211 -122 LINE SMOOTH",
"210 -130 OFFCURVE",
"207 -138 OFFCURVE",
"204 -145 CURVE",
"201 -153 OFFCURVE",
"199 -161 OFFCURVE",
"196 -169 CURVE",
"195 -174 OFFCURVE",
"193 -178 OFFCURVE",
"190 -182 CURVE SMOOTH",
"186 -187 OFFCURVE",
"182 -193 OFFCURVE",
"178 -199 CURVE SMOOTH",
"170 -211 OFFCURVE",
"160 -227 OFFCURVE",
"145 -239 CURVE SMOOTH",
"129 -252 OFFCURVE",
"103 -267 OFFCURVE",
"71 -275 CURVE",
"51 -282 OFFCURVE",
"31 -283 OFFCURVE",
"11 -284 CURVE",
"8 -284 OFFCURVE",
"6 -284 OFFCURVE",
"5 -283 CURVE",
"-14 -279 OFFCURVE",
"-32 -271 OFFCURVE",
"-47 -256 CURVE",
"-55 -245 OFFCURVE",
"-59 -234 OFFCURVE",
"-58 -221 CURVE",
"-58 -202 LINE",
"-58 -200 LINE",
"-59 -200 OFFCURVE",
"-59 -200 OFFCURVE",
"-59 -199 CURVE",
"-56 -183 OFFCURVE",
"-54 -166 OFFCURVE",
"-45 -151 CURVE",
"-41 -147 LINE",
"-30 -138 OFFCURVE",
"-22 -130 OFFCURVE",
"-11 -122 CURVE SMOOTH",
"-7 -119 LINE",
"-6 -118 OFFCURVE",
"-4 -117 OFFCURVE",
"-3 -116 CURVE",
"1 -113 LINE",
"4 -112 OFFCURVE",
"7 -108 OFFCURVE",
"8 -107 CURVE SMOOTH",
"9 -106 OFFCURVE",
"10 -106 OFFCURVE",
"12 -106 CURVE SMOOTH",
"13 -106 OFFCURVE",
"14 -105 OFFCURVE",
"15 -104 CURVE",
"15 -103 OFFCURVE",
"16 -103 OFFCURVE",
"17 -102 CURVE SMOOTH",
"20 -99 OFFCURVE",
"23 -97 OFFCURVE",
"26 -94 CURVE",
"34 -87 LINE",
"36 -85 OFFCURVE",
"37 -84 OFFCURVE",
"37 -83 CURVE SMOOTH",
"37 -80 OFFCURVE",
"38 -77 OFFCURVE",
"41 -74 CURVE",
"44 -72 OFFCURVE",
"46 -70 OFFCURVE",
"47 -67 CURVE",
"51 -61 OFFCURVE",
"55 -57 OFFCURVE",
"59 -55 CURVE",
"64 -53 OFFCURVE",
"69 -50 OFFCURVE",
"73 -47 CURVE SMOOTH",
"77 -44 OFFCURVE",
"82 -42 OFFCURVE",
"87 -39 CURVE",
"95 -35 OFFCURVE",
"102 -29 OFFCURVE",
"109 -24 CURVE SMOOTH",
"130 -10 LINE",
"142 -1 OFFCURVE",
"155 8 OFFCURVE",
"167 13 CURVE SMOOTH",
"172 15 OFFCURVE",
"178 18 OFFCURVE",
"183 21 CURVE",
"191 25 OFFCURVE",
"199 29 OFFCURVE",
"206 33 CURVE",
"210 35 OFFCURVE",
"215 37 OFFCURVE",
"221 38 CURVE",
"221 31 LINE",
"222 16 OFFCURVE",
"222 1 OFFCURVE",
"221 -14 CURVE SMOOTH"
);
},
{
closed = 1;
nodes = (
"-68 -211 LINE",
"-69 -211 OFFCURVE",
"-71 -210 OFFCURVE",
"-68 -209 CURVE",
"-67 -210 LINE"
);
}
);
width = 522;
}
);
note = y;
unicode = 0079;
},
{
glyphname = z;
layers = (
{
hints = (
{
horizontal = 1;
place = "{-304, 33}";
type = Stem;
},
{
horizontal = 1;
place = "{125, 72}";
type = Stem;
},
{
place = "{31, 20.87}";
type = Stem;
},
{
horizontal = 1;
place = "{89.18, 20.82}";
type = Stem;
},
{
place = "{364, 93}";
type = Stem;
}
);
layerId = "54D2F088-3B12-48DB-A05E-ED165257FC93";
paths = (
{
closed = 1;
nodes = (
"572 284 OFFCURVE",
"545 262 OFFCURVE",
"533 250 CURVE",
"521 239 OFFCURVE",
"510 229 OFFCURVE",
"498 220 CURVE SMOOTH",
"471 199 OFFCURVE",
"447 178 OFFCURVE",
"422 155 CURVE",
"410 145 LINE",
"406 142 OFFCURVE",
"402 138 OFFCURVE",
"397 135 CURVE",
"392 139 OFFCURVE",
"388 142 OFFCURVE",
"385 143 CURVE",
"383 144 OFFCURVE",
"381 146 OFFCURVE",
"380 148 CURVE",
"374 152 LINE",
"359 163 OFFCURVE",
"346 172 OFFCURVE",
"330 177 CURVE SMOOTH",
"318 181 OFFCURVE",
"306 185 OFFCURVE",
"294 188 CURVE SMOOTH",
"274 193 OFFCURVE",
"254 196 OFFCURVE",
"234 197 CURVE",
"203 197 OFFCURVE",
"174 194 OFFCURVE",
"145 186 CURVE SMOOTH",
"134 183 LINE",
"135 186 OFFCURVE",
"135 187 OFFCURVE",
"136 188 CURVE",
"147 201 LINE",
"151 205 OFFCURVE",
"155 209 OFFCURVE",
"158 213 CURVE SMOOTH",
"171 230 OFFCURVE",
"184 247 OFFCURVE",
"197 265 CURVE",
"209 283 OFFCURVE",
"223 300 OFFCURVE",
"238 315 CURVE SMOOTH",
"271 349 OFFCURVE",
"297 387 OFFCURVE",
"317 428 CURVE",
"319 430 OFFCURVE",
"320 431 OFFCURVE",
"319 431 CURVE",
"323 435 OFFCURVE",
"325 440 OFFCURVE",
"325 447 CURVE SMOOTH",
"325 450 OFFCURVE",
"325 453 OFFCURVE",
"326 456 CURVE",
"326 459 OFFCURVE",
"325 461 OFFCURVE",
"324 464 CURVE",
"321 465 OFFCURVE",
"317 465 OFFCURVE",
"312 463 CURVE",
"306 460 LINE SMOOTH",
"304 459 OFFCURVE",
"302 458 OFFCURVE",
"301 457 CURVE",
"294 453 OFFCURVE",
"286 450 OFFCURVE",
"279 447 CURVE SMOOTH",
"257 437 LINE",
"230 428 OFFCURVE",
"202 419 OFFCURVE",
"171 410 CURVE SMOOTH",
"160 407 OFFCURVE",
"150 404 OFFCURVE",
"140 401 CURVE SMOOTH",
"110 392 LINE",
"83 385 OFFCURVE",
"57 377 OFFCURVE",
"31 369 CURVE SMOOTH",
"4 361 OFFCURVE",
"-23 354 OFFCURVE",
"-50 347 CURVE",
"-55 346 OFFCURVE",
"-61 344 OFFCURVE",
"-66 339 CURVE",
"-66 338 OFFCURVE",
"-67 338 OFFCURVE",
"-69 337 CURVE",
"-74 335 OFFCURVE",
"-81 332 OFFCURVE",
"-86 329 CURVE",
"-89 328 OFFCURVE",
"-90 327 OFFCURVE",
"-89 327 CURVE",
"-86 325 OFFCURVE",
"-83 322 OFFCURVE",
"-78 318 CURVE SMOOTH",
"-66 309 LINE SMOOTH",
"-57 302 OFFCURVE",
"-44 297 OFFCURVE",
"-28 294 CURVE",
"4 286 OFFCURVE",
"23 288 OFFCURVE",
"39 293 CURVE SMOOTH",
"55 298 OFFCURVE",
"71 302 OFFCURVE",
"87 303 CURVE",
"94 304 OFFCURVE",
"102 305 OFFCURVE",
"109 308 CURVE",
"117 310 LINE",
"122 311 OFFCURVE",
"128 313 OFFCURVE",
"133 316 CURVE",
"136 318 OFFCURVE",
"138 319 OFFCURVE",
"141 320 CURVE",
"154 325 OFFCURVE",
"165 328 OFFCURVE",
"175 331 CURVE",
"180 332 OFFCURVE",
"184 333 OFFCURVE",
"189 336 CURVE",
"194 336 LINE",
"189 325 OFFCURVE",
"182 316 OFFCURVE",
"175 308 CURVE",
"163 292 OFFCURVE",
"150 277 OFFCURVE",
"136 264 CURVE SMOOTH",
"108 237 OFFCURVE",
"82 214 OFFCURVE",
"67 188 CURVE SMOOTH",
"59 175 OFFCURVE",
"49 163 OFFCURVE",
"38 154 CURVE",
"34 150 OFFCURVE",
"32 146 OFFCURVE",
"31 143 CURVE",
"28 136 LINE",
"26 133 OFFCURVE",
"25 130 OFFCURVE",
"24 127 CURVE",
"24 125 OFFCURVE",
"23 124 OFFCURVE",
"21 124 CURVE",
"18 123 OFFCURVE",
"15 121 OFFCURVE",
"14 118 CURVE SMOOTH",
"13 115 OFFCURVE",
"11 112 OFFCURVE",
"8 110 CURVE",
"12 100 LINE",
"14 92 OFFCURVE",
"22 85 OFFCURVE",
"33 92 CURVE",
"58 105 OFFCURVE",
"84 113 OFFCURVE",
"111 115 CURVE SMOOTH",
"138 117 OFFCURVE",
"165 119 OFFCURVE",
"192 122 CURVE",
"197 123 OFFCURVE",
"203 123 OFFCURVE",
"208 123 CURVE SMOOTH",
"213 123 OFFCURVE",
"219 123 OFFCURVE",
"224 124 CURVE SMOOTH",
"230 125 OFFCURVE",
"236 125 OFFCURVE",
"243 125 CURVE",
"249 124 OFFCURVE",
"255 125 OFFCURVE",
"261 126 CURVE",
"262 127 OFFCURVE",
"264 127 OFFCURVE",
"265 127 CURVE",
"266 126 OFFCURVE",
"267 126 OFFCURVE",
"268 126 CURVE",
"288 123 LINE SMOOTH",
"294 122 OFFCURVE",
"300 120 OFFCURVE",
"307 117 CURVE",
"315 114 LINE",
"318 113 OFFCURVE",
"321 112 OFFCURVE",
"324 111 CURVE SMOOTH",
"333 108 LINE",
"335 107 OFFCURVE",
"338 106 OFFCURVE",
"341 105 CURVE",
"344 103 LINE",
"344 102 OFFCURVE",
"345 101 OFFCURVE",
"346 100 CURVE",
"344 99 OFFCURVE",
"342 98 OFFCURVE",
"341 97 CURVE",
"337 94 LINE",
"331 90 OFFCURVE",
"325 86 OFFCURVE",
"319 83 CURVE",
"313 79 OFFCURVE",
"307 75 OFFCURVE",
"302 71 CURVE",
"279 56 OFFCURVE",
"258 42 OFFCURVE",
"237 27 CURVE",
"222 18 OFFCURVE",
"208 7 OFFCURVE",
"193 -5 CURVE SMOOTH",
"168 -26 OFFCURVE",
"143 -46 OFFCURVE",
"120 -66 CURVE SMOOTH",
"95 -89 OFFCURVE",
"73 -113 OFFCURVE",
"54 -142 CURVE",
"53 -144 OFFCURVE",
"51 -147 OFFCURVE",
"50 -151 CURVE",
"41 -169 LINE SMOOTH",
"34 -182 OFFCURVE",
"31 -195 OFFCURVE",
"31 -210 CURVE SMOOTH",
"31 -213 OFFCURVE",
"31 -217 OFFCURVE",
"32 -220 CURVE",
"32 -230 LINE",
"33 -237 OFFCURVE",
"34 -242 OFFCURVE",
"37 -249 CURVE",
"46 -266 OFFCURVE",
"58 -278 OFFCURVE",
"74 -287 CURVE",
"109 -304 OFFCURVE",
"150 -305 OFFCURVE",
"189 -304 CURVE SMOOTH",
"199 -304 OFFCURVE",
"209 -304 OFFCURVE",
"220 -303 CURVE",
"241 -303 OFFCURVE",
"262 -299 OFFCURVE",
"277 -286 CURVE",
"284 -279 OFFCURVE",
"292 -275 OFFCURVE",
"301 -274 CURVE",
"305 -271 LINE",
"333 -248 OFFCURVE",
"356 -218 OFFCURVE",
"376 -185 CURVE SMOOTH",
"396 -153 OFFCURVE",
"413 -118 OFFCURVE",
"428 -86 CURVE",
"431 -81 OFFCURVE",
"433 -76 OFFCURVE",
"434 -73 CURVE",
"442 -54 OFFCURVE",
"452 -25 OFFCURVE",
"457 4 CURVE SMOOTH",
"461 32 OFFCURVE",
"459 60 OFFCURVE",
"446 80 CURVE",
"437 91 LINE",
"436 92 OFFCURVE",
"435 94 OFFCURVE",
"434 95 CURVE",
"431 99 LINE",
"429 103 OFFCURVE",
"430 106 OFFCURVE",
"433 109 CURVE SMOOTH",
"439 115 OFFCURVE",
"445 120 OFFCURVE",
"452 123 CURVE",
"464 130 OFFCURVE",
"480 141 OFFCURVE",
"492 154 CURVE",
"498 160 OFFCURVE",
"505 165 OFFCURVE",
"513 170 CURVE SMOOTH",
"524 177 OFFCURVE",
"536 187 OFFCURVE",
"547 198 CURVE SMOOTH",
"569 221 OFFCURVE",
"589 237 OFFCURVE",
"590 256 CURVE",
"591 260 OFFCURVE",
"593 265 OFFCURVE",
"596 270 CURVE",
"602 278 LINE",
"605 283 OFFCURVE",
"608 290 OFFCURVE",
"608 294 CURVE",
"605 311 OFFCURVE",
"589 299 OFFCURVE",
"585 295 CURVE"
);
},
{
closed = 1;
nodes = (
"355 -19 OFFCURVE",
"346 -47 OFFCURVE",
"334 -76 CURVE",
"327 -91 OFFCURVE",
"320 -105 OFFCURVE",
"311 -120 CURVE",
"308 -123 OFFCURVE",
"306 -127 OFFCURVE",
"305 -131 CURVE",
"299 -143 LINE SMOOTH",
"294 -153 OFFCURVE",
"287 -163 OFFCURVE",
"278 -174 CURVE",
"276 -175 OFFCURVE",
"274 -177 OFFCURVE",
"273 -179 CURVE",
"268 -186 OFFCURVE",
"263 -192 OFFCURVE",
"258 -198 CURVE",
"249 -211 OFFCURVE",
"237 -225 OFFCURVE",
"225 -237 CURVE SMOOTH",
"218 -244 OFFCURVE",
"212 -250 OFFCURVE",
"206 -257 CURVE",
"203 -260 OFFCURVE",
"199 -263 OFFCURVE",
"194 -264 CURVE SMOOTH",
"189 -265 OFFCURVE",
"185 -267 OFFCURVE",
"180 -268 CURVE SMOOTH",
"175 -269 OFFCURVE",
"171 -270 OFFCURVE",
"166 -270 CURVE",
"157 -271 OFFCURVE",
"147 -271 OFFCURVE",
"138 -271 CURVE SMOOTH",
"118 -271 OFFCURVE",
"92 -275 OFFCURVE",
"67 -254 CURVE",
"60 -247 OFFCURVE",
"57 -236 OFFCURVE",
"55 -224 CURVE SMOOTH",
"53 -212 OFFCURVE",
"48 -194 OFFCURVE",
"57 -178 CURVE",
"61 -170 OFFCURVE",
"66 -162 OFFCURVE",
"74 -155 CURVE",
"77 -152 OFFCURVE",
"80 -149 OFFCURVE",
"83 -146 CURVE",
"92 -136 LINE",
"99 -129 OFFCURVE",
"106 -120 OFFCURVE",
"113 -112 CURVE",
"115 -110 LINE",
"121 -107 OFFCURVE",
"127 -103 OFFCURVE",
"132 -98 CURVE SMOOTH",
"137 -93 OFFCURVE",
"142 -89 OFFCURVE",
"147 -84 CURVE SMOOTH",
"163 -69 LINE SMOOTH",
"173 -59 OFFCURVE",
"182 -51 OFFCURVE",
"191 -43 CURVE SMOOTH",
"199 -36 OFFCURVE",
"208 -29 OFFCURVE",
"217 -23 CURVE",
"225 -17 OFFCURVE",
"231 -13 OFFCURVE",
"236 -8 CURVE",
"242 1 OFFCURVE",
"250 7 OFFCURVE",
"259 10 CURVE",
"263 11 OFFCURVE",
"266 13 OFFCURVE",
"269 16 CURVE SMOOTH",
"273 20 OFFCURVE",
"278 23 OFFCURVE",
"284 25 CURVE SMOOTH",
"287 26 OFFCURVE",
"291 27 OFFCURVE",
"296 30 CURVE SMOOTH",
"307 37 OFFCURVE",
"317 42 OFFCURVE",
"328 45 CURVE",
"333 46 OFFCURVE",
"337 48 OFFCURVE",
"342 51 CURVE",
"346 53 OFFCURVE",
"350 55 OFFCURVE",
"355 57 CURVE SMOOTH",
"362 60 LINE",
"363 56 OFFCURVE",
"364 54 OFFCURVE",
"364 51 CURVE",
"365 36 OFFCURVE",
"364 25 OFFCURVE",
"361 10 CURVE SMOOTH"
);
}
);
width = 589;
}
);
note = z;
unicode = 007A;
},
{
glyphname = c;
layers = (
{
hints = (
{
horizontal = 1;
place = "{28, 35}";
type = Stem;
},
{
horizontal = 1;
place = "{476, 27}";
type = Stem;
},
{
place = "{-24, 85}";
type = Stem;
},
{
place = "{209, 33}";
type = Stem;
}
);
layerId = "54D2F088-3B12-48DB-A05E-ED165257FC93";
paths = (
{
closed = 1;
nodes = (
"-24 164 LINE SMOOTH",
"-24 148 OFFCURVE",
"-24 131 OFFCURVE",
"-20 118 CURVE",
"-17 111 LINE",
"-17 109 OFFCURVE",
"-16 107 OFFCURVE",
"-15 104 CURVE SMOOTH",
"-10 88 OFFCURVE",
"-4 73 OFFCURVE",
"9 61 CURVE",
"14 54 LINE",
"22 46 OFFCURVE",
"31 40 OFFCURVE",
"41 35 CURVE",
"44 34 OFFCURVE",
"48 33 OFFCURVE",
"53 30 CURVE",
"56 29 OFFCURVE",
"61 28 OFFCURVE",
"68 28 CURVE",
"87 31 OFFCURVE",
"104 36 OFFCURVE",
"121 41 CURVE SMOOTH",
"144 48 OFFCURVE",
"162 59 OFFCURVE",
"181 71 CURVE",
"197 80 OFFCURVE",
"208 93 OFFCURVE",
"219 108 CURVE SMOOTH",
"228 120 LINE",
"234 127 OFFCURVE",
"241 133 OFFCURVE",
"248 138 CURVE SMOOTH",
"255 143 OFFCURVE",
"260 150 OFFCURVE",
"265 158 CURVE",
"266 159 LINE SMOOTH",
"269 162 OFFCURVE",
"272 166 OFFCURVE",
"275 170 CURVE SMOOTH",
"278 174 OFFCURVE",
"281 177 OFFCURVE",
"285 180 CURVE",
"286 181 OFFCURVE",
"287 183 OFFCURVE",
"288 184 CURVE",
"294 193 LINE SMOOTH",
"296 196 OFFCURVE",
"298 199 OFFCURVE",
"299 202 CURVE",
"300 204 OFFCURVE",
"302 206 OFFCURVE",
"304 208 CURVE SMOOTH",
"305 209 OFFCURVE",
"306 212 OFFCURVE",
"305 215 CURVE",
"306 217 OFFCURVE",
"308 219 OFFCURVE",
"310 221 CURVE SMOOTH",
"314 225 OFFCURVE",
"318 229 OFFCURVE",
"318 232 CURVE",
"319 237 OFFCURVE",
"323 241 OFFCURVE",
"327 245 CURVE",
"342 262 LINE",
"344 265 OFFCURVE",
"346 268 OFFCURVE",
"349 271 CURVE",
"358 282 OFFCURVE",
"360 293 OFFCURVE",
"351 296 CURVE",
"342 298 OFFCURVE",
"336 295 OFFCURVE",
"331 287 CURVE",
"328 284 OFFCURVE",
"326 281 OFFCURVE",
"325 278 CURVE",
"321 273 OFFCURVE",
"318 267 OFFCURVE",
"317 263 CURVE",
"316 261 OFFCURVE",
"315 259 OFFCURVE",
"314 258 CURVE",
"303 242 OFFCURVE",
"293 224 OFFCURVE",
"278 211 CURVE",
"277 210 LINE",
"277 209 OFFCURVE",
"277 209 OFFCURVE",
"276 208 CURVE",
"269 199 OFFCURVE",
"262 190 OFFCURVE",
"255 182 CURVE SMOOTH",
"248 174 OFFCURVE",
"240 166 OFFCURVE",
"233 158 CURVE",
"217 142 LINE",
"212 136 OFFCURVE",
"206 130 OFFCURVE",
"201 125 CURVE SMOOTH",
"193 117 OFFCURVE",
"185 109 OFFCURVE",
"177 100 CURVE",
"172 93 OFFCURVE",
"167 88 OFFCURVE",
"160 84 CURVE SMOOTH",
"144 75 OFFCURVE",
"128 68 OFFCURVE",
"111 65 CURVE",
"109 65 OFFCURVE",
"106 64 OFFCURVE",
"102 63 CURVE",
"96 60 OFFCURVE",
"90 62 OFFCURVE",
"83 67 CURVE",
"75 75 OFFCURVE",
"72 84 OFFCURVE",
"71 89 CURVE",
"69 97 LINE",
"68 100 OFFCURVE",
"67 102 OFFCURVE",
"67 105 CURVE",
"64 111 LINE SMOOTH",
"61 117 OFFCURVE",
"61 124 OFFCURVE",
"62 132 CURVE",
"62 143 LINE SMOOTH",
"62 147 OFFCURVE",
"62 151 OFFCURVE",
"61 155 CURVE SMOOTH",
"60 159 OFFCURVE",
"60 163 OFFCURVE",
"61 167 CURVE",
"61 172 LINE",
"60 177 OFFCURVE",
"59 182 OFFCURVE",
"60 185 CURVE",
"60 198 OFFCURVE",
"61 211 OFFCURVE",
"62 226 CURVE",
"62 228 OFFCURVE",
"62 229 OFFCURVE",
"63 230 CURVE",
"66 241 OFFCURVE",
"68 250 OFFCURVE",
"69 261 CURVE SMOOTH",
"70 271 OFFCURVE",
"73 281 OFFCURVE",
"76 290 CURVE SMOOTH",
"77 293 OFFCURVE",
"79 297 OFFCURVE",
"79 300 CURVE",
"80 309 OFFCURVE",
"83 318 OFFCURVE",
"86 326 CURVE",
"90 339 OFFCURVE",
"93 352 OFFCURVE",
"96 365 CURVE",
"96 367 OFFCURVE",
"97 369 OFFCURVE",
"98 372 CURVE",
"99 377 OFFCURVE",
"101 382 OFFCURVE",
"103 387 CURVE",
"105 391 OFFCURVE",
"107 396 OFFCURVE",
"108 401 CURVE",
"111 411 OFFCURVE",
"115 420 OFFCURVE",
"122 427 CURVE",
"130 436 OFFCURVE",
"136 447 OFFCURVE",
"140 458 CURVE",
"143 463 OFFCURVE",
"149 467 OFFCURVE",
"154 471 CURVE",
"156 472 OFFCURVE",
"158 474 OFFCURVE",
"161 476 CURVE",
"166 480 OFFCURVE",
"175 475 OFFCURVE",
"180 472 CURVE",
"182 471 OFFCURVE",
"185 469 OFFCURVE",
"188 468 CURVE SMOOTH",
"191 467 OFFCURVE",
"194 465 OFFCURVE",
"196 464 CURVE",
"200 460 OFFCURVE",
"207 456 OFFCURVE",
"207 449 CURVE",
"208 445 OFFCURVE",
"208 441 OFFCURVE",
"209 438 CURVE",
"210 434 OFFCURVE",
"209 430 OFFCURVE",
"208 426 CURVE",
"207 423 OFFCURVE",
"206 419 OFFCURVE",
"206 416 CURVE SMOOTH",
"206 413 OFFCURVE",
"206 409 OFFCURVE",
"205 406 CURVE",
"204 404 OFFCURVE",
"205 402 OFFCURVE",
"208 401 CURVE",
"215 398 OFFCURVE",
"229 402 OFFCURVE",
"234 410 CURVE",
"238 418 OFFCURVE",
"242 426 OFFCURVE",
"242 437 CURVE",
"241 439 OFFCURVE",
"241 441 OFFCURVE",
"242 442 CURVE",
"243 450 OFFCURVE",
"241 456 OFFCURVE",
"238 463 CURVE",
"237 467 OFFCURVE",
"235 471 OFFCURVE",
"234 475 CURVE",
"234 479 OFFCURVE",
"232 482 OFFCURVE",
"229 484 CURVE",
"226 487 OFFCURVE",
"223 489 OFFCURVE",
"220 490 CURVE",
"201 499 OFFCURVE",
"183 506 OFFCURVE",
"162 503 CURVE",
"157 503 OFFCURVE",
"153 503 OFFCURVE",
"150 502 CURVE SMOOTH",
"147 501 OFFCURVE",
"143 501 OFFCURVE",
"139 501 CURVE",
"135 500 OFFCURVE",
"131 500 OFFCURVE",
"128 499 CURVE",
"124 498 OFFCURVE",
"120 497 OFFCURVE",
"117 496 CURVE",
"106 493 LINE",
"93 488 OFFCURVE",
"81 483 OFFCURVE",
"68 476 CURVE",
"57 469 OFFCURVE",
"50 463 OFFCURVE",
"43 452 CURVE",
"43 451 OFFCURVE",
"42 450 OFFCURVE",
"41 447 CURVE",
"34 434 LINE",
"31 430 OFFCURVE",
"29 425 OFFCURVE",
"26 420 CURVE",
"21 409 OFFCURVE",
"15 397 OFFCURVE",
"10 385 CURVE SMOOTH",
"5 374 OFFCURVE",
"2 362 OFFCURVE",
"-1 351 CURVE",
"-2 350 OFFCURVE",
"-2 349 OFFCURVE",
"-2 349 CURVE",
"-2 348 OFFCURVE",
"-2 347 OFFCURVE",
"-3 346 CURVE",
"-4 334 OFFCURVE",
"-7 322 OFFCURVE",
"-10 311 CURVE SMOOTH",
"-17 288 OFFCURVE",
"-20 264 OFFCURVE",
"-20 244 CURVE",
"-21 241 OFFCURVE",
"-21 237 OFFCURVE",
"-21 233 CURVE SMOOTH",
"-21 229 OFFCURVE",
"-22 225 OFFCURVE",
"-23 222 CURVE",
"-24 211 OFFCURVE",
"-27 200 OFFCURVE",
"-24 187 CURVE"
);
}
);
width = 331;
}
);
note = c;
unicode = 0063;
},
{
glyphname = A;
layers = (
{
hints = (
{
horizontal = 1;
place = "{-189, 57}";
type = Stem;
},
{
horizontal = 1;
place = "{-8.57, 41.57}";
type = Stem;
},
{
horizontal = 1;
place = "{333.5, 15.5}";
type = Stem;
},
{
place = "{-4, 51.5}";
type = Stem;
},
{
place = "{499.5, 77.5}";
type = Stem;
},
{
place = "{424, 92}";
type = Stem;
},
{
horizontal = 1;
place = "{276, 30}";
type = Stem;
},
{
horizontal = 1;
place = "{290, 24}";
type = Stem;
}
);
layerId = "54D2F088-3B12-48DB-A05E-ED165257FC93";
paths = (
{
closed = 1;
nodes = (
"255 311 OFFCURVE",
"252 302 OFFCURVE",
"248 294 CURVE",
"236 265 OFFCURVE",
"223 237 OFFCURVE",
"210 208 CURVE",
"209 204 OFFCURVE",
"207 200 OFFCURVE",
"205 196 CURVE",
"202 192 OFFCURVE",
"200 188 OFFCURVE",
"198 184 CURVE",
"179 141 OFFCURVE",
"161 100 OFFCURVE",
"133 63 CURVE SMOOTH",
"125 53 OFFCURVE",
"118 45 OFFCURVE",
"111 39 CURVE",
"107 36 OFFCURVE",
"102 34 OFFCURVE",
"97 33 CURVE",
"74 30 OFFCURVE",
"54 46 OFFCURVE",
"50 69 CURVE SMOOTH",
"47 84 OFFCURVE",
"46 96 OFFCURVE",
"45 111 CURVE",
"44 115 OFFCURVE",
"45 120 OFFCURVE",
"46 125 CURVE",
"49 134 OFFCURVE",
"53 144 OFFCURVE",
"56 154 CURVE SMOOTH",
"65 183 LINE",
"71 192 LINE",
"76 201 OFFCURVE",
"81 209 OFFCURVE",
"88 220 CURVE SMOOTH",
"94 229 LINE",
"102 237 OFFCURVE",
"102 237 OFFCURVE",
"98 248 CURVE",
"91 249 OFFCURVE",
"85 248 OFFCURVE",
"79 247 CURVE",
"67 244 OFFCURVE",
"51 242 OFFCURVE",
"42 226 CURVE",
"37 215 OFFCURVE",
"31 206 OFFCURVE",
"24 197 CURVE",
"19 189 OFFCURVE",
"14 181 OFFCURVE",
"11 173 CURVE",
"3 157 OFFCURVE",
"-2 132 OFFCURVE",
"-4 101 CURVE SMOOTH",
"-6 69 OFFCURVE",
"-6 26 OFFCURVE",
"38 7 CURVE SMOOTH",
"43 5 OFFCURVE",
"47 3 OFFCURVE",
"52 2 CURVE",
"57 0 OFFCURVE",
"62 -2 OFFCURVE",
"67 -5 CURVE SMOOTH",
"88 -17 OFFCURVE",
"108 3 OFFCURVE",
"123 18 CURVE",
"138 31 OFFCURVE",
"150 45 OFFCURVE",
"161 62 CURVE SMOOTH",
"167 71 OFFCURVE",
"173 81 OFFCURVE",
"180 90 CURVE SMOOTH",
"187 99 OFFCURVE",
"192 109 OFFCURVE",
"197 120 CURVE SMOOTH",
"207 142 LINE SMOOTH",
"210 149 OFFCURVE",
"214 156 OFFCURVE",
"217 163 CURVE",
"218 164 OFFCURVE",
"218 164 OFFCURVE",
"218 165 CURVE",
"219 166 LINE",
"224 173 OFFCURVE",
"227 180 OFFCURVE",
"229 187 CURVE SMOOTH",
"231 194 OFFCURVE",
"235 200 OFFCURVE",
"240 205 CURVE SMOOTH",
"241 206 OFFCURVE",
"241 206 OFFCURVE",
"241 207 CURVE SMOOTH",
"241 208 OFFCURVE",
"241 208 OFFCURVE",
"242 209 CURVE",
"251 228 LINE SMOOTH",
"254 234 OFFCURVE",
"256 241 OFFCURVE",
"258 248 CURVE",
"261 252 LINE",
"267 261 LINE",
"270 267 OFFCURVE",
"272 273 OFFCURVE",
"274 279 CURVE SMOOTH",
"278 290 OFFCURVE",
"282 299 OFFCURVE",
"286 305 CURVE SMOOTH",
"292 314 LINE",
"305 313 OFFCURVE",
"318 310 OFFCURVE",
"331 306 CURVE SMOOTH",
"368 294 LINE",
"393 287 OFFCURVE",
"418 281 OFFCURVE",
"445 274 CURVE",
"445 265 LINE",
"442 228 LINE SMOOTH",
"441 216 OFFCURVE",
"439 204 OFFCURVE",
"438 191 CURVE",
"431 148 OFFCURVE",
"427 107 OFFCURVE",
"424 64 CURVE SMOOTH",
"421 13 OFFCURVE",
"422 -37 OFFCURVE",
"437 -88 CURVE",
"440 -101 OFFCURVE",
"445 -114 OFFCURVE",
"450 -126 CURVE SMOOTH",
"461 -151 OFFCURVE",
"479 -182 OFFCURVE",
"519 -189 CURVE",
"528 -192 OFFCURVE",
"539 -192 OFFCURVE",
"547 -185 CURVE",
"574 -165 OFFCURVE",
"585 -148 OFFCURVE",
"595 -131 CURVE SMOOTH",
"610 -105 LINE SMOOTH",
"615 -96 OFFCURVE",
"621 -86 OFFCURVE",
"626 -76 CURVE",
"631 -67 OFFCURVE",
"636 -57 OFFCURVE",
"642 -48 CURVE",
"645 -44 OFFCURVE",
"648 -40 OFFCURVE",
"651 -35 CURVE",
"653 -30 OFFCURVE",
"655 -26 OFFCURVE",
"658 -21 CURVE SMOOTH",
"672 3 LINE",
"676 11 OFFCURVE",
"680 19 OFFCURVE",
"685 26 CURVE",
"694 41 LINE",
"696 46 OFFCURVE",
"699 50 OFFCURVE",
"702 55 CURVE",
"708 67 LINE SMOOTH",
"711 73 OFFCURVE",
"714 79 OFFCURVE",
"717 86 CURVE",
"726 105 LINE",
"728 108 OFFCURVE",
"732 115 OFFCURVE",
"737 126 CURVE SMOOTH",
"742 137 OFFCURVE",
"748 149 OFFCURVE",
"755 163 CURVE SMOOTH",
"762 176 OFFCURVE",
"769 191 OFFCURVE",
"776 206 CURVE SMOOTH",
"783 221 OFFCURVE",
"790 235 OFFCURVE",
"797 248 CURVE",
"812 280 LINE SMOOTH",
"816 289 OFFCURVE",
"818 293 OFFCURVE",
"819 294 CURVE",
"818 299 OFFCURVE",
"816 302 OFFCURVE",
"811 303 CURVE",
"802 306 OFFCURVE",
"794 295 OFFCURVE",
"786 279 CURVE",
"777 263 OFFCURVE",
"763 238 OFFCURVE",
"748 208 CURVE SMOOTH",
"725 164 LINE SMOOTH",
"710 136 OFFCURVE",
"698 111 OFFCURVE",
"694 102 CURVE",
"692 98 OFFCURVE",
"690 94 OFFCURVE",
"689 90 CURVE",
"683 78 LINE",
"680 71 OFFCURVE",
"675 63 OFFCURVE",
"670 55 CURVE",
"665 46 OFFCURVE",
"660 38 OFFCURVE",
"657 31 CURVE SMOOTH",
"654 24 OFFCURVE",
"650 17 OFFCURVE",
"646 10 CURVE SMOOTH",
"642 3 OFFCURVE",
"639 -4 OFFCURVE",
"638 -11 CURVE",
"638 -12 OFFCURVE",
"638 -13 OFFCURVE",
"637 -14 CURVE SMOOTH",
"636 -15 OFFCURVE",
"636 -16 OFFCURVE",
"636 -17 CURVE",
"621 -48 OFFCURVE",
"603 -77 OFFCURVE",
"584 -106 CURVE",
"580 -113 OFFCURVE",
"575 -118 OFFCURVE",
"570 -125 CURVE SMOOTH",
"564 -134 OFFCURVE",
"556 -134 OFFCURVE",
"546 -127 CURVE",
"527 -112 OFFCURVE",
"518 -94 OFFCURVE",
"518 -73 CURVE",
"519 -62 OFFCURVE",
"519 -51 OFFCURVE",
"518 -40 CURVE SMOOTH",
"517 -29 OFFCURVE",
"517 -18 OFFCURVE",
"516 -7 CURVE",
"516 -4 OFFCURVE",
"516 0 OFFCURVE",
"515 4 CURVE SMOOTH",
"514 8 OFFCURVE",
"514 12 OFFCURVE",
"515 15 CURVE",
"516 28 OFFCURVE",
"518 42 OFFCURVE",
"520 56 CURVE SMOOTH",
"533 149 LINE SMOOTH",
"537 185 OFFCURVE",
"542 223 OFFCURVE",
"553 263 CURVE SMOOTH",
"556 274 OFFCURVE",
"563 278 OFFCURVE",
"574 276 CURVE",
"577 276 OFFCURVE",
"580 276 OFFCURVE",
"581 277 CURVE",
"585 278 OFFCURVE",
"589 280 OFFCURVE",
"593 282 CURVE",
"596 284 OFFCURVE",
"600 286 OFFCURVE",
"604 288 CURVE",
"607 289 OFFCURVE",
"609 290 OFFCURVE",
"610 290 CURVE",
"619 289 OFFCURVE",
"625 293 OFFCURVE",
"628 302 CURVE",
"627 305 OFFCURVE",
"626 309 OFFCURVE",
"623 314 CURVE",
"613 315 OFFCURVE",
"603 314 OFFCURVE",
"594 311 CURVE SMOOTH",
"584 308 OFFCURVE",
"573 306 OFFCURVE",
"562 306 CURVE",
"563 309 OFFCURVE",
"563 312 OFFCURVE",
"563 317 CURVE",
"566 328 OFFCURVE",
"568 336 OFFCURVE",
"568 347 CURVE",
"571 374 OFFCURVE",
"572 398 OFFCURVE",
"573 425 CURVE",
"574 434 OFFCURVE",
"574 442 OFFCURVE",
"574 451 CURVE SMOOTH",
"574 459 OFFCURVE",
"575 467 OFFCURVE",
"576 476 CURVE SMOOTH",
"578 497 OFFCURVE",
"578 518 OFFCURVE",
"576 540 CURVE",
"575 545 OFFCURVE",
"575 549 OFFCURVE",
"575 554 CURVE SMOOTH",
"575 569 LINE",
"576 573 OFFCURVE",
"578 577 OFFCURVE",
"577 582 CURVE",
"577 587 OFFCURVE",
"578 593 OFFCURVE",
"579 599 CURVE SMOOTH",
"580 605 OFFCURVE",
"579 611 OFFCURVE",
"577 617 CURVE",
"576 618 OFFCURVE",
"576 620 OFFCURVE",
"577 621 CURVE",
"577 624 LINE",
"577 641 LINE SMOOTH",
"577 649 OFFCURVE",
"577 657 OFFCURVE",
"576 665 CURVE SMOOTH",
"575 672 OFFCURVE",
"576 680 OFFCURVE",
"577 688 CURVE",
"578 709 OFFCURVE",
"573 729 OFFCURVE",
"563 748 CURVE",
"560 752 OFFCURVE",
"556 754 OFFCURVE",
"553 753 CURVE SMOOTH",
"550 752 OFFCURVE",
"548 752 OFFCURVE",
"546 752 CURVE SMOOTH",
"543 752 OFFCURVE",
"540 752 OFFCURVE",
"537 751 CURVE",
"520 751 LINE SMOOTH",
"514 751 OFFCURVE",
"508 751 OFFCURVE",
"502 750 CURVE",
"495 750 OFFCURVE",
"489 745 OFFCURVE",
"484 740 CURVE",
"464 723 OFFCURVE",
"445 705 OFFCURVE",
"434 682 CURVE SMOOTH",
"426 665 OFFCURVE",
"415 645 OFFCURVE",
"403 623 CURVE SMOOTH",
"385 589 LINE SMOOTH",
"381 582 OFFCURVE",
"378 576 OFFCURVE",
"375 569 CURVE SMOOTH",
"351 517 LINE SMOOTH",
"343 500 OFFCURVE",
"334 483 OFFCURVE",
"325 467 CURVE",
"322 459 OFFCURVE",
"319 451 OFFCURVE",
"315 443 CURVE",
"305 421 LINE",
"302 413 OFFCURVE",
"298 405 OFFCURVE",
"295 398 CURVE",
"292 393 OFFCURVE",
"289 387 OFFCURVE",
"287 381 CURVE",
"284 375 OFFCURVE",
"282 369 OFFCURVE",
"279 364 CURVE",
"273 364 LINE",
"246 365 OFFCURVE",
"222 365 OFFCURVE",
"195 360 CURVE",
"184 357 OFFCURVE",
"174 353 OFFCURVE",
"163 349 CURVE",
"156 348 OFFCURVE",
"157 337 OFFCURVE",
"165 334 CURVE",
"167 334 OFFCURVE",
"169 334 OFFCURVE",
"171 333 CURVE",
"172 332 OFFCURVE",
"174 332 OFFCURVE",
"175 333 CURVE",
"180 334 OFFCURVE",
"184 335 OFFCURVE",
"189 334 CURVE",
"197 332 OFFCURVE",
"205 330 OFFCURVE",
"213 330 CURVE",
"224 327 LINE",
"229 326 OFFCURVE",
"235 325 OFFCURVE",
"241 325 CURVE SMOOTH",
"247 325 OFFCURVE",
"253 323 OFFCURVE",
"258 320 CURVE"
);
},
{
closed = 1;
nodes = (
"503 698 OFFCURVE",
"502 690 OFFCURVE",
"501 683 CURVE SMOOTH",
"498 661 LINE",
"495 646 OFFCURVE",
"493 632 OFFCURVE",
"491 618 CURVE",
"488 604 OFFCURVE",
"486 590 OFFCURVE",
"483 575 CURVE",
"480 554 OFFCURVE",
"478 532 OFFCURVE",
"475 511 CURVE SMOOTH",
"472 489 OFFCURVE",
"470 467 OFFCURVE",
"468 445 CURVE SMOOTH",
"466 423 OFFCURVE",
"463 401 OFFCURVE",
"460 379 CURVE SMOOTH",
"457 354 LINE SMOOTH",
"456 345 OFFCURVE",
"454 336 OFFCURVE",
"453 327 CURVE",
"452 326 OFFCURVE",
"451 324 OFFCURVE",
"451 322 CURVE",
"404 334 OFFCURVE",
"360 347 OFFCURVE",
"313 360 CURVE",
"314 363 OFFCURVE",
"316 365 OFFCURVE",
"317 368 CURVE",
"320 375 LINE SMOOTH",
"324 384 OFFCURVE",
"328 392 OFFCURVE",
"333 400 CURVE",
"363 459 LINE SMOOTH",
"374 482 OFFCURVE",
"384 501 OFFCURVE",
"393 515 CURVE SMOOTH",
"402 529 OFFCURVE",
"412 547 OFFCURVE",
"420 567 CURVE SMOOTH",
"427 586 OFFCURVE",
"435 603 OFFCURVE",
"446 619 CURVE",
"455 635 OFFCURVE",
"464 651 OFFCURVE",
"472 667 CURVE",
"481 681 LINE",
"483 686 OFFCURVE",
"485 690 OFFCURVE",
"488 695 CURVE SMOOTH",
"491 700 OFFCURVE",
"493 702 OFFCURVE",
"504 705 CURVE"
);
}
);
width = 789;
}
);
note = A;
unicode = 0041;
},
{
glyphname = B;
layers = (
{
hints = (
{
horizontal = 1;
place = "{-215, 37}";
type = Stem;
},
{
horizontal = 1;
place = "{405, 29.5}";
type = Stem;
},
{
horizontal = 1;
place = "{780.5, 71}";
type = Stem;
},
{
place = "{4, 32}";
type = Stem;
},
{
place = "{163, 109.12}";
type = Stem;
},
{
place = "{335.01, 44.99}";
type = Stem;
},
{
place = "{469, 101}";
type = Stem;
},
{
place = "{603, 119}";
type = Stem;
},
{
place = "{171, 77}";
type = Stem;
}
);
layerId = "54D2F088-3B12-48DB-A05E-ED165257FC93";
paths = (
{
closed = 1;
nodes = (
"841 293 OFFCURVE",
"826 280 OFFCURVE",
"809 265 CURVE",
"802 260 OFFCURVE",
"795 255 OFFCURVE",
"790 248 CURVE SMOOTH",
"781 236 OFFCURVE",
"770 225 OFFCURVE",
"758 216 CURVE",
"723 187 LINE",
"719 184 OFFCURVE",
"716 183 OFFCURVE",
"714 182 CURVE",
"708 197 LINE",
"706 201 OFFCURVE",
"704 205 OFFCURVE",
"702 210 CURVE SMOOTH",
"696 225 LINE",
"692 233 OFFCURVE",
"686 246 OFFCURVE",
"681 262 CURVE",
"672 284 LINE",
"661 305 OFFCURVE",
"648 323 OFFCURVE",
"633 342 CURVE SMOOTH",
"608 374 OFFCURVE",
"580 400 OFFCURVE",
"541 415 CURVE SMOOTH",
"530 419 OFFCURVE",
"519 423 OFFCURVE",
"509 428 CURVE",
"498 432 OFFCURVE",
"487 436 OFFCURVE",
"476 441 CURVE",
"473 442 OFFCURVE",
"471 444 OFFCURVE",
"469 445 CURVE",
"470 447 OFFCURVE",
"472 449 OFFCURVE",
"475 452 CURVE",
"496 468 OFFCURVE",
"513 489 OFFCURVE",
"528 514 CURVE",
"540 536 LINE SMOOTH",
"544 543 OFFCURVE",
"548 550 OFFCURVE",
"551 557 CURVE SMOOTH",
"562 581 OFFCURVE",
"570 604 OFFCURVE",
"570 631 CURVE SMOOTH",
"570 638 OFFCURVE",
"570 646 OFFCURVE",
"569 653 CURVE SMOOTH",
"568 660 OFFCURVE",
"569 668 OFFCURVE",
"570 675 CURVE",
"571 686 OFFCURVE",
"569 697 OFFCURVE",
"568 708 CURVE",
"565 721 OFFCURVE",
"561 730 OFFCURVE",
"555 740 CURVE",
"545 755 LINE SMOOTH",
"532 776 OFFCURVE",
"514 794 OFFCURVE",
"492 807 CURVE",
"461 827 OFFCURVE",
"429 841 OFFCURVE",
"393 845 CURVE",
"374 848 OFFCURVE",
"358 850 OFFCURVE",
"341 851 CURVE SMOOTH",
"322 852 OFFCURVE",
"307 853 OFFCURVE",
"288 852 CURVE",
"255 849 OFFCURVE",
"222 846 OFFCURVE",
"190 837 CURVE SMOOTH",
"145 825 OFFCURVE",
"103 805 OFFCURVE",
"66 777 CURVE SMOOTH",
"22 745 OFFCURVE",
"7 698 OFFCURVE",
"4 646 CURVE",
"4 643 OFFCURVE",
"4 640 OFFCURVE",
"5 639 CURVE",
"8 633 OFFCURVE",
"10 627 OFFCURVE",
"12 621 CURVE",
"14 614 OFFCURVE",
"17 608 OFFCURVE",
"20 603 CURVE",
"28 586 OFFCURVE",
"41 572 OFFCURVE",
"58 559 CURVE SMOOTH",
"66 553 OFFCURVE",
"74 554 OFFCURVE",
"82 561 CURVE",
"80 562 OFFCURVE",
"78 564 OFFCURVE",
"77 565 CURVE",
"71 569 LINE",
"58 576 OFFCURVE",
"50 587 OFFCURVE",
"45 601 CURVE SMOOTH",
"44 604 OFFCURVE",
"44 606 OFFCURVE",
"44 609 CURVE",
"41 616 LINE",
"36 625 OFFCURVE",
"35 634 OFFCURVE",
"36 643 CURVE",
"39 660 OFFCURVE",
"46 677 OFFCURVE",
"55 693 CURVE",
"67 718 LINE",
"74 731 OFFCURVE",
"85 741 OFFCURVE",
"97 750 CURVE SMOOTH",
"117 765 OFFCURVE",
"141 774 OFFCURVE",
"165 781 CURVE",
"184 784 LINE",
"190 784 OFFCURVE",
"196 784 OFFCURVE",
"202 785 CURVE",
"217 785 OFFCURVE",
"232 784 OFFCURVE",
"247 782 CURVE",
"287 779 LINE SMOOTH",
"314 777 OFFCURVE",
"339 771 OFFCURVE",
"360 766 CURVE SMOOTH",
"392 758 LINE",
"445 742 OFFCURVE",
"473 690 OFFCURVE",
"469 639 CURVE",
"466 620 LINE SMOOTH",
"465 614 OFFCURVE",
"463 608 OFFCURVE",
"460 602 CURVE",
"457 594 OFFCURVE",
"455 586 OFFCURVE",
"454 578 CURVE",
"451 563 OFFCURVE",
"450 550 OFFCURVE",
"439 538 CURVE",
"438 537 OFFCURVE",
"437 535 OFFCURVE",
"436 530 CURVE",
"429 515 OFFCURVE",
"424 501 OFFCURVE",
"411 490 CURVE SMOOTH",
"398 479 OFFCURVE",
"385 470 OFFCURVE",
"371 462 CURVE SMOOTH",
"342 445 OFFCURVE",
"314 437 OFFCURVE",
"293 436 CURVE",
"260 433 LINE",
"260 433 OFFCURVE",
"259 434 OFFCURVE",
"256 435 CURVE",
"257 439 OFFCURVE",
"257 443 OFFCURVE",
"258 447 CURVE",
"258 450 OFFCURVE",
"258 454 OFFCURVE",
"259 458 CURVE",
"261 477 OFFCURVE",
"263 495 OFFCURVE",
"264 514 CURVE SMOOTH",
"265 532 OFFCURVE",
"267 550 OFFCURVE",
"270 569 CURVE SMOOTH",
"274 600 OFFCURVE",
"273 631 OFFCURVE",
"266 662 CURVE",
"264 668 OFFCURVE",
"263 674 OFFCURVE",
"263 679 CURVE",
"262 690 OFFCURVE",
"261 699 OFFCURVE",
"254 707 CURVE SMOOTH",
"235 730 OFFCURVE",
"202 737 OFFCURVE",
"178 724 CURVE",
"178 717 OFFCURVE",
"178 712 OFFCURVE",
"177 709 CURVE",
"175 696 OFFCURVE",
"172 683 OFFCURVE",
"169 670 CURVE",
"165 657 OFFCURVE",
"163 644 OFFCURVE",
"164 631 CURVE",
"164 628 LINE",
"163 627 OFFCURVE",
"163 626 OFFCURVE",
"163 625 CURVE",
"162 620 OFFCURVE",
"162 609 OFFCURVE",
"162 591 CURVE SMOOTH",
"162 573 OFFCURVE",
"162 551 OFFCURVE",
"163 524 CURVE SMOOTH",
"164 471 OFFCURVE",
"167 404 OFFCURVE",
"171 340 CURVE SMOOTH",
"174 276 OFFCURVE",
"178 215 OFFCURVE",
"183 174 CURVE SMOOTH",
"184 166 OFFCURVE",
"184 158 OFFCURVE",
"182 150 CURVE",
"179 141 OFFCURVE",
"177 133 OFFCURVE",
"176 125 CURVE",
"171 97 OFFCURVE",
"175 70 OFFCURVE",
"180 42 CURVE SMOOTH",
"181 37 OFFCURVE",
"183 33 OFFCURVE",
"187 30 CURVE",
"194 23 OFFCURVE",
"203 19 OFFCURVE",
"210 17 CURVE",
"213 16 OFFCURVE",
"215 15 OFFCURVE",
"216 16 CURVE",
"218 16 LINE",
"218 15 OFFCURVE",
"218 15 OFFCURVE",
"219 15 CURVE",
"222 12 OFFCURVE",
"226 9 OFFCURVE",
"229 9 CURVE",
"234 10 OFFCURVE",
"237 14 OFFCURVE",
"237 21 CURVE",
"239 29 LINE",
"239 32 OFFCURVE",
"239 35 OFFCURVE",
"240 38 CURVE",
"244 54 OFFCURVE",
"246 71 OFFCURVE",
"242 88 CURVE",
"241 91 OFFCURVE",
"242 95 OFFCURVE",
"243 100 CURVE",
"246 123 OFFCURVE",
"247 143 OFFCURVE",
"244 166 CURVE SMOOTH",
"243 173 OFFCURVE",
"243 179 OFFCURVE",
"244 186 CURVE SMOOTH",
"247 206 OFFCURVE",
"248 248 OFFCURVE",
"248 286 CURVE SMOOTH",
"248 305 OFFCURVE",
"248 322 OFFCURVE",
"248 338 CURVE SMOOTH",
"248 370 LINE",
"249 373 OFFCURVE",
"249 377 OFFCURVE",
"250 380 CURVE",
"250 383 OFFCURVE",
"251 387 OFFCURVE",
"252 390 CURVE SMOOTH",
"255 399 OFFCURVE",
"260 400 OFFCURVE",
"268 402 CURVE SMOOTH",
"276 404 OFFCURVE",
"285 405 OFFCURVE",
"297 405 CURVE SMOOTH",
"314 405 LINE SMOOTH",
"321 405 OFFCURVE",
"328 406 OFFCURVE",
"335 407 CURVE SMOOTH",
"341 408 OFFCURVE",
"347 409 OFFCURVE",
"354 409 CURVE SMOOTH",
"375 409 OFFCURVE",
"395 407 OFFCURVE",
"414 402 CURVE",
"446 395 OFFCURVE",
"475 384 OFFCURVE",
"506 369 CURVE SMOOTH",
"517 364 OFFCURVE",
"526 358 OFFCURVE",
"533 347 CURVE SMOOTH",
"552 316 OFFCURVE",
"569 286 OFFCURVE",
"581 253 CURVE SMOOTH",
"597 210 OFFCURVE",
"602 167 OFFCURVE",
"603 123 CURVE",
"604 108 OFFCURVE",
"602 97 OFFCURVE",
"587 92 CURVE",
"586 92 OFFCURVE",
"586 92 OFFCURVE",
"586 91 CURVE",
"585 90 OFFCURVE",
"585 90 OFFCURVE",
"584 90 CURVE",
"539 61 OFFCURVE",
"495 33 OFFCURVE",
"450 5 CURVE SMOOTH",
"417 -16 OFFCURVE",
"388 -40 OFFCURVE",
"363 -69 CURVE SMOOTH",
"335 -102 OFFCURVE",
"331 -141 OFFCURVE",
"338 -184 CURVE",
"339 -187 OFFCURVE",
"341 -189 OFFCURVE",
"344 -192 CURVE",
"349 -196 OFFCURVE",
"355 -199 OFFCURVE",
"361 -200 CURVE",
"377 -204 LINE",
"394 -207 OFFCURVE",
"410 -210 OFFCURVE",
"426 -215 CURVE",
"433 -218 OFFCURVE",
"438 -218 OFFCURVE",
"443 -216 CURVE",
"448 -215 OFFCURVE",
"454 -213 OFFCURVE",
"460 -212 CURVE SMOOTH",
"466 -211 OFFCURVE",
"471 -209 OFFCURVE",
"476 -206 CURVE",
"479 -205 OFFCURVE",
"481 -204 OFFCURVE",
"483 -204 CURVE SMOOTH",
"498 -204 OFFCURVE",
"512 -198 OFFCURVE",
"527 -193 CURVE SMOOTH",
"542 -188 OFFCURVE",
"555 -180 OFFCURVE",
"567 -169 CURVE",
"580 -158 OFFCURVE",
"592 -147 OFFCURVE",
"605 -138 CURVE SMOOTH",
"622 -127 OFFCURVE",
"638 -115 OFFCURVE",
"649 -96 CURVE",
"655 -87 LINE",
"656 -84 OFFCURVE",
"658 -82 OFFCURVE",
"659 -79 CURVE",
"673 -59 LINE SMOOTH",
"682 -47 OFFCURVE",
"693 -31 OFFCURVE",
"699 -11 CURVE SMOOTH",
"708 17 LINE",
"709 18 OFFCURVE",
"709 20 OFFCURVE",
"709 22 CURVE SMOOTH",
"709 23 OFFCURVE",
"710 24 OFFCURVE",
"711 25 CURVE",
"714 26 OFFCURVE",
"716 28 OFFCURVE",
"716 30 CURVE SMOOTH",
"716 37 LINE",
"717 40 OFFCURVE",
"717 44 OFFCURVE",
"717 48 CURVE SMOOTH",
"717 51 OFFCURVE",
"718 55 OFFCURVE",
"719 58 CURVE",
"723 85 OFFCURVE",
"723 113 OFFCURVE",
"719 141 CURVE",
"717 151 OFFCURVE",
"720 159 OFFCURVE",
"728 166 CURVE",
"734 170 OFFCURVE",
"740 174 OFFCURVE",
"746 179 CURVE SMOOTH",
"751 183 OFFCURVE",
"757 187 OFFCURVE",
"763 191 CURVE",
"764 192 OFFCURVE",
"765 194 OFFCURVE",
"768 195 CURVE",
"789 203 OFFCURVE",
"803 221 OFFCURVE",
"816 238 CURVE SMOOTH",
"824 249 OFFCURVE",
"833 259 OFFCURVE",
"843 268 CURVE SMOOTH",
"872 293 LINE",
"872 309 OFFCURVE",
"872 309 OFFCURVE",
"856 309 CURVE"
);
},
{
closed = 1;
nodes = (
"572 -28 OFFCURVE",
"561 -49 OFFCURVE",
"548 -70 CURVE SMOOTH",
"545 -75 OFFCURVE",
"542 -79 OFFCURVE",
"540 -83 CURVE",
"538 -88 OFFCURVE",
"536 -92 OFFCURVE",
"533 -97 CURVE SMOOTH",
"515 -125 OFFCURVE",
"493 -146 OFFCURVE",
"466 -161 CURVE SMOOTH",
"451 -169 OFFCURVE",
"436 -175 OFFCURVE",
"421 -178 CURVE",
"406 -182 OFFCURVE",
"388 -174 OFFCURVE",
"381 -163 CURVE",
"381 -161 LINE",
"380 -160 OFFCURVE",
"380 -160 OFFCURVE",
"380 -159 CURVE",
"377 -146 OFFCURVE",
"374 -133 OFFCURVE",
"377 -120 CURVE",
"378 -103 OFFCURVE",
"385 -89 OFFCURVE",
"397 -78 CURVE",
"402 -75 OFFCURVE",
"407 -71 OFFCURVE",
"412 -67 CURVE",
"416 -63 OFFCURVE",
"421 -59 OFFCURVE",
"426 -56 CURVE",
"453 -38 LINE SMOOTH",
"470 -27 OFFCURVE",
"492 -13 OFFCURVE",
"514 3 CURVE SMOOTH",
"536 19 OFFCURVE",
"554 32 OFFCURVE",
"571 40 CURVE SMOOTH",
"579 44 OFFCURVE",
"587 48 OFFCURVE",
"594 53 CURVE",
"597 51 LINE",
"596 31 OFFCURVE",
"590 14 OFFCURVE",
"582 -5 CURVE SMOOTH"
);
}
);
width = 851;
}
);
note = B;
unicode = 0042;
},
